<?xml version="1.0" encoding="UTF-8"?>
<svg width="639px" height="653px" viewBox="0 0 639 653" version="1.1" xmlns="http://www.w3.org/2000/svg" xmlns:xlink="http://www.w3.org/1999/xlink">
    <!-- Generator: Sketch 45.2 (43514) - http://www.bohemiancoding.com/sketch -->
    <title>Logo</title>
    <desc>Created with Sketch.</desc>
    <defs>
        <linearGradient x1="50.0005245%" y1="36.9231448%" x2="50.0005245%" y2="64.2142027%" id="linearGradient-1">
            <stop stop-color="#E4006F" offset="0%"></stop>
            <stop stop-color="#A60C54" offset="47.3692473%"></stop>
            <stop stop-color="#E4006F" offset="100%"></stop>
        </linearGradient>
    </defs>
    <g id="Page-1" stroke="none" stroke-width="1" fill="none" fill-rule="evenodd">
        <g id="iPad" transform="translate(-192.000000, -64.000000)">
            <g id="Logo" transform="translate(192.000000, 64.000000)">
                <polygon id="Combined-Shape" fill="#000000" points="509.277677 332.121381 534.107623 332.121381 521.69265 300.757238 521.69265 266.547884 534.521158 270.824053 575.857461 369.175947 561.603563 373.452116 548.775056 369.175947 542.004454 352.071269 501.380846 352.071269 494.610245 369.175947 481.781737 373.452116 467.52784 369.175947 508.864143 270.824053 521.69265 266.547884 521.69265 300.757238"></polygon>
                <polygon id="Path" fill="#000000" points="49.8886414 270.824053 45.6124722 282.216036 49.8886414 293.63029 79.8218263 293.63029 79.8218263 369.175947 92.6503341 373.452116 105.478842 369.175947 105.478842 293.63029 135.579065 293.63029 139.688196 282.216036 135.579065 270.824053"></polygon>
                <path d="M359.5403,51.6219347 C350.913726,46.2303264 334.152076,41.0155908 320.615486,40.2838832 C311.376434,39.784475 303.261271,41.1599265 296.70272,45.1077917 C288.27218,50.182486 282.227171,58.8713005 282.227171,69.844098 C282.227171,80.8219369 285.300911,90.5915004 294.597921,94.4020165 C300.757238,96.9265033 306.458797,99.7772829 319.6489,103.243933 C326.292142,104.989924 336.391982,105.615692 336.391982,112.605791 C336.391982,119.595889 323.981633,120.096347 318.11913,119.595889 C306.796479,118.629321 296.844638,113.4511 292.586957,109.725629 L280.801782,114.03118 L277.568945,126.889071 C285.845681,134.131215 304.593737,142.319478 320.45548,142.319478 C330.690423,142.319478 339.163112,140.572742 346.246922,136.722845 C355.456064,131.717877 362.048998,124.818428 362.048998,112.605791 C362.048998,100.393154 359.5403,92.6503341 346.754928,87.2058392 C340.680588,84.6191554 335.803566,82.062264 324.627269,79.5623029 C324.331294,79.4961168 324.331294,79.4961168 324.037039,79.4303435 C309.144732,76.1013101 307.884187,74.1202673 307.884187,69.844098 C307.884187,65.5679287 314.297194,62.7818838 319.384514,63.056874 C329.106255,63.5823736 342.128432,67.6337176 347.453019,70.9615842 L357.772829,65.5679287 L359.5403,51.6219347 Z" id="Path-2" fill="#000000" fill-rule="nonzero"></path>
                <rect id="Rectangle-4-Copy" fill="url(#linearGradient-1)" transform="translate(319.552569, 320.172933) rotate(45.000000) translate(-319.552569, -320.172933) " x="285.343215" y="-97.4662649" width="68.4187082" height="835.278396"></rect>
                <rect id="Rectangle-4" fill="#32BFFC" transform="translate(319.552569, 320.172933) rotate(-45.000000) translate(-319.552569, -320.172933) " x="285.343215" y="-97.4662649" width="68.4187082" height="835.278396"></rect>
                <polygon id="Path-3" stroke="#000000" stroke-width="9" points="273.674833 494.610245 394.832962 582.98441 245.167038 582.98441 366.325167 494.610245 320 637.861915"></polygon>
            </g>
        </g>
    </g>
</svg>