<?xml version="1.0"?>
<svg width="767.992" height="367.74" xmlns="http://www.w3.org/2000/svg" xmlns:svg="http://www.w3.org/2000/svg">
 <g>
  <title>Layer 1</title>
  <g id="svg_1">
   <g id="svg_2">
    <path fill="#cccccc" d="m171.585999,140.091995c0,0 -27.720001,-129.358002 -28.319,-132.598999c-0.600998,-3.24 0.479004,-4.44 0.479004,-4.44l-45.238998,0c1.559998,1.2 0.478996,4.32 0.478996,4.32s-29.278999,127.919012 -30.238998,132.000005c-0.960999,4.080002 -3.120003,4.919998 -3.120003,4.919998s20.520004,0 42.599998,0c-1.079994,-0.960007 -0.839996,-3.960007 -0.839996,-3.960007l2.760002,-18.720001l21.119995,0c0,0 2.158997,15.239014 2.520004,18.600006s-0.839996,4.080002 -0.839996,4.080002s25.559998,0 41.279999,0c-1.561005,-0.600006 -2.641006,-4.201004 -2.641006,-4.201004zm-57.479996,-44.278992l6.839996,-45.599995l6.600998,45.599995l-13.440994,0z" id="svg_3"/>
    <path fill="#cccccc" d="m242.145996,71.333c0,0 24.959991,-2.760002 24.119995,-34.799c-1.199982,-35.040001 -44.278992,-33.240001 -44.278992,-33.240001l-47.160004,0c1.080002,1.2 1.439011,5.28 1.439011,5.28s0,128.039007 0,130.679007s-1.319,5.279999 -1.319,5.279999s39,0 52.438995,0c13.440002,0 44.759995,-5.761002 43.919998,-38.76001c-0.839996,-33 -29.160004,-34.440002 -29.160004,-34.440002l0,0.000008zm-12.599991,-26.52c0.720001,15.360001 -13.319992,14.279999 -14.279999,14.279999c0,-14.039997 -0.238998,-27.239998 -0.238998,-27.239998s13.798996,-2.399 14.518997,12.959999zm-14.639999,69.000004l0,-29.040001c0,0 15.960007,-2.639992 15.960007,14.640007c-0.000015,17.279999 -15.960007,14.399994 -15.960007,14.399994z" id="svg_4"/>
    <path fill="#cccccc" d="m323.265991,51.173c-7.446991,-5.966999 -11.279999,-16.799999 2.639984,-18c14.756012,0.116001 24.360016,9.599998 24.360016,9.599998l0,-37.319c-1.079987,0.96 -2.880005,1.08 -5.160004,0.12s-7.440002,-2.880001 -12.959991,-3.96c-17.76001,-3.360001 -31.800018,0.6 -39.959991,6.599999s-13.920013,12.36 -14.880005,32.159999s7.384003,28.248005 18.839996,39.720005c13.414001,10.281998 17.279999,14.039001 20.759979,18.359001c4.080017,4.079994 4.320007,13.559998 -9.119995,14.879997c-13.919983,0.480003 -30.358978,-13.919998 -30.358978,-13.919998s0,20.400002 0,40.200005c1.438995,-0.960007 3.959991,0 9.478973,3c13.320007,7.438995 38.160004,7.438995 53.880035,-3.240005c15.720978,-10.680008 20.640991,-36.959999 15.959991,-52.559998c-4.681,-15.600006 -20.64801,-25.368004 -33.480011,-35.640003z" id="svg_5"/>
    <path fill="#cccccc" d="m413.505005,0.173c0,0 -52.380005,-7.327 -52.380005,73.309002s52.380005,74.133003 52.380005,74.133003s52.485016,4.556992 52.485016,-74.133003s-52.485016,-73.309002 -52.485016,-73.309002zm0,114.326001c0,0 -12.544006,4.825996 -12.544006,-41.016998c0,-45.843998 12.544006,-42.243 12.544006,-42.243s11.933014,-3.573999 11.933014,42.243c-0.000031,45.815994 -11.933014,41.016998 -11.933014,41.016998z" id="svg_6"/>
    <path fill="#cccccc" d="m513.94397,111.292c0,0 0,-99.719002 0,-103.198997c0,-3.479001 1.080017,-4.92 1.080017,-4.92l-41.880005,0c1.799988,2.521 1.319977,5.28 1.319977,5.28s0,124.918992 0,129.959001s-1.319977,5.759995 -1.319977,5.759995l69.23999,0c0,0 0,-25.919998 0,-34.319c-1.200012,1.200005 -5.039978,1.439003 -5.039978,1.439003l-23.400024,0z" id="svg_7"/>
    <path fill="#cccccc" d="m605.383972,8.814l0,96.478999c0,0 0.184021,10.199997 -10.017029,10.199997c-10.198975,0 -11.25,-10.199997 -11.25,-10.199997s0,-93.119014 0,-97.079013s1.319031,-5.04 1.319031,-5.04l-40.772034,0c1.080017,0.601 1.561035,5.04 1.561035,5.04l0,97.079013c0,0 0.992981,42.360001 48.393005,42.360001c47.400024,0 48.086975,-42.599998 48.086975,-42.599998s0,-94.319003 0,-97.080005c0,-2.76 1.200012,-4.56 1.200012,-4.56s-26.399963,0 -40.080017,0c1.320068,1.441 1.559021,5.401 1.559021,5.401l0,0.000003z" id="svg_8"/>
    <path fill="#cccccc" d="m648.463989,37.493999c2.039978,-1.32 5.159973,-1.200001 5.159973,-1.200001l17.880005,0c0,0 0,98.879005 0,102.838997s-1.199951,5.160004 -1.199951,5.160004s29.520996,0 42,0c-1.320007,-1.319992 -1.320007,-5.399994 -1.320007,-5.399994l0,-102.600006c0,0 15.23999,0 18.23999,0s4.559998,1.200001 4.559998,1.200001l0,-34.2l-85.319031,0l0,34.200999l-0.000977,0z" id="svg_9"/>
    <path fill="#cccccc" d="m754.182983,0.665c-7.52002,0 -13.880981,5.785 -13.880981,13.63c0,7.917 6.360962,13.700001 13.880981,13.700001c7.447998,0 13.809998,-5.783001 13.809998,-13.700001c-0.000977,-7.845 -6.362,-13.63 -13.809998,-13.63zm0,25.051997c-6.254028,0 -11.132996,-4.844997 -11.132996,-11.422998c0,-6.473 4.878967,-11.351 11.132996,-11.351c6.182983,0 11.062012,4.878 11.062012,11.351c-0.000977,6.579 -4.880005,11.422998 -11.062012,11.422998z" id="svg_10"/>
    <path fill="#cccccc" d="m760.473022,10.931c0,-3.109 -1.843994,-4.481 -5.565002,-4.481l-6.002014,0l0,15.762l2.385986,0l0,-6.833l2.748047,0l4.156006,6.833l2.675964,0l-4.481995,-6.941c2.310974,-0.291 4.083008,-1.52 4.083008,-4.34zm-9.182007,2.423l0,-4.88l3.254028,0c1.661987,0 3.434998,0.361 3.434998,2.313c0,2.422 -1.808044,2.567 -3.832031,2.567l-2.856995,0z" id="svg_11"/>
   </g>
   <g id="svg_12">
    <path fill="#cccccc" d="m628.945984,364.291992c0,0 25.559998,0 41.279968,0c-1.560974,-0.600006 -2.640991,-4.200012 -2.640991,-4.200012s-27.719971,-129.357986 -28.31897,-132.598984c-0.601013,-3.240005 0.479004,-4.440002 0.479004,-4.440002l-45.239014,0c1.559998,1.199997 0.479004,4.319992 0.479004,4.319992s-29.278992,127.919006 -30.239014,131.998993c-0.960999,4.080017 -3.119995,4.920013 -3.119995,4.920013s20.52002,0 42.599976,0c-1.079956,-0.959991 -0.839966,-3.959991 -0.839966,-3.959991l2.76001,-18.720001l21.119995,0c0,0 2.158997,15.238983 2.519958,18.599976s-0.839966,4.080017 -0.839966,4.080017zm-18.839966,-48.479004l6.840027,-45.600006l6.600952,45.600006l-13.440979,0z" id="svg_13"/>
    <path fill="#cccccc" d="m292.171997,220.173004c0,0 -52.37999,-7.327011 -52.37999,73.30899s52.37999,74.133026 52.37999,74.133026s52.485016,4.556976 52.485016,-74.133026s-52.485016,-73.30899 -52.485016,-73.30899zm0,114.325989c0,0 -12.544006,4.825989 -12.544006,-41.016998c0,-45.844009 12.544006,-42.243011 12.544006,-42.243011s11.933014,-3.57399 11.933014,42.243011c-0.001007,45.81601 -11.933014,41.016998 -11.933014,41.016998z" id="svg_14"/>
    <path fill="#cccccc" d="m393.825012,223.130997l-42,0c1.320007,1.80101 1.440002,4.199997 1.440002,4.199997s0,129.83902 0,132.359009c0,2.519989 -1.080017,5.039978 -1.080017,5.039978s4.439026,0 43.080017,0c38.639984,0 49.438995,-34.199982 49.438995,-34.199982s12.479004,-31.080017 1.079987,-70.199005c-11.398987,-39.119995 -51.958984,-37.199997 -51.958984,-37.199997zm-3.120026,112.319992l0,-83.998993c0,0 19.320007,-2.76001 19.320007,41.759979s-19.320007,42.239014 -19.320007,42.239014z" id="svg_15"/>
    <path fill="#cccccc" d="m558.465027,361.01001l-27.359985,-72.359009c0,0 26.640015,-57.958984 27.959961,-60.598984c1.320007,-2.641006 3.360046,-4.80101 3.360046,-4.80101s-25.920044,0 -44.520996,0c0.720947,0.721008 0.47998,3.720001 0.47998,3.720001l-20.160004,54.23999c0,0 0,-50.519989 0,-53.639984s1.320007,-4.199997 1.320007,-4.199997l-42,0c1.079987,0.600998 1.559998,4.079987 1.559998,4.079987s0,128.279007 0,131.999008s-1.438995,5.279999 -1.438995,5.279999s25.799988,0 42.238983,0c-1.319,-1.320007 -1.438995,-5.640991 -1.438995,-5.640991l0,-58.800018c0,0 17.880005,56.399994 18.839966,59.279999s-0.719971,5.040009 -0.719971,5.040009s32.76001,0 44.158997,0c-1.129028,-0.752014 -2.278992,-3.598999 -2.278992,-3.598999z" id="svg_16"/>
    <path fill="#cccccc" d="m213.932999,359.868011c0.600006,-3.23999 28.319,-132.598999 28.319,-132.598999s1.080002,-3.600998 2.641006,-4.199997c-15.721008,0 -41.279999,0 -41.279999,0s1.199997,0.720001 0.839996,4.080002s-2.520004,18.599991 -2.520004,18.599991l-10.319992,71.399002l-10.800003,-71.399002l-2.76001,-18.720001c0,0 -0.23999,-3 0.840012,-3.959991c-22.080002,0 -42.600006,0 -42.600006,0s2.158997,0.839996 3.119995,4.919998c0.960007,4.080002 30.238998,131.998993 30.238998,131.998993s1.080002,3.119995 -0.478989,4.320007l45.238998,0c0,0 -1.080002,-1.200012 -0.479004,-4.440002z" id="svg_17"/>
   </g>
   <g id="svg_18">
    <path fill="#cccccc" d="m353.265991,185.302002c-18.23999,13.919998 -25.681,19.319 -25.681,19.319l21.841003,-39.959c-0.046997,0 -0.759003,0 -8.881012,0c-9.358978,17.399002 -13.438995,23.520004 -16.199005,27.238998c-2.760986,3.720001 -4.560974,7.440002 -10.079987,10.440002c-5.520996,3 -5.160004,-0.721008 -5.160004,-1.681s2.040009,-4.680008 5.880005,-10.07901c3.839996,-5.399994 6,-7.799988 8.639984,-14.87999c2.641022,-7.080002 -0.118988,-11.279999 -2.278992,-11.761002c-2.160004,-0.479004 -6.600983,0 -10.799988,4.080002c-4.200012,4.080002 -22.320007,27.360001 -25.080017,30s-3.720978,2.759995 -6.959991,4.080002c-3.23999,1.319992 -3.23999,-0.600006 -3.119995,-2.160004c0.119995,-1.559998 3.839996,-8.639999 8.040009,-14.160004c4.199982,-5.520004 9.358978,-9.959 11.639984,-15.839996c2.279999,-5.880005 -0.959991,-8.279007 -5.76001,-7.319s-6.119995,-0.240005 -6.119995,-0.240005s3.360016,-5.039993 5.040009,-7.319992c1.679993,-2.279007 2.880005,-6.238998 0.959991,-7.07901c-1.919983,-0.840988 -4.559998,1.07901 -7.199982,4.560013c-2.640015,3.479996 -3,7.559998 -3.119995,10.679993c-5.880005,9.479996 -17.039001,23.279999 -23.039017,30.479004c-6,7.199997 -10.681,9 -13.080002,8.279999c-2.399994,-0.720001 -1.560989,-7.438995 0.479004,-12.12001c2.039993,-4.679993 16.200012,-26.998993 16.200012,-26.998993l8.398987,0l1.200012,-2.880005l-8.158997,0l11.639984,-20.640991l-8.160004,0l-12.839996,21.23999l-9.240005,0l-0.959991,2.399002c0,0 4.080002,0.12001 8.640015,0c-15.479004,28.440002 -22.800003,33.960007 -26.039001,36.840012c-3.240005,2.87999 -5.400009,3.720993 -7.320007,2.87999c-1.919998,-0.839996 -0.959991,-3.839996 0.600006,-6.238998c1.560989,-2.399994 10.681,-15.479996 12.23999,-23.639999c1.560013,-8.160004 -1.199997,-9.360001 -6.479996,-9.240005c-5.278992,0.12001 -12.959,8.399002 -15.239014,10.200012c1.200012,-14.400009 -8.039993,-11.881012 -14.520981,-5.160004c-6.479019,6.720001 -18.840012,23.998993 -21.959,27.599991c-3.12001,3.600006 -7.080002,5.880005 -8.160004,5.520004c-1.080002,-0.358994 -0.839996,-1.559998 0.600006,-6.119995c1.439987,-4.559998 15.959991,-30.600006 15.959991,-30.600006c-0.085999,0 -0.957993,0 -7.919998,0c-12.585007,21.626999 -21.360016,30.960007 -24.479004,33.960007c-3.119995,3 -5.880997,4.199997 -7.560989,3.600998c-1.680008,-0.600998 0.119995,-3.360001 1.439987,-5.399994c1.319,-2.040009 9.239014,-14.160004 11.76001,-18c2.520004,-3.840012 5.520004,-12 1.440002,-13.920013c-4.080002,-1.919998 -9,1.200012 -13.921005,4.320007c-4.919006,3.119995 -10.199005,10.080002 -12.720001,10.319c6.112,-11.781998 2.279999,-16.800003 -0.359001,-17.520004c-2.640999,-0.720001 -7.199997,0.360001 -14.279999,5.520004c-7.080002,5.160004 -25.559998,24.240005 -30.359001,28.080002c-4.800995,3.839996 -28.560997,18.23999 -40.560997,6.959991s0.959999,-37.19899 4.439999,-43.679993c38.52,-6.119995 58.560001,-29.399002 60.599987,-37.68c2.040001,-8.278999 -4.560997,-11.159004 -8.639999,-10.800003c-36.239998,5.160004 -57.839996,36.599998 -63.479996,45.239998c-9.359001,-0.119995 -34.799992,-6.720993 -28.438992,-31.560997s34.799992,-24.959999 34.799992,-24.959999s-0.120003,-0.359001 0,-1.079002c-24.360003,-4.32 -44.279992,15.479004 -41.040001,35.039009c3.24,19.560989 21.240001,22.919998 33,25.919998c-11.76,33 -2.399,49.319 17.040001,50.519989s35.880005,-12.119995 42.720009,-16.679993c-0.720001,2.039993 -1.440002,14.160004 7.080002,14.160004c8.519997,0 21.239998,-19.080002 23.639999,-22.559998c2.400002,-0.12001 2.879997,-1.080002 5.279999,-2.521011c2.399002,-1.440002 12.358994,-10.199997 14.279007,-11.519989c1.92099,-1.320007 4.92099,-3.12001 6.600998,-2.521011s1.199997,2.160004 -3.720001,8.279999c-4.921005,6.12001 -9.600998,12.720001 -11.641006,17.279007c-2.039993,4.561005 -2.759995,11.039993 3.600998,12.720993c6.359009,1.680008 17.520004,-11.640991 17.520004,-11.640991s-1.199997,10.560989 3.839996,11.279999s9.360001,-2.040009 18.480011,-14.040009c9.118988,-12 16.078995,-20.398987 19.078995,-23.398987s6.960999,-1.561005 3.841003,4.19899c-3.12001,5.761002 -18,32.520996 -18,32.520996c0.705994,0 2.92099,0 9.119995,0c12,-20.639999 21.238998,-33.600998 27.479004,-36.719986c6.23999,-3.12001 3.959991,0.719986 1.800003,4.679993c-7.800003,12.240005 -9.479004,16.559998 -10.560013,19.919998c-1.080002,3.359009 -2.399994,11.880005 5.040009,12.839996c7.438995,0.960007 13.078995,-7.199997 18.599991,-12.599991c2.880005,16.800003 12.240005,11.87999 17.880005,7.800003s22.799988,-28.320007 29.040009,-36.600006c8.759979,-0.240005 6.600006,3 4.679993,6.119003c-1.920013,3.119995 -9.839996,12.23999 -12,15.119995s-8.519989,13.199997 -1.200012,18.720001c7.320007,5.520996 17.761017,-8.520004 24.721008,-16.919998c6.959991,-8.399002 12.359009,-17.880005 17.519989,-19.559998s4.561005,0.839996 3.360016,3.720001s-10.079987,14.399994 -13.799988,19.919998c-3.721008,5.520996 -3.960022,12.839996 0.839996,14.759995c4.799988,1.921005 13.559998,-2.880005 13.559998,-2.880005s-0.240021,0.840012 -4.559998,7.440002c-39.839996,22.199005 -39.960022,36.840012 -39.960022,36.840012s-2.159973,12.479004 11.76001,7.319c22.438995,-10.680008 34.080017,-37.199005 38.640015,-45.720001c12.839996,-9.600006 29.399994,-23.159012 29.399994,-23.159012s-0.003998,-0.354996 -1.084015,-1.194992zm-261.838989,-70.199005c3.119995,-1.079994 9.839996,-2.879997 12,0.359001c2.158997,3.240005 -0.240005,8.400002 -1.801003,10.920006c-1.559998,2.520996 -23.278999,26.279999 -53.159,28.679993c0,0 15.240002,-27.719994 42.960003,-39.959zm31.799995,65.279007c-2.279999,-1.080002 -4.439995,-2.639999 -5.759995,-1.320007c-1.32,1.320007 -0.480003,4.561005 2.398994,6c-3.239998,6.240005 -11.639999,19.440002 -18.839996,19.199997c0,0 -3.959999,-0.600998 -2.040001,-4.799988c1.919998,-4.200012 11.279999,-21.720001 22.800003,-33.360001c1.439995,-1.200012 4.919998,-3.238998 5.879997,1.799988c0.960007,5.040009 -3.359001,10.921005 -4.439003,12.480011zm157.678001,73.559998c-9.359009,-0.721008 0.601013,-14.520996 0.601013,-14.520996s12.119995,-14.520004 30.720001,-23.279007c0,0 -19.328003,38.718002 -31.321014,37.800003z" id="svg_19"/>
    <path fill="#cccccc" d="m463.063995,133.703003c-15.734009,7.770004 -24.600006,22.919998 -34.559998,38.158997c-3.479004,2.279999 -9.960022,5.761002 -13.080017,7.561005s-3.720001,0.720001 -4.319,0.360001c6.359009,-11.641006 6.720001,-16.919998 2.76001,-18.840012s-9.959991,1.439011 -16.799988,5.520004s-26.880005,27.600006 -29.521027,30.119995c-2.639984,2.520004 -9.599976,8.399002 -9.599976,8.399002l0.959991,1.440002c6.601013,-4.800995 16.920013,-14.039993 16.920013,-14.039993s-1.440002,12.959991 6.23999,14.87999c10.559998,2.520004 22.919983,-17.039993 27.238983,-23.639999c2.160004,0.960007 7.440002,-1.799988 15.601013,-6.360001c-4.561005,8.280014 -12.601013,25.560013 -18.839996,38.88002c-6.23999,13.319 -9,20.87999 -9.23999,30c-0.240021,9.119003 11.039978,14.999008 22.679993,-3.480011s13.561005,-39.599991 14.279999,-44.040009c13.799988,-3.959991 17.398987,-13.438995 17.398987,-13.438995s-0.720001,0 -1.919983,0.119995c-5.040009,6.359009 -12.479004,9.12001 -14.880005,9.479004c-0.119995,-2.759995 0.10498,-4.473999 -2.880005,-7.919998c-0.660004,-0.761002 -1.459015,-1.688004 -1.459015,-1.688004s1.473999,-4.188004 3.619019,-8.272003c3.720001,-7.078995 3.720001,-4.319 18.23999,-15.238998c14.52002,-10.919998 17.640015,-24.360001 17.640015,-24.360001s3.002014,-8.279999 -6.479004,-3.599991zm-54.598999,44.399002c-2.398987,-1.439011 -4.199005,-2.519989 -5.880005,-0.600006c-1.679993,1.920013 1.080017,4.439011 3.360016,5.639999c-3.119995,5.160004 -14.040009,23.76001 -22.080017,20.280014c0,0 -2.639984,-0.600998 -1.199982,-4.561005c1.440002,-3.959991 10.561005,-27 24.839996,-34.919998c2.040009,-1.078003 11.279999,-4.198013 0.959991,14.160995zm5.640015,67.080002c-9.480011,10.800003 -10.440002,4.800003 -10.320007,2.880005s0.600006,-7.440002 5.76001,-19.800003c5.160004,-12.360001 10.919983,-24.600998 13.561005,-30l7.078979,0.960007c0,-0.000015 -2.399994,27.11998 -16.079987,45.959991zm16.919983,-49.800003c-2.881012,0.119995 -5.279999,-0.480011 -6,-0.839996l2.880005,-5.641006c0,0.000992 3.600006,2.281006 3.119995,6.481003zm35.160004,-56.880005c-1.559998,3.960007 -10.438995,20.759995 -26.158997,27.119995c0,0 8.519989,-18.959991 22.799988,-28.319992c1.799011,-1.199005 4.919006,-2.759995 3.359009,1.199997z" id="svg_20"/>
    <path fill="#cccccc" d="m538.903992,148.822998c0.119995,-2.880005 8.640015,-11.279999 10.801025,-13.800003c2.158997,-2.520996 6.118958,-10.079994 0.958984,-11.279999c-9.119019,-0.959999 -14.158997,21.12001 -14.158997,21.12001l-19.080017,20.158997c0,0 -7.561005,-11.158997 -23.520996,-9.238998c-22.015991,2.646988 -30.359009,17.039993 -32.158997,31.799988c-1.800995,14.76001 11.278992,25.560013 11.278992,25.560013l-14.040009,16.319l3.120026,0.23999l13.199982,-15.119995c0,0 15.600006,10.319992 36.720001,0.360001c23.76001,-11.279999 26.039978,-34.080002 26.76001,-43.080002c0.721008,-8.998993 0,-20.158997 0.119995,-23.039001zm10.080017,-21.480995c4.200012,1.079994 -5.880005,11.881004 -8.52002,13.919991c0.001038,0 4.320007,-14.999992 8.52002,-13.919991zm-73.920013,83.519997c0,0 -17.998993,-12.479004 -6.119995,-35.639999c11.881012,-23.160004 43.800018,-17.880005 46.439972,-7.919998c-11.878967,11.880005 -38.399963,41.639999 -40.319977,43.559998zm50.401031,-22.078995c-6.601013,13.07901 -19.681,36.599991 -48.119995,23.638992c0,0 28.200012,-32.998993 39.479004,-42.958984c0.721008,2.279999 2.279968,5.880005 -1.799988,14.520004c-0.479004,1.560989 0.600952,3.719986 2.279968,1.199997s4.679993,-8.040009 1.799988,-17.76001c11.400024,-12.478989 13.561035,-14.639999 16.080017,-17.398987c-1.200012,11.277985 -2.834045,25.103989 -9.718994,38.758987z" id="svg_21"/>
    <path fill="#cccccc" d="m748.903015,203.302002c-3.359009,1.319 -3.840027,-0.240005 -3.599976,-1.561005c0.23999,-1.319 10.199951,-15.959991 11.880005,-18.599991s6.839966,-12.12001 4.679993,-17.280014c-3.600037,-8.158997 -19.319031,6.12001 -23.52002,9.841003c3.960022,-18.119995 -8.160034,-11.640991 -13.679993,-5.279999c-5.520996,6.360001 -23.400024,25.438995 -23.400024,25.438995s-8.76001,9.840012 -12.599976,8.280014c-6.600037,-2.521011 0.23999,-14.639999 2.159973,-18.360001c14.880005,-3.720001 24.479004,-11.880005 23.880005,-18.359009c-0.601013,-6.479004 -9.23999,-3.720001 -12.47998,-2.039993c-19.199036,11.160004 -22.080017,23.759995 -23.76001,30.599991c-1.679993,2.521011 -6.479004,7.561005 -10.559998,7.440002s-3,-5.761002 -1.561035,-8.640991c1.440002,-2.880005 34.800049,-64.919006 34.800049,-64.919006l-8.040039,0c0,0 -15.238953,27.479004 -20.278992,35.880005c-0.119995,-1.080002 -1.680969,-3.360001 -4.320007,-3.360001c-11.399963,0.599991 -18.719971,9.478989 -25.679993,18c-6.959961,8.519989 -10.200012,12 -12.47998,14.399002c-2.278992,2.399994 -12.119019,12.360001 -16.799988,8.761002c-4.679993,-3.601013 3.47998,-17.400009 3.47998,-17.400009s8.039978,-1.559998 16.559998,-7.319c9.960022,-6.841003 8.640015,-16.080002 2.159973,-15.600998c-14.879944,2.639999 -20.639954,12.720001 -25.919983,19.679993c-4.440002,-1.559998 -6.719971,-3.358994 -8.399963,-4.679993c0.720947,-1.438995 9.720947,-19.800003 3.119995,-18.479004c-6.600037,1.319 -7.679993,13.439011 -7.920044,20.158997c-7.994995,17.723007 -15.599976,22.561005 -19.198975,24.480011c-3.601013,1.919998 -5.159973,-0.480011 -4.921021,-2.160004c2.040039,-9.720001 18.120056,-37.199997 18.120056,-37.199997c-1.378052,0 -3.921997,0 -8.399048,0c-15,30.360001 -27.23999,38.87999 -28.919983,39.720001c-1.121033,0.556 -5.520996,1.319992 -3.359985,-3.720001s12.359985,-20.76001 14.399963,-26.040009c0.359009,-0.839996 4.679993,-12.839996 -6,-10.438995c-10.680969,2.399002 -17.879944,16.319 -17.879944,16.319l1.799988,0.240005c6.959961,-9.359009 9.119995,-10.319 12.839966,-12.600006s4.679993,-0.839996 4.679993,1.559998c0,2.400009 -7.679993,12.360001 -11.880005,18.839996c-4.198975,6.480011 -5.159973,17.641006 1.680054,18.360001c6.841003,0.720001 11.880981,-6.23999 17.039978,-10.560989c0.47998,5.880997 4.200012,14.039993 13.080017,9.119995s17.399963,-20.759995 20.279968,-25.438995c2.160034,1.319992 3.23999,2.519989 8.278992,5.039993c-6.238953,10.919998 -3.719971,20.76001 4.921021,21.479004c8.640015,0.720001 18.359009,-9.600006 22.799988,-13.559998c-0.119995,0.959991 0.239014,13.919998 7.439026,13.919998s11.039978,-6.839996 15.719971,-11.641006c1.440002,18.721008 16.320007,9 19.801025,4.681c8.76001,18.359009 27.719971,-6.360001 31.799988,-10.560989c4.080017,-4.199005 14.278992,-15.959 16.559998,-18.119003s4.320007,-4.320007 6.720032,-3.600998c2.399963,0.720993 -0.840027,6.119995 -4.800049,12.23999s-16.200012,25.800003 -16.200012,25.800003s5.160034,0 9.360046,0c2.159973,-3.360001 14.279968,-21.358994 21,-29.759995c10.559998,-10.680008 12.719971,-9.360001 13.679993,-8.76001c0.959961,0.600006 0.47998,3.479004 -3.840027,8.639999s-10.919983,14.640015 -12.47998,17.640015c-1.559998,3 -3.119019,13.439987 3.960022,13.560989c7.079956,0.119003 14.399963,-12 14.399963,-12s-0.719971,-0.360001 -1.679993,-0.600998c-0.601013,1.082001 -5.160034,7.201996 -8.520996,8.522003zm-40.920044,-35.279999c2.039978,-0.960007 4.921021,-2.160004 3.601013,1.440002c-1.320007,3.599991 -7.080017,10.919998 -19.080017,12.959991c0.000061,0 4.439026,-8.638992 15.479004,-14.399994zm-80.998962,4.800995c6.119995,-4.440002 9.479004,-6.240005 11.039978,-5.160004c1.559998,1.080002 -4.320007,12.238998 -19.440002,14.880005c0,-0.000992 2.280029,-5.281006 8.400024,-9.720001zm35.279968,12.719009c-5.159973,7.559998 -14.039978,19.559998 -18.719971,18.359009c0,0 -3,-1.319 -1.440002,-5.880005c1.560974,-4.559998 10.319946,-21.600006 21.720947,-30.600006c2.160034,-1.440002 6,-3.479996 5.399048,1.919998c-0.599976,5.401993 -1.799988,8.640991 -6.960022,16.201004z" id="svg_22"/>
   </g>
  </g>
 </g>
</svg>