<?xml version="1.0"?>
<svg width="302" height="204.27155" xmlns="http://www.w3.org/2000/svg" xmlns:svg="http://www.w3.org/2000/svg">
 <g>
  <title>Layer 1</title>
  <g id="svg_1">
   <g id="svg_2" transform="matrix(21.955 0 0 -21.955 -2043.1 10481)">
    <g id="svg_3" clip-path="url(#d)">
     <g id="svg_4">
      <path fill="#cccccc" id="svg_5" d="m105.720001,468.109985c-0.639,0 -1.017998,0.326996 -1.046997,0.798004l0.611,0c0,-0.157013 0.086998,-0.365997 0.464996,-0.378998c0.262001,0 0.406998,0.156982 0.406998,0.274994c-0.028999,0.183014 -0.261993,0.196014 -0.493996,0.235992c-0.262001,0.037994 -0.465004,0.091003 -0.611,0.156006c-0.203003,0.105011 -0.32,0.328003 -0.32,0.562988c0,0.419006 0.349998,0.746002 0.959999,0.746002c0.582001,0 0.959999,-0.300995 0.987999,-0.759003l-0.581001,0c0,0.117004 -0.028999,0.314026 -0.377998,0.314026c-0.233002,0 -0.377998,-0.039001 -0.406998,-0.209015c0,-0.235992 0.493996,-0.222992 0.871994,-0.313995c0.349007,-0.09201 0.582001,-0.313995 0.582001,-0.628998c0,-0.576019 -0.464996,-0.798004 -1.046997,-0.798004"/>
     </g>
    </g>
   </g>
   <g id="svg_6" transform="matrix(21.955 0 0 -21.955 33.537 118.8)">
    <path fill="#cccccc" id="svg_7" d="m0,0l2.006,1.165l1.076,-1.846l-2.704,0"/>
   </g>
   <g id="svg_8" transform="matrix(21.955 0 0 -21.955 126.15 202.12)">
    <path fill="#cccccc" id="svg_9" stroke-width="0.587" stroke="#ffffff" d="m0,0l0,2.33"/>
   </g>
   <g id="svg_10" transform="matrix(21.955 0 0 -21.955 -2043.1 10481)">
    <g id="svg_11" clip-path="url(#c)">
     <g id="svg_12">
      <path fill="#cccccc" id="svg_13" d="m93.654999,469.309998c0,-0.365997 0.32,-0.666992 0.667999,-0.666992c0.378998,0 0.668999,0.300995 0.668999,0.666992c0,0.352997 -0.290001,0.666992 -0.668999,0.666992c-0.348,0 -0.667999,-0.313995 -0.667999,-0.666992m0.639,-1.20401c-0.639,0 -1.191002,0.537018 -1.191002,1.20401s0.552002,1.19101 1.191002,1.19101c0.262001,0 0.495003,-0.06601 0.697998,-0.209015l0,0.183014l0.582001,0l0,-2.31601l-0.582001,0l0,0.144012c-0.173996,-0.131012 -0.435997,-0.197021 -0.697998,-0.197021"/>
     </g>
    </g>
   </g>
   <g id="svg_14" transform="matrix(21.955 0 0 -21.955 197.59 133.74)">
    <path fill="#cccccc" id="svg_15" d="m0,0l-2.791,4.868l2.006,1.178l3.489,-6.046"/>
   </g>
   <g id="svg_16" transform="matrix(21.955 0 0 -21.955 -2043.1 10481)">
    <g id="svg_17" clip-path="url(#b)">
     <g id="svg_18">
      <path fill="#cccccc" id="svg_19" d="m96.330002,469.309998c0,-0.365997 0.291,-0.666992 0.668999,-0.666992c0.348,0 0.668999,0.300995 0.668999,0.666992c0,0.352997 -0.320999,0.666992 -0.668999,0.666992c-0.377998,0 -0.668999,-0.313995 -0.668999,-0.666992m0.639999,-1.20401c-0.668999,0 -1.192001,0.537018 -1.192001,1.20401s0.523003,1.19101 1.192001,1.19101c0.261002,0 0.494003,-0.06601 0.697998,-0.209015l0,0.981018l0.581001,0l0,-3.114014l-0.581001,0l0,0.144012c-0.203995,-0.131012 -0.436996,-0.197021 -0.697998,-0.197021"/>
     </g>
    </g>
   </g>
   <g id="svg_20" transform="matrix(21.955 0 0 -21.955 85.247 73.119)">
    <path fill="#cccccc" id="svg_21" d="m0,0l2.035,1.151l2.239,-3.912l-2.123,0l0,-0.576l-0.581,0l0,0.576"/>
   </g>
   <g id="svg_22" transform="matrix(21.955 0 0 -21.955 -2043.1 10481)">
    <g id="svg_23" clip-path="url(#a)">
     <g id="svg_24">
      <path fill="#cccccc" id="svg_25" d="m106.389999,470.700012c-0.146004,0 -0.291,0.131012 -0.291,0.287994s0.144997,0.287994 0.291,0.287994c0.174004,0 0.291,-0.130981 0.291,-0.287994s-0.116997,-0.287994 -0.291,-0.287994m0,0.536011c-0.146004,0 -0.233002,-0.117004 -0.233002,-0.248016s0.086998,-0.248993 0.233002,-0.248993c0.144997,0 0.232002,0.118011 0.232002,0.248993s-0.087006,0.248016 -0.232002,0.248016"/>
     </g>
     <g id="svg_26">
      <path fill="#cccccc" id="svg_27" d="m106.449997,470.829987l-0.057999,0.131012l-0.057999,0l0,-0.131012l-0.044006,0l0,0.313995l0.131004,0c0.028999,0 0.086998,-0.040009 0.086998,-0.09201s-0.028999,-0.077972 -0.057999,-0.090973l0.057999,-0.131012m-0.115997,0.273987l-0.057999,0l0,-0.103973l0.057999,0c0.057999,0 0.057999,0.013 0.057999,0.051971c0,0.027008 0,0.052002 -0.057999,0.052002"/>
     </g>
     <g id="svg_28">
      <path fill="#cccccc" id="svg_29" d="m102.550003,469.309998c0,-0.365997 0.291,-0.666992 0.668999,-0.666992c0.348999,0 0.667999,0.300995 0.667999,0.666992c0,0.352997 -0.319,0.666992 -0.667999,0.666992c-0.377998,0 -0.668999,-0.313995 -0.668999,-0.666992m0.639,-1.20401c-0.667999,0 -1.191002,0.537018 -1.191002,1.20401s0.523003,1.19101 1.191002,1.19101c0.262001,0 0.495003,-0.06601 0.697998,-0.209015l0,0.183014l0.553001,0l0,-2.31601l-0.553001,0l0,0.144012c-0.202995,-0.131012 -0.435997,-0.197021 -0.697998,-0.197021"/>
     </g>
     <g id="svg_30">
      <path fill="#cccccc" id="svg_31" d="m99.876999,469.309998c0,-0.365997 0.32,-0.666992 0.668999,-0.666992c0.377998,0 0.668999,0.300995 0.668999,0.666992c0,0.352997 -0.291,0.666992 -0.668999,0.666992c-0.348999,0 -0.668999,-0.313995 -0.668999,-0.666992m1.337997,1.963013l0.581001,0l0,-3.114014l-0.581001,0l0,0.144012c-0.174995,-0.131012 -0.407997,-0.197021 -0.668999,-0.197021c-0.668999,0 -1.221001,0.537018 -1.221001,1.20401s0.552002,1.19101 1.221001,1.19101c0.261002,0 0.494003,-0.06601 0.668999,-0.209015l0,0.981018z"/>
     </g>
    </g>
   </g>
  </g>
 </g>
</svg>