<?xml version="1.0"?>
<svg width="1000.012" height="1145.021" xmlns="http://www.w3.org/2000/svg" xmlns:svg="http://www.w3.org/2000/svg">
 <metadata id="metadata25">image/svg+xml</metadata>
 <g>
  <title>Layer 1</title>
  <path fill="#cccccc" d="m931.489685,57.814777l6.950134,0c8.568787,0 15.586853,-2.841602 15.586853,-10.355259c0,-5.65123 -4.144531,-10.882813 -15.027344,-10.882813c-3.40509,0 -5.723145,0 -7.513672,0.247791l0,20.99028l0.004028,0zm0,36.505184l-11.654175,0l0,-64.729362c5.407471,-0.771349 10.85083,-1.826458 19.411621,-1.826458c10.355286,0 16.813782,2.106222 20.954285,5.231583c3.617004,2.841602 5.687256,7.193928 5.687256,13.444653c0,8.285004 -5.439453,13.688446 -12.389587,15.514904l0,0.491585c5.651245,1.055107 9.264221,6.214756 10.567078,15.830639c1.546692,10.107468 2.841614,13.936234 3.896729,16.042458l-11.901978,0c-1.546692,-2.106224 -2.877563,-8.037216 -4.176453,-16.534042c-1.262939,-7.825401 -5.651245,-10.914787 -13.692444,-10.914787l-6.70636,0l0,27.44883l0.004028,0zm10.603027,-82.070724c-25.626343,0 -46.336853,21.481869 -46.336853,48.407139c0,26.925274 20.71051,48.407146 46.580688,48.407146c25.622375,0.279755 46.08905,-21.481873 46.08905,-48.407146c0,-26.92527 -20.466675,-48.407139 -46.08905,-48.407139l-0.243835,0zm0.243835,-9.827704c32.04895,0 57.675354,25.906128 57.675354,57.991042c0,32.61248 -25.626404,58.482643 -57.919189,58.482643c-32.332703,0 -58.482605,-25.870171 -58.482605,-58.482643c0,-32.084913 26.149902,-57.991042 58.482605,-57.991042l0.243835,0z" id="path3"/>
  <g id="g4156">
   <path fill="#cccccc" id="path5" d="m111.377983,1040.481323l-9.723793,-57.599426c-2.773659,-16.60199 -6.318665,-42.548035 -9.020386,-60.520874l-1.055107,0c-2.841599,18.108704 -6.810249,44.790161 -9.723793,60.660767l-10.463165,57.459534l39.986244,0zm-45.209839,37.532349l-12.637329,63.921997l-46.684593,0l58.23484,-265.939514l57.215698,0l52.899345,265.939514l-46.928391,0l-12.357559,-63.921997l-49.742012,0z"/>
   <path fill="#cccccc" id="path7" d="m281.454407,1023.143921c0,-3.544983 0,-7.689514 -0.7034,-11.4823c-1.858429,-13.128906 -8.844543,-24.954956 -20.079041,-24.954956c-19.271744,0 -26.361755,27.764587 -26.361755,60.237183c0,37.3125 10.107468,58.550537 25.694305,58.550537c7.125977,0 15.33905,-3.652832 19.799286,-19.311646c1.087097,-3.12146 1.650604,-7.297852 1.650604,-12.177734l0,-50.861084zm47.915558,-154.205811l0,217.848145c0,17.265381 0.879242,38.507446 1.582672,55.109497l-41.385071,0l-2.701721,-22.15332l-0.983154,0c-6.950165,13.6604 -22.077393,25.274536 -40.158127,25.274536c-39.630539,0 -59.28595,-43.735107 -59.28595,-98.956299c0,-67.287292 29.307266,-100.00769 61.252289,-100.00769c16.709915,0 27.520767,8.181091 32.964188,20.015137l0.807312,0l0,-97.130005l47.907562,0z"/>
   <path fill="#cccccc" id="path9" d="m429.165741,1108.268066c18.288574,0 22.816742,-34.470947 22.816742,-63.010864c0,-27.133118 -4.528168,-62.487244 -23.620087,-62.487244c-20.2229,0 -24.471313,35.354126 -24.471313,62.487244c0,32.752319 5.33548,63.010864 24.851013,63.010864l0.423645,0zm-0.911255,36.75293c-44.158691,0 -71.855316,-35.453979 -71.855316,-98.916504c0,-69.261536 35.557983,-100.047546 72.978394,-100.047546c43.563232,0 70.872162,37.180603 70.872162,98.9245c0,79.333008 -42.787872,100.039551 -71.607544,100.039551l-0.387695,0z"/>
   <path fill="#cccccc" id="path11" d="m574.950684,1073.09375c0,4.807983 0.879272,9.304199 1.898376,12.317627c4.807983,16.118408 12.953064,20.08313 19.479614,20.08313c18.536316,0 26.014038,-23.488281 26.014038,-61.048584c0,-34.191101 -7.901367,-57.739197 -26.225891,-57.739197c-9.088318,0 -16.741882,9.867676 -19.375671,20.466736c-0.915222,3.333191 -1.790466,8.52478 -1.790466,12.105774l0,53.814514zm-47.919556,-204.15564l47.915588,0l0,100.391235l0.771301,0c9.440063,-14.81543 22.00946,-23.276306 40.262024,-23.276306c36.121521,0 54.270203,41.073303 54.270203,94.779968c0,67.858765 -27.065186,104.184082 -62.135559,104.184082c-16.7099,0 -27.836487,-7.40979 -37.876038,-26.181885l-1.011108,0l-2.665771,23.060547l-41.141296,0c0.70343,-15.970581 1.610657,-37.844116 1.610657,-55.109497l0,-217.848145z"/>
   <path fill="#cccccc" id="path13" d="m785.077271,1027.180542c0.247803,-27.061218 -7.689514,-46.025146 -22.888672,-46.025146c-17.34137,0 -24.715149,25.386536 -25.238708,46.025146l48.12738,0zm-48.303223,33.879395c0.563538,34.854614 18.888062,46.197021 41.632874,46.197021c14.423828,0 26.781372,-3.201294 35.909668,-6.634399l6.458557,34.470825c-12.70929,5.471436 -32.332703,8.912598 -51.148865,8.912598c-51.424561,0 -79.50885,-35.142456 -79.50885,-95.163696c0,-64.413635 32.576477,-103.101013 75.120605,-103.101013c41.105286,0 63.886047,34.191162 63.886047,90.004089c0,12.777222 -0.527527,19.975098 -1.37085,25.586426l-90.979187,-0.271851z"/>
  </g>
  <g id="g4151" fill="#ed1c24">
   <polygon id="polygon15" points="522.6468346673792,-0.00041762559521885123 829.1640990088636,-0.00041762559521885123 829.1640990088636,733.8281275301415 " fill="#cccccc"/>
   <polygon id="polygon17" points="306.6931081753537,-0.00041762559521885123 0.000012641825378523208,-0.00041762559521885123 0.000012641825378523208,733.8281275301415 " fill="#cccccc"/>
   <polygon id="polygon19" points="280.6471009059278,586.1847505405385 414.70596703780757,270.39534471568186 609.9811342625399,733.7881832204948 482.03310717797285,733.7881832204948 423.61842678332323,586.1847505405385 " fill="#cccccc"/>
  </g>
 </g>
</svg>