<?xml version="1.0"?>
<svg width="700.00001" height="294.42258" xmlns="http://www.w3.org/2000/svg" xmlns:svg="http://www.w3.org/2000/svg">
 <metadata id="metadata11527">image/svg+xml</metadata>

 <g>
  <title>Layer 1</title>
  <path fill="#cccccc" d="m602.200012,128.600006c-11.700012,2.699997 -42.599976,4.199997 -42.599976,4.199997l-3.800049,12.199997s15.300049,-1.299988 26.5,-0.199997c0,0 3.600037,-0.300003 4,4c0.200012,4.400009 -0.299988,9 -0.299988,9s-0.299988,2.699997 -4,3.400009c-4.299988,0.699997 -33.299988,2 -33.299988,2l-4.700012,15.799988s-1.700012,3.600006 2.200012,2.600006c3.599976,-1 34,-6.800003 38,-6c4.200012,1 9,6.799988 7.599976,12c-1.599976,6.299988 -32,25.699997 -50.399963,24.399994c0,0 -9.700012,0.600006 -17.800049,-12.5c-7.799988,-12.5 2.700012,-36 2.700012,-36s-4.700012,-11 -1.200012,-15c0,0 2,-1.699997 8,-2.199997l7.5,-15.400009s-8.5,0.5 -13.5,-5.699997c-4.599976,-6 -5,-8.599998 -1.399963,-10.199997c3.799988,-2 39,-8.300003 63.200012,-7.5c0,0 8.5,-1 16,13.699997c0,0 3.399963,6 -2.600037,7.400009m-91.299988,59.199997c-3,7.300003 -11.299988,15 -21.299988,10.300003c-10.200012,-4.800003 -26.300018,-37.600006 -26.300018,-37.600006s-6,-12.199997 -7.199982,-11.799988c0,0 -1.300018,-2.400009 -2,11c-1,13.299988 0.199982,39.199997 -5.300018,43.299988c-5,4 -11,2.300003 -14.399994,-2.399994c-2.799988,-4.699997 -4,-16 -2.399994,-35.699997c1.799988,-19.700012 6.299988,-40.700005 12,-47.200005c6,-6.600006 10.799988,-1.800003 12.600006,0c0,0 7.699982,7 20.699982,27.700005l2.200012,3.799988s11.799988,19.700012 13,19.600006c0,0 1,1 1.799988,0.199997c1.200012,-0.300003 0.800018,-6.699997 0.800018,-6.699997s-2.200012,-21.300003 -13.200012,-57.300003c0,0 -1.600006,-4.599998 -0.5,-9c1,-4 5.299988,-2 5.299988,-2s16.600006,8 24.700012,35c8,27 2.599976,51.5 -0.399994,58.800003m-81.5,-69.300003c-1.600006,2.800003 -2.299988,6.699997 -9.200012,7.800003c0,0 -67,4.699997 -70.299988,9.399994c0,0 -2.200012,2.800003 1.399994,3.5c3.799988,0.800003 19,2.800003 26.200012,3.199997c7.799988,0 34,0.200012 43.599976,12c0,0 5.5,5.600006 5.300018,18.300003c-0.200012,13 -2.5,17.600006 -7.600006,22.300003c-5.299988,4.399994 -50.700012,24.800003 -80,-6.400009c0,0 -13.399994,-15 4.700012,-26.399994c0,0 13,-8 46.299988,1.300003c0,0 10,3.599991 9.600006,7.300003c-0.600006,4 -8.300018,8 -19.5,7.800003c-10.800018,-0.300003 -18.800018,-5.5 -17.200012,-4.600006c1.5,0.5 -11.699982,-6.399994 -15.799988,-1.699997c-4,4.399994 -3,7 1,9.699997c10,5.800003 49.299988,3.699997 61,-9.399994c0,0 4.699982,-5.300003 -2.399994,-9.600006c-7,-4 -27.400024,-6.5 -35.300018,-6.800003c-7.5,-0.399994 -35.600006,0 -39.799988,-7.300003c0,0 -4,-5.199997 0.399994,-19.399994c4.600006,-15 37.299988,-20.800003 51.5,-22c0,0 39,-1.599998 46.299988,6.400002c0,0 1,1.799995 -0.199982,4.5m-110.600006,87.999992c-4.700012,3.5 -14.700012,2 -17.600006,-2c-2.799988,-3.5 -3.799988,-17.300003 -3.299988,-39c0.699982,-22.199997 1,-49.400002 6,-53.799995c5,-4.300003 8,-0.5 10,2.399994c2,3 4.600006,6.300003 5,13.200005c0.600006,7 2.299988,43 2.299988,43s2.200012,32.800003 -2.299988,36.199997m9.899994,-116.999992c-13.799988,4.699997 -23.200012,3.199997 -31.200012,-0.300003c-3.5,6.300003 -5.599976,8.200005 -8.199982,8.600006c-4,0.399994 -7.5,-6 -8,-8c-0.800018,-1.5 -2.700012,-4.200005 -0.399994,-10.300003c-7.800018,-7 -8.400024,-16.399998 -7,-22.700001c1.799988,-7.400002 15,-35.200001 55,-38.5c0,0 19.599976,-1.4 23,9l0.599976,0s19,0 18.600006,17c0,17 -21,38.200001 -42.399994,45.500004m17.799988,-48.700005c-12.599976,2 -32,18.799999 -41.299988,32.700005c14.299988,2.599998 39.299988,1.599998 50.5,-21.000004c0,0 5.299988,-14.200001 -9.200012,-11.700001m-55.299988,11c-4,6.5 -4.200012,10.400002 -2.299988,13c4.699982,-7 13,-18 25.5,-26.599998c-9.600006,1 -17.700012,5 -23.200012,13.599998m340.700012,153.699997c-9.200012,22.600006 -17,45.5 -21.5,79.800003c0,0 -1,6.700012 -6.5,4.5c-5.5,-2 -14.5,-11 -16.5,-23.700012c-2,-16.599991 5.400024,-44.599991 20.5,-76.799988c-4.400024,-7 -7.5,-17.400009 -5,-32c0,0 4,-27 31,-51.400002c0,0 3.200012,-2.700005 5,-1.800003c2.200012,1 1.299988,9.599998 -0.5,14c-1.599976,4.199997 -13.599976,24.999992 -13.599976,24.999992s-7.5,14.200012 -5.400024,25.300003c14.200012,-21.800003 46.5,-66 66.5,-52c12.700012,9 12.700012,38 3.200012,54.800003c-7.5,13.300003 -28.700012,40.800003 -57,34.399994m41.599976,-68c-7.399963,8 -20.599976,23.200012 -31,43.800003c11,-1.199997 21.700012,-7.300003 25,-10.399994c5.299988,-4.699997 17.5,-17.400009 15.600037,-34.199997c0,0 -1.200012,-8.800003 -9.600037,0.799988m-448,79.700012c-35.400009,10.800003 -68.800003,5.800003 -87,1c-0.5,7.399994 -1.300003,10.5 -2.5,11.699997c-1.399994,1.600006 -13,8.199997 -19.400002,-1.199997c-2.799995,-4.5 -4.199997,-12.600006 -5,-20c-41,-18.600006 -60,-46 -60.599995,-47c-1,-1 -10.300003,-10.699997 -1,-22.699997c8.699997,-10.800003 37.499996,-21.700005 63.299999,-26.000008c1,-22 3.400002,-39 6.5,-46.5c3.699997,-8.999996 8.399994,-1 12.600006,5c3.399994,4.5 5.5,23.800003 5.699997,39.200005c16.799988,-0.800003 27,0.400002 45.699997,4c24.600006,4.199997 41,16.800003 39.699997,31c-1.199997,14 -14,19.800003 -19,20.199997c-5,0.400009 -13,-3.300003 -13,-3.300003c-5.599991,-2.599991 -0.5,-5 6,-7.799988c7.199997,-3.5 5.600006,-7 5.600006,-7c-2.600006,-8 -34.5,-13.300003 -66.199997,-13.300003c0,17.5 0.699997,46.5 1.199997,63.399994c22.199997,4.200012 38.800003,3.300003 38.800003,3.300003s80.999985,-2.300003 83.300003,-54c2.5,-51.799995 -81,-101.400002 -142.500008,-116.999998c-61.400005,-16.100002 -96.200005,-4.700003 -99.200005,-3.200003c-3.3,1.6 -0.299999,2.199999 -0.299999,2.199999s3.299999,0.500002 9.299999,2.500002c6,2 1.200001,5 1.200001,5c-10.5,3.599998 -22.200001,1.5 -24.500001,-3.299999c-2.3,-4.699999 1.5,-9 6,-15.299999c4.2,-6.499999 9.000001,-6.300001 9.000001,-6.300001c75.999996,-26.5 168.799999,20.999998 168.799999,20.999998c86.800018,43.800003 101.600006,95.300011 100,115.300011c-1.399994,19.699997 -9,53 -62.5,69.199997m-167,-71.600006c-8.599998,4 -2.599998,10.399994 -2.599998,10.399994c16.199997,17.300003 36,28.200012 55,35c2.199997,-30 2,-40.699997 2,-55.799988c-29.400002,2 -46.400002,6.799988 -54.400002,10.399994" id="path11521"/>
 </g>
</svg>