<?xml version="1.0"?>
<svg width="300" height="120.32412" xmlns="http://www.w3.org/2000/svg" xmlns:svg="http://www.w3.org/2000/svg">
 <g>
  <title>Layer 1</title>
  <path fill="#cccccc" d="m38.866402,26.308399c-21.145702,0 -38.766407,8.9711 -38.766407,36.0364c0,21.4417 11.848705,34.944401 39.312503,34.944401c32.326103,0 34.398399,-21.294296 34.398399,-21.294296l-15.663597,0c0,0 -3.358402,11.466194 -19.690399,11.466194c-13.301901,0 -22.869202,-8.985901 -22.869202,-21.580795l59.861198,0l0,-7.903603c0,-12.4603 -7.910095,-31.668301 -36.582497,-31.668301l0,0zm-0.546001,10.101101c12.662098,0 21.2943,7.757 21.2943,19.383202l-43.6805,0c0,-12.342602 11.2672,-19.383202 22.3862,-19.383202l0,0z" id="e"/>
  <path fill="#cccccc" d="m75.437798,0.100073l0,83.597025c0,4.745201 -0.338699,11.408104 -0.338699,11.408104l14.939705,0c0,0 0.536301,-4.7854 0.536301,-9.158699c0,0 7.381096,11.547501 27.450897,11.547501c21.134995,0 35.490997,-14.673103 35.490997,-35.695202c0,-19.556602 -13.186996,-35.285702 -35.457001,-35.285702c-20.853897,0 -27.334099,11.261402 -27.334099,11.261402l0,-37.674428l-15.288101,-0.000001zm40.478203,36.753027c14.352005,0 22.477997,10.651699 22.477997,24.945702c0,15.327702 -12.540001,25.355198 -25.375999,25.355198c-15.317398,0 -22.5802,-11.960197 -22.5802,-25.2187c0,-12.354401 9.414406,-25.082199 25.478203,-25.082199z" id="b"/>
  <path fill="#cccccc" d="m190.645096,26.308378c-31.812149,0 -33.852386,17.418776 -33.852386,20.202234l15.834183,0c0,0 0.830338,-10.169369 16.926193,-10.169369c10.459351,0 18.564224,4.787411 18.564224,13.991413l0,3.276039l-18.564224,0c-24.645325,0 -37.674438,7.209728 -37.674438,21.840256c0,14.398537 12.038498,22.232697 28.307022,22.232697c22.171478,0 29.313705,-12.251022 29.313705,-12.251022c0,4.872787 0.375687,9.674553 0.375687,9.674553l14.076431,0c0,0 -0.546021,-5.951942 -0.546021,-9.759865l0,-32.913944c0,-21.581223 -17.407501,-26.122992 -32.760376,-26.122992zm17.472214,37.128431l0,4.368046c0,5.697136 -3.515533,19.860985 -24.211975,19.860985c-11.333298,0 -16.192505,-5.656158 -16.192505,-12.216896c0,-11.935268 16.363785,-12.012138 40.40448,-12.012138l0,0.000004z" id="a"/>
  <path fill="#cccccc" d="m214.879013,29.041161l17.813461,0l25.564789,51.217346l25.506287,-51.217346l16.136444,0l-46.459274,91.183029l-16.926208,0l13.406418,-25.41851l-35.041916,-65.764519z" id="y"/>
 </g>
</svg>