<?xml version="1.0"?>
<svg width="731" height="80" xmlns="http://www.w3.org/2000/svg" xmlns:svg="http://www.w3.org/2000/svg">

 <g>
  <title>Layer 1</title>
  <g id="g6">
   <g id="g8">
    <g id="g10">
     <path fill="#cccccc" fill-rule="evenodd" id="path12" d="m71.835999,0l-11.098999,56.009998l-13.656998,0l10.876999,-56.009998l13.878998,0l0,0zm-20.798,0l-2.790997,13.84l-35.925001,0l2.815,-13.84l35.900998,0l0,0zm41.551998,0l-15.145996,76.985001l-77.444,0l2.788,-13.838001l63.937998,0l12.424004,-63.146999l13.439995,0l0,0zm-45.629997,21.194l-2.791,13.84l-35.918999,0l2.673,-13.84l36.036999,0l0,0zm-4.063999,20.975998l-2.792999,13.84l-35.918001,0l2.671,-13.84l36.04,0l0,0z"/>
    </g>
   </g>
   <path fill="#cccccc" fill-rule="evenodd" id="path14" d="m527.645996,62.473c-4.867981,7.753998 -10.854004,11.625999 -17.963989,11.625999c-9.355011,0 -14.028015,-5.190002 -14.028015,-15.572998c0,-7.674 2.15802,-15.070999 6.489014,-22.202999c5.023987,-8.057001 11.127991,-12.087002 18.315002,-12.087002c4.408997,0 7.846985,1.707001 10.322021,5.112c2.235962,3.103001 3.363953,6.938 3.363953,11.511002c0.002014,7.592999 -2.165955,14.799999 -6.497986,21.613998l0,0zm183.233032,-43.642c-10.850037,0 -20.098022,3.459002 -27.764038,10.376001c-8.057007,7.147999 -12.080017,16.084 -12.080017,26.801998c0,7.225002 2.939026,12.938999 8.809021,17.129002c5.18103,3.729996 11.474976,5.596001 18.892029,5.596001c6.332947,0 13.949951,-1.436005 22.836975,-4.306999l4.565002,-22.378002c-1.937988,0.285999 -3.828003,0.427002 -5.684021,0.427002c-2.245972,0 -4.369995,-0.231003 -6.381958,-0.695004l-3.677002,18.950005c-1.313049,1.781998 -5.18103,2.670998 -11.592041,2.670998c-4.638977,0 -8.192993,-1.586998 -10.664001,-4.765999c-2.31897,-2.869003 -3.47699,-6.701 -3.47699,-11.506001c0,-8.216 2.280029,-15.657001 6.846008,-22.325001c5.033997,-7.356001 11.450012,-11.042 19.268005,-11.042c2.939026,0 5.840027,0.74 8.705994,2.212c3.247009,1.704 5.298035,3.792 6.151978,6.274l1.157043,0l3.716003,-8.052c-4.721008,-3.574001 -11.269043,-5.366001 -19.627991,-5.366001l0,0zm-44.888,1.445002c-0.229004,0 -1.235046,-0.115002 -3.008057,-0.349001l-7.885986,38.365l-28.178955,-38.365l-7.568054,0l-11.367004,57.077997l6.621033,0l8.13501,-40.687996l29.067017,40.687996l6.269958,0l11.166992,-57.077997c-1.703979,0.233999 -2.782959,0.349001 -3.251953,0.349001l0,0zm-60.112,0.698c-1.030029,0 -2.017029,-0.154001 -2.96405,-0.464001l-7.567993,37.081999c-0.937988,4.573002 -3.109985,8.353001 -6.518982,11.336002c-3.413025,2.978996 -7.411987,4.473 -11.987,4.473c-3.809021,0 -6.851013,-1.064003 -9.135986,-3.193001c-2.295044,-2.128998 -3.437988,-5.056999 -3.437988,-8.778999c0,-1.389 0.082947,-2.473 0.248962,-3.252003l7.246033,-37.550999c-0.92804,0.310001 -2.593018,0.464001 -4.994995,0.464001c-3.564026,0 -6.006042,-0.153999 -7.319031,-0.464001l-7.041016,37.549c-0.229004,1.243999 -0.346985,2.727001 -0.346985,4.438c0,5.687004 2.333984,9.93 6.987,12.732002c3.877014,2.255997 8.848022,3.389 14.893005,3.389c6.981995,0 12.979004,-1.846001 17.982971,-5.547005c5.005005,-3.690994 8.203003,-8.886993 9.600037,-15.583996l7.787964,-37.065001c-1.180969,0.289999 -2.328979,0.436001 -3.431946,0.436001l0,0zm-66.079041,3.556999c-4.638977,-3.799 -10.708008,-5.701 -18.203003,-5.701c-10.360992,0 -19.286987,3.455 -26.781982,10.351999c-7.803009,7.214001 -11.709015,15.936001 -11.709015,26.170002c0,7.292 2.397003,13.067997 7.188019,17.336002c4.561005,4.032997 10.546997,6.044998 17.968994,6.044998c10.513,0 19.653015,-3.544998 27.421997,-10.639999c7.763977,-7.095001 11.650024,-15.879002 11.650024,-26.350002c-0.001038,-7.366001 -2.511047,-13.103001 -7.535034,-17.212l0,0zm-42.968994,-23.667c-1.942993,0 -3.574005,-0.283 -4.893005,-0.847c-8.384003,13.083 -16.352997,24.614001 -23.886993,34.582998c-3.247009,-10.824999 -6.645996,-22.365998 -10.199982,-34.599998c-2.632019,0.728 -5.498016,1.094 -8.58902,1.094c-3.40799,0 -7.118988,-0.359 -11.138,-1.077l15.596008,43.982001l-6.401001,33.004997l16.743011,0l6.440002,-34.398998c17.333984,-23.227999 28.013,-37.427 32.040985,-42.588c-2.098999,0.564 -4.002991,0.847 -5.712006,0.847l0,0zm-75.546997,42.199999c-4.804993,6.973 -9.229004,12.355999 -13.256989,16.155003l-10.576019,-16.507c9.520996,-5.5 14.292023,-10.808002 14.292023,-15.923002c0,-6.278999 -4.404022,-9.418999 -13.213013,-9.418999c-4.868011,0 -8.964996,1.435999 -12.285004,4.299c-3.47699,3.102999 -5.209991,7.056 -5.209991,11.859999c0,3.639999 1.171997,7.559002 3.510986,11.737999c-13.007996,5.970001 -19.516998,12.637001 -19.516998,19.998001c0,3.955002 1.445007,7.090004 4.330994,9.414001c2.656006,2.089996 6.050018,3.135002 10.186005,3.135002c6.201019,0 12.944,-2.324005 20.234009,-6.973l3.252014,6.161995l16.767975,0l-9.496979,-14.151997c7.466003,-7.295002 12.367981,-12.301003 14.701996,-15.018002l-3.721008,-4.769001l0,0zm-106.368988,-23.254c0.153992,2.480001 -0.270996,4.731001 -1.279022,6.748001c4.729004,-0.469 9.883026,-0.781 15.46402,-0.935001l-9.882996,51.381998l12.108978,0l10.095001,-51.359997c6.846008,0.229 11.729004,0.608 14.653015,1.143c-0.229004,-2.792999 0.190002,-5.117001 1.269989,-6.978001l-42.428986,0l0,0zm-11.871002,0.083c-2.567993,-0.708 -4.822021,-1.062 -6.765015,-1.062c-5.980988,0 -11.225983,1.917 -15.734985,5.74c-4.662994,4.067001 -6.994995,9.067001 -6.994995,15.005001c0,4.187 1.708984,7.714001 5.121979,10.582001c3.181,2.014 6.360016,4.024998 9.541016,6.038998c3.488983,2.174 5.234009,4.537003 5.234009,7.093002c0,2.944 -1.160004,5.404999 -3.47702,7.388c-2.319,1.973 -4.983002,2.959 -8,2.959c-6.953003,0 -10.35199,-3.066002 -10.197998,-9.188004l-1.161987,0l-4.399017,10.540001c2.397003,2.495003 6.812012,3.745003 13.237,3.745003c6.580017,0 12.270996,-1.903999 17.068024,-5.703003c5.260986,-4.120995 7.895996,-9.398998 7.895996,-15.848c0,-4.364998 -1.746002,-7.994999 -5.237,-10.882999c-3.259003,-2.028999 -6.482025,-4.057999 -9.663025,-6.084c-3.495972,-2.182999 -5.238983,-4.640999 -5.238983,-7.373001c0,-2.677998 1.085999,-4.862999 3.266998,-6.547998c2.173004,-1.684999 4.65799,-2.532 7.460999,-2.532c2.096985,0 4.019012,0.678999 5.766998,2.035999c1.75,1.357 2.622009,3.083 2.622009,5.171l1.166992,0l4.196991,-7.896c-0.542999,-1.257999 -2.446991,-2.316999 -5.708984,-3.181l0,0zm-37.347992,0.617001c-1.069,0 -2.100006,-0.117001 -3.093018,-0.349001l-7.882996,38.486l-28.540009,-38.789l-7.167999,0.068001l-11.511993,57.077997l6.621002,0l7.765991,-40.724998l29.182007,40.724998l6.510986,0l11.206024,-56.862997c-0.920013,0.247 -1.950012,0.368999 -3.089996,0.368999l0,0zm-74.390015,-0.233999l-22.212006,0l-11.229996,56.728996l12.563004,0l5.110001,-25.951996l1.039993,0l10.112,25.951996l14.624008,0l-12.460999,-27.807999c5.453995,-2.016998 9.26799,-4.025997 11.455002,-6.039997c3.266998,-2.866001 4.904999,-6.699001 4.904999,-11.499001c0,-7.588001 -4.636002,-11.382 -13.906006,-11.382l0,0zm-69.568001,-20.259001l-15.139,76.986998l42.893005,0c-0.693008,-3.446999 -0.234009,-6.474998 1.395996,-9.082001c-11.802002,0.781006 -19.328995,1.177002 -22.587997,1.177002l-3.374001,-0.122002l5.719994,-29.079998c10.667007,0 19.080002,0.473999 25.227005,1.423c-0.072998,-4.255001 0.585999,-7.426998 1.990005,-9.517c-10,0.608 -16.045013,0.911001 -18.13501,0.911001c-2.248993,0 -4.690002,-0.077999 -7.32399,-0.234001l4.259995,-24.332999l6.337997,0.039c6.106003,0 12.600006,0.52 19.490005,1.56c0,-3.75 0.625,-6.992 1.87999,-9.729l-42.633995,0l0,0zm273.881996,39.773001c-2.22699,-4.104 -3.339996,-7.471001 -3.339996,-10.103001c0,-2.243999 0.674011,-4.143 2.026001,-5.693001c1.356995,-1.545 3.119995,-2.323999 5.287994,-2.323999c1.317993,0 2.515015,0.525 3.598999,1.566999c1.084015,1.050001 1.631012,2.229 1.631012,3.542c0,4.803001 -3.071014,9.139 -9.20401,13.011002l0,0zm-8.085999,31.779999c-6.958008,0 -10.444,-3.481003 -10.444,-10.452c0,-2.214001 0.957001,-4.594002 2.865997,-7.147999c1.914001,-2.556 3.959991,-4.135002 6.143005,-4.746002l11.70401,18.992004c-3.925995,2.236 -7.343994,3.353996 -10.269012,3.353996l0,0zm-198.229996,-28.383999c-2.339005,3.084 -5.723007,4.620998 -10.158997,4.620998l-2.568008,0l4.233002,-22.101999l5.291,0.034c4.233002,0 6.352997,2.160999 6.352997,6.471998c0,4.469002 -1.049988,8.126003 -3.149994,10.975002l0,0z"/>
  </g>
 </g>
</svg>