<?xml version="1.0"?>
<svg width="433.701" height="433.701" xmlns="http://www.w3.org/2000/svg" xmlns:svg="http://www.w3.org/2000/svg">
 <g>
  <title>Layer 1</title>
  <path fill="#cccccc" d="m216.850006,432.851013c-2.147003,0 -4.285004,-0.039001 -6.418991,-0.101013l44.14299,-121.317993l60.75,0c10.662994,0 22.368011,-8.196991 26.015015,-18.212006l47.891998,-131.54599c7.834991,-21.537003 -4.501007,-39.156998 -27.417999,-39.156998l-84.279022,0l-70.714981,194.315994l-0.026001,0l-40.089005,110.152985c-95.110008,-22.610992 -165.854004,-108.108002 -165.854004,-210.134995c0,-99.085999 66.721001,-182.580002 157.682999,-208.026993l-41.365005,113.693001l-0.012001,0l-68.766998,188.915001l45.778,0.003998l58.480995,-160.531006l34.404007,0l-58.481003,160.531006l45.761002,0.007996l54.498001,-149.770004c7.839996,-21.537003 -4.497009,-39.157005 -27.393005,-39.157005l-38.481003,0l44.186005,-121.439994c3.221008,-0.143 6.453995,-0.227 9.708008,-0.227c119.294006,0 216,96.706003 216,216.001001c0,119.292007 -96.705994,216.000015 -216,216.000015zm130.691986,-282.061035l-34.394989,0l-48.167023,132.15802l34.395996,0l48.166016,-132.15802z" id="svg_1"/>
 </g>
</svg>