<?xml version="1.0"?>
<svg width="1000" height="400" xmlns="http://www.w3.org/2000/svg" xmlns:svg="http://www.w3.org/2000/svg">
 <g>
  <title>Layer 1</title>
  <path d="m0,0l0,27.367001l194.648438,0l0,-27.367001l-194.648438,0zm222.226563,0l0,27.367001l277.382813,0c0,0 -28.33313,-27.367001 -65.859375,-27.367001l-211.523438,0zm331.796875,0l0,27.367001l167.8125,0l-9.960938,-27.367001l-157.851563,0zm288.125,0l-9.960938,27.367001l166.289063,0l0,-27.367001l-156.328125,0zm-842.148438,53.22221l0,27.366993l194.648438,0l0,-27.366993l-194.648438,0zm222.226563,0.038765l0,27.328228l309.570313,0c0,0.000008 -3.615601,-21.062817 -9.921875,-27.328228l-299.648438,0zm331.796875,0l0,27.328228l186.210938,0l-9.21875,-27.328228l-176.992188,0zm268.203125,0l-9.21875,27.328228l185.46875,0l0,-27.328228l-176.25,0zm-766.289063,53.183445l0,27.405754l84.29689,0l0,-27.405754l-84.29689,0zm222.226563,0l0,27.405754l84.296875,0l0,-27.405754l-84.296875,0zm166.289063,0l0,27.405754l84.296875,0c0,0 5.351563,-14.473022 5.351563,-27.405754l-89.648438,0zm165.507813,0l0,27.405754l149.453125,0l-9.960938,-27.405754l-139.492188,0zm193.90625,0l-10,27.405754l150.195313,0l0,-27.405754l-140.195313,0zm-747.929688,53.260979l0,27.366974l84.29689,0l0,-27.366974l-84.29689,0zm222.226563,0l0,27.366974l215.3125,0c0.000031,0 18.011261,-14.042267 23.75,-27.366974l-239.0625,0zm331.796875,0l0,27.366974l84.296875,0l0,-15.234024l5.351563,15.234024l154.414063,0l5.742188,-15.234024l0,15.234024l84.296875,0l0,-27.366974l-158.242188,0l-8.398438,23.180527l-8.4375,-23.180527l-159.023438,0zm-554.023438,53.222214l0,27.366974l84.29689,0l0,-27.366974l-84.29689,0zm222.226563,0l0,27.366974l239.0625,0c-5.73999,-13.281281 -23.75,-27.366974 -23.75,-27.366974l-215.3125,0zm331.796875,0l0,27.366974l84.296875,0l0,-27.366974l-84.296875,0zm99.609375,0l10.195313,27.366974l115.78125,0l9.6875,-27.366974l-135.664063,0zm150.195313,0l0,27.366974l84.296875,0l0,-27.366974l-84.296875,0zm-803.828125,53.222198l0,27.367004l84.29689,0l0,-27.367004l-84.29689,0zm222.226563,0l0,27.367004l84.296875,0l0,-27.367004l-84.296875,0zm166.289063,0l0,27.367004l89.648438,0c0,-12.915344 -5.351563,-27.367004 -5.351563,-27.367004l-84.296875,0zm165.507813,0l0,27.367004l84.296875,0l0,-27.367004l-84.296875,0zm118.75,0l9.882813,27.367004l77.617188,0l9.960938,-27.367004l-97.460938,0zm131.054688,0l0,27.367004l84.296875,0l0,-27.367004l-84.296875,0zm-858.242187,53.222229l0,27.405731l194.648437,0l0,-27.405731l-194.648437,0zm220.70314,0l0,27.405731l299.648422,0c6.306274,-6.27533 9.921875,-27.405731 9.921875,-27.405731l-309.570297,0zm333.320297,0l0,27.405731l138.710938,0l0,-27.405731l-138.710938,0zm192.34375,0l10.15625,27.405731l39.492188,0l9.53125,-27.405731l-59.179688,0zm111.875,0l0,27.405731l140.234375,0l0,-27.405731l-140.234375,0zm-858.242172,53.260956l0,27.367004l194.648437,0l0,-27.367004l-194.648437,0zm220.70314,0l0,27.328247l211.523438,0c37.526245,-0.000031 65.859375,-27.328247 65.859375,-27.328247l-277.382813,0zm333.320343,0l0,27.367004l138.710876,0l0,-27.367004l-138.710876,0zm211.601501,0l9.765625,27.289459l1.679749,0.038788l9.921875,-27.328247l-21.367249,0zm92.617249,0l0,27.367004l140.234375,0l0,-27.367004l-140.234375,0z" fill="#cccccc" id="svg_1"/>
 </g>
</svg>