<?xml version="1.0"?>
<svg width="250" height="168.5546" xmlns="http://www.w3.org/2000/svg" xmlns:svg="http://www.w3.org/2000/svg">
 <metadata id="metadata8">image/svg+xml</metadata>
 <g>
  <title>Layer 1</title>
  <g id="g10" transform="matrix(1.25 0 0 -1.25 -35.4334 1126.34)">
   <g id="g4477" transform="matrix(2.47856 0 0 2.47856 -41.9122 -1132.91)">
    <g id="g4463">
     <g id="g3634" fill="#be322d">
      <g id="g30" fill="#be322d">
       <path id="path32" d="m70.642799,819.43512c-0.646004,-0.041992 -1.295998,-0.067017 -1.952003,-0.067017c-0.973,0 -1.932999,0.051025 -2.881996,0.142029l-8.514999,-13.626038c0.371998,-1.744995 0.986,-3.401978 1.793999,-4.941956l11.555,18.492981z" fill-rule="nonzero" fill="#cccccc"/>
      </g>
      <g id="g38" fill="#be322d">
       <path id="path40" d="m78.379097,811.252014c-0.260002,2.221985 -0.003998,4.458984 0.723999,6.538025l-0.737999,1.168945l-14.793999,-23.675964c1.031998,-0.893982 2.160995,-1.677002 3.370003,-2.335999l11.437996,18.304993z" fill-rule="nonzero" fill="#cccccc"/>
      </g>
     </g>
     <g id="g4440" fill="#025688">
      <g id="g26" fill="#025688">
       <path id="path28" d="m58.994499,811.177002l5.318001,8.510986c-1.451,0.213989 -2.868,0.530029 -4.243999,0.942017l-1.791,-2.845032c0.736,-2.099976 0.989998,-4.362 0.716999,-6.607971" fill-rule="nonzero" fill="#cccccc"/>
      </g>
      <g id="g34" fill="#025688">
       <path id="path36" d="m77.557999,820.240112l-0.247002,0.390015c-1.600998,-0.480042 -3.260002,-0.825989 -4.959999,-1.035034l-12.493999,-19.993958c0.771999,-1.223022 1.676998,-2.355042 2.695999,-3.373047l15.005001,24.012024z" fill-rule="nonzero" fill="#cccccc"/>
      </g>
      <g id="g42" fill="#025688">
       <path id="path44" d="m68.165604,792.333984c0.171997,-0.078003 0.345001,-0.156982 0.519997,-0.22998c5.723,2.39801 10.076004,7.51001 11.406006,13.802002c-0.598999,1.088989 -1.040001,2.221008 -1.340004,3.369995l-10.585999,-16.942017z" fill-rule="nonzero" fill="#cccccc"/>
      </g>
     </g>
    </g>
    <g id="g4448" fill="#025688">
     <g id="g46" fill="#025688">
      <path d="m44.684299,775.025085c0,-1.34198 -1.088001,-2.429993 -2.429001,-2.429993c-1.341999,0 -2.43,1.088013 -2.43,2.429993c0,1.34198 1.088001,2.429016 2.43,2.429016c1.341,0 2.429001,-1.087036 2.429001,-2.429016" id="path48" fill-rule="nonzero" fill="#cccccc"/>
     </g>
     <g id="g50" fill="#025688">
      <path d="m36.630699,776.570496l4.373001,6.987l-4.398003,-0.002991l-4.389996,-7.026001l0,7.028992l-3.869003,0l0,-17.064026l3.869003,0l0,2.969055l2.223,3.578979l4.094997,-6.548035l4.389999,0.003052l-6.292999,10.073975z" id="path52" fill-rule="nonzero" fill="#cccccc"/>
     </g>
     <g id="g54" fill="#025688">
      <path d="m71.489304,775.287598c-0.054001,-0.297974 -0.117996,-0.679016 -0.179001,-1.075989c-0.085999,0.398987 -0.171997,0.786011 -0.243996,1.09198l-2.011002,8.260986l-3.318001,0l-1.987003,-8.263c-0.073997,-0.311951 -0.160004,-0.69696 -0.245003,-1.092957c-0.059998,0.385986 -0.121998,0.764954 -0.177998,1.078003l-1.480999,8.277954l-4.021004,0l3.562,-17.078979l3.537003,0l2.129005,8.710022c0.098,0.398987 0.195999,0.854004 0.283997,1.294006c0.088997,-0.434998 0.187004,-0.886047 0.283997,-1.29303l2.081001,-8.710999l3.68,0l3.562004,17.078979l-3.974998,0l-1.480003,-8.276978z" id="path56" fill-rule="nonzero" fill="#cccccc"/>
     </g>
     <path d="m77.885002,766.487l3.861,0l0,17.078979l-3.861,0l0,-17.078979z" id="path58" fill-rule="nonzero" fill="#cccccc"/>
     <g id="g60" fill="#025688">
      <path d="m51.560001,770.017822c-1.936001,-0.051025 -3.384998,0.877014 -4.317001,1.815002l-1.981998,-3.169006c1.403999,-1.539001 3.622002,-2.437012 6.110001,-2.437012c5.889999,0 6.768997,3.472046 6.768997,5.541992c0,4.026001 -3.591999,4.867004 -5.737999,5.369995c-2.724995,0.638 -3.112,0.937012 -3.112,1.710999c0,0.768005 0.757999,1.208008 2.081001,1.208008c0,0 2.348,0.080017 3.919998,-1.539001l1.934002,3.095032c-1.620998,1.484985 -3.502998,2.211975 -5.736,2.211975c-3.638,0 -6.179001,-2.10498 -6.179001,-5.117004c0,-3.646973 2.66,-4.570984 5.386002,-5.204956c3.136997,-0.713013 3.465,-1.14801 3.465,-1.970032c0,-0.75 -0.309002,-1.515991 -2.601002,-1.515991" id="path62" fill-rule="nonzero" fill="#cccccc"/>
     </g>
     <g id="g64" fill="#025688">
      <path d="m89.135597,770.017822c-1.935997,-0.051025 -3.385002,0.877014 -4.318001,1.815002l-1.980995,-3.169006c1.403999,-1.539001 3.621994,-2.437012 6.108994,-2.437012c5.891006,0 6.770004,3.472046 6.770004,5.541992c0,4.026001 -3.592003,4.867004 -5.737999,5.369995c-2.726006,0.638 -3.112999,0.937012 -3.112999,1.710999c0,0.768005 0.757996,1.208008 2.080994,1.208008c0,0 2.348,0.080017 3.921005,-1.539001l1.932999,3.095032c-1.620003,1.484985 -3.501999,2.211975 -5.735001,2.211975c-3.639,0 -6.18,-2.10498 -6.18,-5.117004c0,-3.646973 2.661003,-4.570984 5.387001,-5.204956c3.137001,-0.713013 3.464996,-1.14801 3.464996,-1.970032c0,-0.75 -0.308998,-1.515991 -2.600998,-1.515991" id="path66" fill-rule="nonzero" fill="#cccccc"/>
     </g>
     <g id="g68" fill="#025688">
      <path d="m102.458801,770.017029c-1.936996,-0.051025 -3.385002,0.877991 -4.318001,1.815002l-1.980995,-3.169006c1.403,-1.539001 3.621994,-2.437012 6.108994,-2.437012c5.889999,0 6.770004,3.472046 6.770004,5.54303c0,4.023987 -3.592003,4.865967 -5.737999,5.367981c-2.726006,0.638977 -3.112999,0.939026 -3.112999,1.711975c0,0.768005 0.757996,1.208008 2.080994,1.208008c0,0 2.348007,0.080017 3.920006,-1.537964l1.932999,3.093994c-1.619003,1.484985 -3.500999,2.210999 -5.734001,2.210999c-3.639,0 -6.18,-2.104004 -6.18,-5.116028c0,-3.647949 2.660004,-4.570984 5.386002,-5.204956c3.138,-0.713013 3.464996,-1.14801 3.464996,-1.970032c0,-0.75 -0.308998,-1.515991 -2.599998,-1.515991" id="path70" fill-rule="nonzero" fill="#cccccc"/>
     </g>
    </g>
   </g>
  </g>
 </g>
</svg>