<?xml version="1.0"?>
<svg width="156.37625" height="156.35249" xmlns="http://www.w3.org/2000/svg" xmlns:svg="http://www.w3.org/2000/svg">

 <g>
  <title>Layer 1</title>
  <g id="layer1">
   <path fill="#cccccc" fill-rule="nonzero" id="path11221" d="m-260,-150l0,156.352509l156.376251,-156.352509l-156.376251,0"/>
   <path stroke-opacity="0" fill="#cccccc" fill-rule="nonzero" stroke="#000000" id="path11225" d="m74.625,7.0625l-1.71875,0.09375l-1.65625,0.25l-1.8125,0.25l-1.75,0.40625l-1.875,0.5625l-1.875,0.5625l-1.9375,0.78125l-1.90625,0.6875l-1.90625,0.96875l-1.9375,0.90625l-1.96875,0.9375l-2,1.0625l-1.9375,1.15625l-1.96875,1.1875l-1.96875,1.28125l-1.9375,1.34375l-1.875,1.3125l-1.96875,1.4375l-1.84375,1.40625l-1.84375,1.5625l-1.84375,1.5l-1.75,1.53125l-1.78125,1.65625l-0.09375,0.125l-6.25,-6.25l13.90625,-13.84375l-1.0625,-1.0625l-0.96875,-1.0625l-13.9375,13.90625l-5.125,-5.09375l6.84375,-6.78125l-1,-1.03125l-1.0625,-1.0625l-6.84375,6.8125l-5.875,-5.875l-2.0625,2.03125l5.875,5.90625l-5.8125,5.78125l2.03125,2.09375l5.84375,-5.8125l5.09375,5.125l-12.96875,12.9375l2.03125,2.03125l13,-12.90625l6.25,6.28125l-2.625,2.75l-3.125,3.53125l-2.90625,3.53125l-2.75,3.6875l-2.53125,3.687508l-2.15625,3.6875l-2.03125,3.749977l-1.6875,3.718765l-1.375,3.625l-1.03125,3.53125l-0.53125,3.46875l-0.25,3.25l0.34375,3.156235l0.78125,2.968765l1.375,2.71875l1.96875,2.40625l1.125,1.125l1.3125,0.875l1.28125,0.71875l1.40625,0.656265l1.46875,0.468735l1.53125,0.25l1.53125,0.15625l1.5625,0.125015l1.5625,-0.125015l1.75,-0.15625l1.65625,-0.25l1.78125,-0.374985l1.75,-0.562531l1.78125,-0.531219l1.84375,-0.718765l1.8125,-0.750015l1.875,-0.906235l1.90625,-0.843765l1.84375,-1.062485l1.875,-1.0625l1.875,-1.125015l1.84375,-1.312485l1.96875,-1.218735l1.875,-1.406265l1.90625,-1.40625l1.84375,-1.406265l1.84375,-1.531235l1.875,-1.59375l1.8125,-1.593735l1.8125,-1.656265l1.78125,-1.65625l1.71875,-1.749985l3.65625,-3.781265l3.375,-3.84375l3.125,-3.875008l2.8125,-3.937485l2.53125,-3.781258l2.3125,-3.875l1.84375,-3.75l1.59375,-3.6875l1.28125,-3.59375l0.875,-3.4375l0.5,-3.25l0.15625,-3.125l-0.28125,-2.9375l-0.71875,-2.71875l-1.25,-2.53125l-1.78125,-2.125l-1,-0.9375l-1.3125,-0.84375l-1.25,-0.71875l-1.40625,-0.5l-1.40625,-0.34375l-1.53125,-0.25l-1.625,-0.09375l-1.53125,0zm0,2.96875l1.53125,0l1.34375,0.0625l1.21875,0.21875l1.09375,0.3125l1.125,0.40625l1,0.5l0.875,0.625l0.84375,0.6875l1.25,1.625l0.96875,1.9375l0.5625,2.1875l0.34375,2.46875l-0.1875,2.8125l-0.46875,2.96875l-0.8125,3.25l-1.15625,3.3125l-1.5,3.46875l-1.84375,3.6875l-2.1875,3.59375l-2.46875,3.749992l-2.71875,3.812515l-3,3.781235l-3.3125,3.781258l-3.5,3.656265l-1.78125,1.656235l-1.75,1.65625l-1.71875,1.5625l-1.84375,1.59375l-1.75,1.5625l-1.8125,1.4375l-1.8125,1.40625l-1.84375,1.375l-1.8125,1.343735l-1.8125,1.218765l-1.875,1.21875l-1.78125,1.125015l-1.875,0.96875l-1.78125,1.062485l-1.78125,0.84375l-1.75,0.812485l-1.71875,0.718765l-1.75,0.6875l-1.59375,0.5l-1.65625,0.46875l-1.5625,0.34375l-1.59375,0.281235l-1.4375,0.156281l-2.84375,0l-1.34375,-0.156281l-1.21875,-0.281235l-1.1875,-0.34375l-1,-0.46875l-1.125,-0.624985l-0.96875,-0.687515l-0.9375,-0.78125l-1.46875,-1.9375l-1.125,-2.1875l-0.65625,-2.4375l-0.25,-2.65625l0.15625,-2.96875l0.5625,-3.125l0.90625,-3.281235l1.28125,-3.406265l1.59375,-3.531235l1.90625,-3.562523l2.21875,-3.59375l2.40625,-3.562485l2.65625,-3.531258l2.8125,-3.53125l3,-3.40625l3.125,-3.25l1.59375,-1.59375l1.6875,-1.5l1.78125,-1.53125l1.71875,-1.53125l1.8125,-1.40625l1.8125,-1.4375l1.78125,-1.34375l1.9375,-1.3125l1.9375,-1.34375l1.875,-1.15625l1.875,-1.21875l1.875,-1.0625l1.96875,-1.0625l1.84375,-0.9375l1.90625,-0.90625l1.875,-0.875l1.78125,-0.71875l1.84375,-0.625l1.65625,-0.59375l1.78125,-0.4375l1.65625,-0.40625l1.59375,-0.3125l1.59375,-0.21875l1.40625,-0.0625zm-1.375,3.5625l-0.71875,0.03125l-0.71875,0.15625l-0.6875,0.25l-0.6875,0.34375l-0.6875,0.375l-0.625,0.53125l-0.65625,0.5625l-1.09375,1.28125l-0.71875,1.375l-0.375,1.4375l-0.125,1.40625l0.25,1.5625l0.59375,1.46875l0.875,1.4375l1.25,1.4375l0.65625,0.625l0.78125,0.59375l0.71875,0.46875l0.71875,0.40625l0.75,0.34375l0.75,0.28125l0.75,0.125l0.71875,0.09375l0.75,0l0.75,-0.03125l0.65625,-0.15625l0.71875,-0.25l0.65625,-0.375l0.71875,-0.375l0.59375,-0.46875l0.6875,-0.59375l1.03125,-1.3125l0.71875,-1.375l0.40625,-1.375l0.09375,-1.46875l-0.3125,-1.5l-0.5,-1.4375l-0.90625,-1.4375l-1.25,-1.40625l-0.65625,-0.6875l-0.75,-0.5625l-0.6875,-0.5l-0.75,-0.46875l-0.71875,-0.3125l-0.75,-0.25l-0.75,-0.15625l-0.71875,-0.09375l-0.75,0zm-0.25,4.34375l0.65625,0.03125l0.65625,0.25l0.65625,0.375l0.75,0.59375l0.8125,0.71875l0.625,0.78125l0.625,0.65625l0.40625,0.71875l0.1875,0.6875l0.03125,0.59375l-0.09375,0.5625l-0.25,0.59375l-0.4375,0.5l-0.5625,0.46875l-0.53125,0.28125l-0.625,0.125l-0.59375,-0.0625l-0.6875,-0.25l-0.6875,-0.40625l-0.6875,-0.53125l-0.8125,-0.75l-0.6875,-0.78125l-0.5625,-0.6875l-0.40625,-0.6875l-0.1875,-0.71875l-0.03125,-0.5625l0.09375,-0.59375l0.25,-0.53125l0.4375,-0.5625l0.53125,-0.4375l0.53125,-0.28125l0.59375,-0.09375zm-10.375,5.71875l-1.0625,0.25l-1.125,0.53125l-1.09375,0.6875l-1.0625,0.9375l-1.03125,1.25l-0.71875,1.3125l-0.40625,1.4375l0,1.40625l0.21875,1.46875l0.59375,1.40625l0.875,1.5l1.25,1.4375l0.6875,0.65625l0.75,0.59375l0.75,0.4375l0.71875,0.46875l0.75,0.34375l0.71875,0.25l0.71875,0.15625l0.78125,0.09375l0.71875,0l0.71875,-0.09375l0.71875,-0.15625l0.6875,-0.28125l0.6875,-0.34375l0.65625,-0.4375l0.71875,-0.5l0.625,-0.5625l0.53125,-0.59375l0.4375,-0.53125l0.375,-0.5625l0.28125,-0.5625l0.25,-0.5625l0.21875,-0.625l0.09375,-0.5625l0.03125,-0.65625l-0.03125,-0.90625l-0.25,-0.84375l-0.3125,-0.6875l-0.40625,-0.5625l-0.34375,-0.28125l-0.40625,-0.21875l-0.46875,-0.15625l-0.375,-0.0625l-0.4375,0l-0.40625,0.15625l-0.3125,0.1875l-0.34375,0.28125l-0.25,0.28125l-0.21875,0.34375l-0.09375,0.34375l-0.0625,0.34375l0.0625,0.4375l0.09375,0.34375l0.125,0.375l0.03125,0.28125l0.0625,0.625l-0.09375,0.53125l-0.28125,0.53125l-0.375,0.5l-0.5625,0.40625l-0.5,0.25l-0.59375,0.09375l-0.65625,-0.03125l-0.65625,-0.25l-0.71875,-0.34375l-0.75,-0.625l-0.75,-0.65625l-0.6875,-0.78125l-0.5625,-0.71875l-0.40625,-0.75l-0.1875,-0.625l-0.125,-0.625l0.125,-0.53125l0.28125,-0.625l0.40625,-0.46875l0.25,-0.25l0.3125,-0.21875l0.28125,-0.125l0.375,-0.09375l0.28125,-0.0625l0.40625,0l0.34375,0.0625l0.40625,0.09375l0.375,0.0625l0.34375,0.0625l0.59375,0l0.25,-0.0625l0.28125,-0.09375l0.21875,-0.15625l0.25,-0.1875l0.4375,-0.6875l0.125,-0.84375l-0.1875,-0.78125l-0.46875,-0.75l-0.75,-0.5625l-0.78125,-0.375l-0.9375,-0.1875l-1.03125,0zm-9.59375,9.96875l-0.875,0.03125l-0.9375,0.3125l-0.96875,0.46875l-0.9375,0.71875l-0.96875,0.78125l-0.9375,1.03125l-0.71875,1.125l-0.4375,1.03125l-0.1875,1l0.03125,1.0625l0.25,0.90625l0.5,0.96875l0.75,0.84375l0.40625,0.34375l0.40625,0.375l0.40625,0.21875l0.46875,0.21875l0.4375,0.15625l0.4375,0.03125l0.5,0.03125l0.46875,0l0.28125,-0.03125l0.375,-0.03125l0.375,-0.15625l0.46875,-0.15625l0.5,-0.15625l0.53125,-0.21875l0.53125,-0.3125l0.625,-0.3125l0.625,-0.28125l0.5,-0.21875l0.40625,-0.1875l0.40625,-0.25l0.40625,-0.03125l0.28125,0l0.3125,0.125l0.28125,0.1875l0.25,0.4375l0.0625,0.46875l-0.25,0.5625l-0.4375,0.5625l-0.28125,0.28125l-0.21875,0.15625l-0.28125,0.156258l-0.21875,0.09375l-0.3125,0.03125l-0.21875,0.0625l-2,0l-0.3125,0.03125l-0.28125,0.09375l-0.25,0.187485l-0.3125,0.187515l-0.46875,0.6875l-0.09375,0.78125l0.21875,0.78125l0.5625,0.718735l0.59375,0.562515l0.75,0.281235l0.84375,0.15625l0.875,-0.062485l0.96875,-0.25l0.96875,-0.40625l0.96875,-0.71875l1.03125,-0.875l1.03125,-1.15625l0.71875,-1.09375l0.46875,-1.156258l0.21875,-1.0625l-0.0625,-1.03125l-0.28125,-1.0625l-0.5625,-0.96875l-0.78125,-1l-0.4375,-0.375l-0.40625,-0.34375l-0.4375,-0.21875l-0.46875,-0.1875l-0.4375,-0.125l-0.46875,-0.0625l-0.53125,-0.0625l-0.53125,0.0625l-0.4375,0.0625l-0.4375,0.125l-0.46875,0.125l-0.5,0.1875l-0.5625,0.28125l-0.53125,0.25l-0.59375,0.28125l-0.625,0.28125l-0.4375,0.25l-0.40625,0.1875l-0.34375,0.15625l-0.375,0.09375l-0.21875,0.03125l-0.3125,0l-0.1875,-0.09375l-0.21875,-0.1875l-0.25,-0.4375l-0.0625,-0.4375l0.21875,-0.46875l0.375,-0.5l0.1875,-0.125l0.125,-0.1875l0.21875,-0.125l0.25,-0.09375l0.21875,-0.03125l0.21875,-0.09375l0.3125,0l0.25,-0.0625l0.34375,-0.03125l0.59375,0l0.375,-0.0625l0.28125,-0.09375l0.3125,-0.09375l0.28125,-0.1875l0.3125,-0.25l0.5,-0.625l0.15625,-0.6875l-0.21875,-0.65625l-0.5,-0.71875l-0.5625,-0.46875l-0.71875,-0.25l-0.75,-0.09375zm-9.4375,8.25l-0.46875,0.03125l-0.34375,0.15625l-0.46875,0.21875l-0.40625,0.34375l-0.5625,0.8125l-0.15625,0.875l0.1875,0.84375l0.65625,0.906258l8.3125,8.25l0.40625,0.40625l0.40625,0.25l0.40625,0.125l0.46875,0.09375l0.375,-0.09375l0.40625,-0.125l0.46875,-0.25l0.375,-0.343765l0.5625,-0.812485l0.21875,-0.875015l-0.25,-0.843735l-0.65625,-0.84375l-8.25,-8.281258l-0.40625,-0.375l-0.4375,-0.28125l-0.40625,-0.15625l-0.4375,-0.03125zm-4.65625,5.593758l-0.5625,0.062485l-0.53125,0.187515l-0.40625,0.187485l-0.3125,0.218765l-0.40625,0.281235l-0.4375,0.312515l-0.3125,0.3125l-0.40625,0.343735l-0.4375,0.437515l-0.375,0.375l-0.15625,0.15625l-0.125,0.125l-0.1875,0.156235l-0.15625,0.15625l-1.90625,1.875l-0.46875,0.531265l-0.3125,0.499985l-0.21875,0.500015l-0.03125,0.468735l0.03125,0.531265l0.25,0.468735l0.375,0.531258l0.5,0.593735l7.21875,7.218781l0.59375,0.531219l0.46875,0.312515l0.53125,0.250015l0.46875,0.062485l0.5,-0.062485l0.5,-0.187515l0.5,-0.3125l0.5,-0.499985l2.5625,-2.593765l0.46875,-0.437485l0.4375,-0.437515l0.40625,-0.46875l0.40625,-0.4375l0.3125,-0.40625l0.28125,-0.5l0.21875,-0.4375l0.1875,-0.53125l0.09375,-0.5625l0.0625,-0.59375l-0.09375,-0.53125l-0.125,-0.625008l-0.25,-0.531235l-0.25,-0.53125l-0.40625,-0.53125l-0.5,-0.500015l-0.5,-0.499985l-0.46875,-0.343765l-0.5625,-0.281235l-0.46875,-0.15625l-0.5625,-0.09375l-0.53125,0l-0.59375,0.09375l-0.5625,0.1875l0.09375,-0.968765l-0.09375,-0.906235l-0.40625,-0.90625l-0.65625,-0.75l-0.5,-0.437515l-0.46875,-0.406235l-0.59375,-0.25l-0.5,-0.187515l-0.5625,-0.062485l-0.5625,0zm-0.25,4.5l0.25,0.03125l0.3125,0.15625l0.34375,0.3125l0.4375,0.53125l0.0625,0.531235l-0.21875,0.562515l-0.5,0.562485l-1.40625,1.343773l-1.90625,-1.968758l0.875,-0.90625l0.40625,-0.375015l0.40625,-0.34375l0.3125,-0.249985l0.3125,-0.15625l0.3125,-0.03125zm4.21875,3.75l0.21875,0l0.3125,0.09375l0.3125,0.15625l0.28125,0.218742l0.4375,0.593735l0.09375,0.593765l-0.28125,0.59375l-0.53125,0.6875l-1.53125,1.5l-2.125,-2.093735l1.46875,-1.468765l0.34375,-0.34375l0.34375,-0.249985l0.34375,-0.187508l0.3125,-0.09375zm-16.09375,2.906242l-0.40625,0.03125l-0.40625,0.09375l-0.34375,0.21875l-0.34375,0.3125l-0.9375,0.96875l-0.46875,0.687515l-0.15625,0.749985l0.21875,0.78125l0.40625,1.125l5.28125,10.28125l0.125,0.15625l0.125,0.1875l0.21875,0.28125l0.15625,0.1875l0.375,0.28125l0.375,0.21875l0.40625,0.15625l0.40625,0.0625l0.375,-0.0625l0.40625,-0.09375l0.34375,-0.21875l0.375,-0.250015l0.40625,-0.562485l0.1875,-0.59375l0,-0.624985l-0.25,-0.625015l-0.4375,-0.96875l3.28125,-3.25l0.90625,0.46875l0.34375,0.125l0.34375,0.125l0.65625,0l0.28125,-0.125l0.3125,-0.125l0.28125,-0.1875l0.28125,-0.21875l0.46875,-0.75l0.125,-0.78125l-0.15625,-0.78125l-0.53125,-0.75l-0.25,-0.1875l-0.21875,-0.21875l-0.21875,-0.09375l-0.125,-0.0625l-10.375,-5.28125l-0.53125,-0.249985l-0.5,-0.250015l-0.4375,-0.09375l-0.375,-0.09375zm1.75,4.8125l4.96875,2.90625l-2.0625,2.0625l-2.90625,-4.96875zm-8.875,2.3125l-0.40625,0.031235l-0.40625,0.125015l-0.375,0.21875l-0.4375,0.375l-0.53125,0.78125l-0.125,0.812515l0.15625,0.874985l0.65625,0.812485l3.8125,3.843765l0.1875,0.1875l0.1875,0.15625l0.21875,0.21875l0.1875,0.1875l0.1875,0.21875l0.25,0.125l0.21875,0.218765l-0.1875,-0.062515l-0.375,-0.15625l-0.34375,-0.125l-0.34375,-0.1875l-0.34375,-0.125l-0.34375,-0.15625l-0.28125,-0.09375l-0.3125,-0.093735l-5.96875,-1.718765l-0.4375,-0.156235l-0.53125,-0.0625l-0.40625,-0.031265l-0.4375,0.031265l-0.375,0.09375l-0.375,0.187485l-0.28125,0.1875l-0.34375,0.25l-0.65625,0.96875l-0.1875,0.9375l0.25,0.9375l0.65625,0.90625l8.125,8.09375l0.375,0.40625l0.4375,0.25l0.46875,0.15625l0.375,0.09375l0.4375,0l0.40625,-0.15625l0.375,-0.1875l0.40625,-0.343765l0.625,-0.812485l0.125,-0.84375l-0.1875,-0.78125l-0.65625,-0.812515l-3.84375,-3.874985l-0.21875,-0.15625l-0.1875,-0.15625l-0.1875,-0.1875l-0.15625,-0.218735l-0.21875,-0.218765l-0.21875,-0.125l-0.25,-0.21875l0.15625,0.0625l0.3125,0.21875l0.34375,0.124985l0.3125,0.156281l0.34375,0.15625l0.34375,0.093735l0.3125,0.09375l0.28125,0.09375l5.96875,1.75l0.5625,0.1875l0.46875,0.03125l0.4375,0l0.46875,-0.03125l0.34375,-0.1875l0.375,-0.15625l0.375,-0.28125l0.3125,-0.28125l0.625,-0.875015l0.1875,-0.937485l-0.28125,-0.9375l-0.71875,-0.9375l-8.0625,-8.125l-0.46875,-0.34375l-0.375,-0.28125l-0.40625,-0.187515l-0.40625,-0.031235z"/>
  </g>
 </g>
</svg>