<?xml version="1.0"?>
<svg width="5901.4717" height="2593.7227" xmlns="http://www.w3.org/2000/svg" xmlns:svg="http://www.w3.org/2000/svg">
 <metadata id="metadata2231">image/svg+xml</metadata>

 <g>
  <title>Layer 1</title>
  <path fill="#cccccc" id="path2245" d="m8.7166,2564.472656c4.7941,-16.087646 9.450199,-31.780273 10.347,-34.872803l1.6304,-5.622803l27.258999,-13.561279c14.9925,-7.45874 32.554104,-16.03833 39.025898,-19.065674c41.901901,-19.601318 78.364197,-52.000488 107.057205,-95.127441c20.272903,-30.471191 43.444794,-90.529297 75.754089,-196.34375c7.767517,-25.438721 492.67691,-1687.600159 510.580597,-1750.156281c27.191406,-95.007904 40.224731,-168.494507 36.358032,-205.000046c-3.55365,-33.548752 -16.919617,-60.943817 -41.983398,-86.049057c-9.078003,-9.092957 -30.641724,-26.607925 -39.820801,-32.344093c-2.358215,-1.47364 -13.38324,-10.613029 -24.5,-20.309761c-11.116943,-9.696724 -20.318726,-17.699158 -20.448608,-17.783165c-0.365295,-0.236351 2.781067,-63.587393 3.342407,-67.297043l0.496765,-3.283131l482.698364,0.357241c346.613525,0.25651 488.901001,0.68218 504.698608,1.50984c48.841064,2.558849 62.097534,3.35989 87,5.25709c183.599976,13.987642 318.534912,48.112413 412,104.19388c163.007324,97.808762 254.967285,241.241348 272.963135,425.748215c12.852539,131.777039 -10.268311,259.720703 -67.652344,374.366028c-49.32251,98.539429 -125.361816,191.896118 -223.810791,274.782349c-114.214233,96.15918 -256.57959,164.650879 -418.381714,201.282715c-84.744629,19.186157 -166.114014,29.522949 -264.911011,33.65332c-32.023804,1.338745 -133.572021,0.690796 -160.207275,-1.022339c-79.581909,-5.118408 -163.313599,-13.787109 -241,-24.950317c-11,-1.580811 -20.261963,-2.590088 -20.582153,-2.242798c-0.566162,0.613892 -201.895508,692.200195 -214.587891,737.131104c-24.252808,85.854004 -38.326233,157.872314 -38.329224,196.144043c-0.004272,55.776855 19.235229,100.700195 56.054138,130.882813c5.684753,4.660156 13.510559,11.358643 17.390564,14.885498c8.268127,7.515137 8.004517,7.393066 47.804504,22.137939c16.912476,6.265625 30.75,11.770508 30.75,12.233154c0,0.462402 -4.782471,14.425537 -10.627869,31.028809c-5.845337,16.603271 -11.287659,32.100098 -12.094055,34.437744l-1.466064,4.25l-465.762024,0l-465.762085,0l8.7166,-29.25zm1336.336744,-1287.245728c101.654785,-8.967529 187.057617,-45.122437 261.158813,-110.560425c42.356567,-37.404785 81.982056,-86.577637 117.249756,-145.499817c23.045532,-38.502441 49.427856,-89.997437 65.549561,-127.944092c38.684937,-91.055603 61.919189,-183.274902 70.16687,-278.5c8.720947,-100.689453 -0.263916,-181.725677 -27.493652,-247.968475c-16.970703,-41.285706 -38.17981,-72.406799 -71.59021,-105.048431c-57.246094,-55.928665 -129.291504,-85.807205 -224.382324,-93.055466c-26.172607,-1.994995 -124.283325,0.309296 -127.245117,2.988556c-1.080933,0.977737 -313.832153,1091.339981 -313.210083,1091.961929c1.497192,1.497437 86.890503,10.071167 125.4552,12.596313c33.219604,2.175049 31.789917,2.128418 71.5,2.331421c25.035156,0.128052 41.129395,-0.268311 52.841187,-1.301514zm3206.658569,1315.815796c-170.494141,-3.73999 -320.763672,-38.568848 -447.5,-103.720215c-146.537598,-75.330811 -267.718994,-199.455322 -364.741211,-373.599854c-75.737793,-135.94104 -122.378662,-289.065918 -139.199707,-457c-13.560791,-135.385132 -8.022705,-285.09021 15.537109,-420c43.190918,-247.324036 149.518799,-471.374939 315.351563,-664.500061c48.334473,-56.289185 108.853516,-117.149475 168.052246,-169.000488c225.744629,-197.724091 490.787109,-327.801903 771,-378.392416c87.964844,-15.88143 163.98877,-23.52386 261.121582,-26.24979c72.938477,-2.04694 153.110352,1.39461 214.878418,9.22411c40.704102,5.15945 107.038086,20.372689 215.5,49.42352c62.125,16.639679 91.666016,23.512703 121,28.152138c16.82666,2.661263 53.927246,2.40107 70.081055,-0.491486c33.134277,-5.93335 58.553223,-22.534012 82.554688,-53.915604l4.780273,-6.249998l30.898926,0c24.302734,0 30.799316,0.26685 30.430176,1.25c-0.257813,0.6875 -33.935059,138.393675 -74.838379,306.013746l-74.369141,304.763672l-31.518555,-0.263672l-31.519043,-0.263733l-0.717285,-16c-3.898438,-86.906799 -15.876465,-149.951385 -36.668945,-192.999969c-14.498047,-30.015808 -26.412109,-45.793304 -70.60498,-93.5c-9.935059,-10.725006 -25.743652,-28.274994 -35.130371,-39c-53.914551,-61.602646 -105.012207,-97.64389 -175.644043,-123.889221c-54.345703,-20.193558 -115.973145,-30.294601 -185.234375,-30.360672c-31.807129,-0.030334 -51.105957,1.12001 -80,4.768509c-137.885742,17.411224 -278.916504,82.517456 -415.5,191.81369c-144.033691,115.258301 -269.701172,286.742188 -374.373047,510.86377c-133.763184,286.411255 -197.75,587.238159 -191.497559,900.303955c4.089355,204.778076 45.468262,366.799072 124.631348,488c28.597656,43.783936 71.663574,92.519043 111.739258,126.449219c63.094238,53.418457 133.555176,86.265625 208,96.964355c42.379883,6.090576 81.490234,5.276123 122,-2.540527c26.385742,-5.091309 59.464844,-14.372803 88,-24.690918c15.449707,-5.58667 43.99707,-16.969238 50.909668,-20.299072l3.90918,-1.883057l86.830078,-327.5c47.756836,-180.125 91.523926,-346.175049 97.260254,-369c27.763672,-110.470215 36.314941,-164.111206 31.158691,-195.457275c-4.584473,-27.872192 -16.20752,-49.231323 -46.548828,-85.542725c-5.285156,-6.325073 -13.918945,-16.935059 -19.185547,-23.577881c-5.26709,-6.642822 -11.546875,-13.677124 -13.955078,-15.631836c-12.307617,-9.990356 -26.6875,-13.384766 -61.98877,-14.632568l-18.610352,-0.657715l8.152832,-34l8.152832,-34l416.526367,-0.251221l416.525879,-0.251221l-7.267578,33.598755c-3.997559,18.47937 -7.410156,34.025757 -7.583984,34.547485c-0.173828,0.521973 -7.385254,4.034058 -16.024902,7.804932c-17.61377,7.6875 -20.134277,9.086914 -30.760742,17.0802c-4.125,3.102905 -12,8.48291 -17.5,11.955688c-26.335449,16.628906 -44.818848,34.849365 -62.500977,61.611694c-20.03418,30.322998 -30.64502,61.564087 -59.063965,173.903687c-5.98291,23.649902 -56.422852,212.244385 -112.088379,419.098633l-101.210938,376.098877l-26.567871,10.599365c-171.089844,68.258057 -345.970703,110.252197 -529.567871,127.165283c-69.181641,6.373047 -149.569336,9.304199 -215.5,7.85791zm-2388.499756,-10.994385c-147.461304,-5.950684 -256.529053,-53.999512 -339.771118,-149.682861c-45.894897,-52.754395 -75.43457,-113.773438 -86.208496,-178.078369c-4.196045,-25.043457 -4.965454,-35.611084 -4.882813,-67.064453c0.20813,-79.333984 15.200317,-145.569214 47.306763,-209c22.135254,-43.731445 51.598267,-82.2323 97.212891,-127.033447c63.937134,-62.796875 144.599976,-122.96875 240.842773,-179.661011c73.134766,-43.080444 169.553955,-92.465942 268,-137.268921c12.925049,-5.88208 23.829834,-11.011719 24.233398,-11.39917c0.40332,-0.387451 -0.605957,-11.264282 -2.243164,-24.170898c-6.212891,-48.9823 -12.121826,-106.528931 -15.193115,-147.966553c-1.744873,-23.542114 -1.745361,-107.489014 -0.000488,-127c6.929932,-77.491943 20.543945,-138.117676 44.463135,-198c32.813232,-82.149414 78.770508,-150.054749 145.855469,-215.511536c109.619385,-106.959473 240.411865,-159.884277 385.884766,-156.147217c102.532227,2.634033 177.253418,32.950745 238.5,96.766846c32.407959,33.767883 56.035645,74.806641 66.552734,115.596375c7.199707,27.924011 9.768311,56.513367 8.049072,89.597473c-3.053467,58.759888 -14.498535,106.065002 -36.943848,152.698059c-19.769775,41.074707 -45.218018,75.640503 -87.135986,118.35498c-58.184814,59.290405 -127.976807,110.432007 -222.544922,163.074341c-26.779785,14.907349 -87.969727,45.291382 -118.977051,59.078247c-13.199951,5.869141 -26.330078,11.716309 -29.177979,12.99353l-5.177979,2.322266l4.351074,13.838257c48.667236,154.778564 72.184082,227.401978 94.524658,291.90564c25.25,72.903931 40.925293,110.778687 70.538086,170.432739c14.337402,28.882568 21.385498,42.307007 37.762207,71.924927l9.081787,16.425049l5.862793,-6.425049c36.725586,-40.247925 74.480957,-94.45813 95.44043,-137.037231c14.363281,-29.178589 28.325684,-66.938599 36.230225,-97.980957c16.213379,-63.67334 7.961914,-109.222534 -25.889648,-142.911377c-14.943604,-14.871704 -33.358154,-25.304932 -60.173584,-34.092773l-15.62793,-5.121582l8.115234,-24.390503l8.115479,-24.390503l260.762451,0c143.419434,0 260.762695,0.376221 260.762695,0.836304c0,0.459839 -4.398926,11.372314 -9.775391,24.25l-9.775391,23.413696l-5.974609,1.791382c-50.573242,15.163208 -77.567627,27.854126 -108.165771,50.852173c-36.017578,27.071411 -100.77002,103.953125 -200.752197,238.356445c-58.188721,78.221558 -115.36792,147.193359 -173.732178,209.563477l-13.675781,14.614258l17.175781,22.921631c38.133545,50.891602 68.515869,86.270508 104.302979,121.456055c54.9729,54.049072 100.320801,83.0271 148.372559,94.8125c37.614502,9.225342 80.802979,9.267334 113.414063,0.110352c24.994141,-7.018311 49.218262,-21.063477 82.585938,-47.883301l12.5,-10.047119l21.75,-0.023926c11.962402,-0.013184 21.75,0.227295 21.75,0.53418c0,1.20459 -17.331055,34.683594 -24.559326,47.441895c-16.221436,28.632324 -41.350342,64.125488 -61.948975,87.5c-62.834961,71.302246 -146.11499,118.981201 -239.168213,136.92749c-66.381592,12.802246 -145.363281,10.564209 -211.323486,-5.988525c-64.062256,-16.076416 -115.139404,-42.435303 -175.974365,-90.814209c-26.779297,-21.296143 -63.530273,-54.989502 -87.475098,-80.197754l-13.537354,-14.251465l-30.256592,20.203613c-50.613525,33.796143 -90.630371,56.907959 -142.866211,82.512695c-110.450439,54.139893 -216.919678,84.681396 -327.890381,94.056885c-28.296875,2.390869 -68.089111,3.402344 -93.5,2.376953zm309,-190.349121c46.540039,-3.84668 97.614014,-19.780762 157,-48.981201c30.835449,-15.162109 74.5,-39.82959 74.5,-42.087402c0,-0.559814 -1.739258,-3.580566 -3.864746,-6.712891c-11.166016,-16.455322 -36.625977,-59.124268 -52.595215,-88.145996c-87.718262,-159.416138 -173.615479,-387.606689 -212.511719,-564.549072c-1.692627,-7.700073 -3.273193,-14.551147 -3.511963,-15.224731c-1.111572,-3.134888 -72.408447,40.401733 -106.016357,64.737793c-77.069336,55.807129 -125.110107,109.365601 -152.663574,170.197388c-21.983398,48.533936 -32.841553,101.856079 -32.833984,161.23938c0.012207,95.95813 27.448486,178.393677 82.056885,246.550171c38.122803,47.580322 87.944824,85.908691 136.940674,105.348877c36.197266,14.362061 76.769775,20.66333 113.5,17.627686zm296.129883,-1037.226563c54.489746,-39.964966 96.618408,-79.613281 129.897949,-122.25c29.26123,-37.488647 57.38501,-90.877686 73.451172,-139.437012c30.476074,-92.112061 30.288086,-198.879944 -0.462646,-262.835815c-16.546387,-34.413513 -39.751709,-55.939209 -69.628418,-64.589111c-43.238525,-12.518311 -91.134766,1.222473 -119.559326,34.299927c-43.742188,50.902161 -63.802002,143.082947 -59.495117,273.395752c3.031006,91.711548 10.046875,151.741455 32.247314,275.91626c1.253662,7.012451 2.59082,12.75 2.97168,12.75c0.380859,0 5.140625,-3.262573 10.577393,-7.25z"/>
 </g>
</svg>