<?xml version="1.0"?>
<svg width="170" height="109.99999999999999" xmlns="http://www.w3.org/2000/svg" xmlns:svg="http://www.w3.org/2000/svg">
 <g>
  <title>Layer 1</title>
  <g id="svg_1">
   <path fill="#cccccc" stroke="#ffffff" stroke-width="0.3112" d="m167.029999,54.688c0,28.354 -36.542999,51.338001 -81.629997,51.338001c-13.288002,0 -25.836002,-2.000999 -36.926003,-5.542l14.453003,-53.866001l7.076996,0l-6.393997,24.022999l10.360001,0l7.299995,-27.446999l-17.434998,0l5.537003,-20.852001c0.693001,-2.608999 3.511002,-6.539999 7.354996,-6.544999c2.274002,0 5.102005,1.134999 5.228004,2.588c-2.902,0 -5.304001,2.771 -5.304001,5.806s2.401001,5.537001 5.304001,5.537001c1.868996,0 6.140999,-2.107 5.891998,-6.804001c-0.155998,-2.907 -1.848999,-8.632 -11.119003,-8.844999c-10.765999,-0.233001 -18.191998,9.366999 -20.846996,19.082998c-1.57,5.780003 -5.466,19.57 -8.793999,32.118c-2.8353,10.487999 -5.6707,20.975998 -8.506001,31.464005c-21.054001,-9.285004 -34.818001,-24.660004 -34.818001,-42.056004c0,-28.348999 36.55,-51.338 81.637002,-51.338s81.629997,22.989001 81.629997,51.338zm-142.835999,15.952999l3.389,-12.669998c17.355,0.263 20.720001,-3.931999 23.120998,-14.777c1.687,-7.604 -2.502998,-13.466 -10.086998,-13.466l-20.719,0l-0.907001,3.434998l4.549002,0l-9.954,37.479l10.608,0l0,-0.000999zm9.953999,-37.479c5.436001,-0.212997 7.533001,1.079002 5.436001,10.031002c-2.73,11.528999 -6.042999,11.348 -11.094,11.348l5.657999,-21.379002zm128.285,14.884003c0,-3.110001 -2.324997,-5.648003 -5.177994,-5.648003c-2.305008,0 -5.562012,1.505001 -7.888,5.253002l1.134995,-4.457001l-14.147995,0l-0.906998,3.424l3.788986,0l-6.39299,24.022999l10.358994,0c0,0 3.896011,-14.488998 3.865005,-14.52c1.546005,-4.482998 4.397003,-9.705997 5.233002,-8.996998c-0.887009,4.244999 2.197998,6.57 4.953995,6.57c2.852997,0 5.179001,-2.527 5.179001,-5.647999zm-47.933998,9.924999l17.461998,0c0.132004,-0.457001 0.203003,-0.765999 0.272995,-1.186001c1.92601,-9.109001 -2.598999,-14.909 -9.796997,-14.909c-7.792,0 -14.989998,2.633999 -17.993996,14.909c-1.996002,8.125004 2.350998,14.646 10.056,14.913998c6.925003,0.232002 13.464996,-1.691994 16.728004,-11.089996l-10.613007,0l-0.632996,2.375999c-1.262001,4.751999 -2.954002,5.278 -4.823006,5.278c-1.874001,0 -2.780998,-2.375 -1.995995,-5.278l1.336998,-5.014l0,0zm1.945,-7.387001c0.779999,-2.908001 2.527,-5.41 4.827003,-5.283001c2.25,0 2.775993,2.375 1.990997,5.283001l-0.982002,3.693001l-6.823997,0l0.987999,-3.693001zm-15.791,16.626999l-8.845001,0l15.233002,-24.017998l-22.233002,0l-0.907997,3.424l8.846001,0l-14.985001,24.023998l21.986,0l0.905998,-3.43z" id="svg_3"/>
  </g>
 </g>
</svg>