<?xml version="1.0"?>
<svg width="250" height="38" xmlns="http://www.w3.org/2000/svg" xmlns:svg="http://www.w3.org/2000/svg">
 <g>
  <title>Layer 1</title>
  <g id="svg_1">
   <path d="m129.315994,6.715c-0.854004,-1.36 -2.513,-1.844 -3.782997,-1.844l-12.892998,0l-13.345001,28.370001l6.698997,0l5.111,-11.137001l3.596001,0.009001c0.003006,0 1.040001,0.049 1.521004,0.837999c0.431999,0.714001 0.313995,1.806002 -0.360001,3.247002c-1.619003,3.470999 -2.903999,7.071999 -2.903999,7.071999l6.796997,0.004002c0,0 0.252998,-1.377998 0.824005,-2.742001c0.515999,-1.242001 2.076996,-5.156 2.087997,-5.193001c1.307999,-3.226 -0.302002,-4.496 -1.321999,-5.128c2.575996,-0.269999 4.417,-1.482 5.459999,-3.635998c0.849998,-1.754001 2.163994,-4.597002 2.174995,-4.625001c1.30101,-2.691999 0.904007,-4.334002 0.335999,-5.235002m-6.807991,4.900001l-1.169998,2.457999l-0.700005,1.458c-0.566994,1.200001 -1.439995,1.808001 -2.598999,1.808001l-4.669998,0l3.543999,-7.719998l5.113998,0c0,0 0.475006,0.018 0.691002,0.368c0.204994,0.332998 0.132996,0.896 -0.209999,1.627998" fill="#cccccc" id="svg_2"/>
   <g id="svg_3">
    <path d="m57.789001,6.715c-0.853001,-1.36 -2.513,-1.844 -3.783001,-1.844l-12.896999,0l-13.342001,28.370001l6.696001,0l5.113998,-11.137001l3.596001,0.009001c0.003002,0 1.037003,0.049 1.519001,0.837999c0.435001,0.714001 0.317001,1.806002 -0.360001,3.247002c-1.618999,3.470999 -2.901001,7.071999 -2.901001,7.071999l6.797001,0.004002c0,0 0.25,-1.377998 0.820999,-2.742001c0.519001,-1.242001 2.078003,-5.156 2.092003,-5.193001c1.307999,-3.226 -0.302002,-4.496 -1.322002,-5.128c2.576,-0.269999 4.417,-1.482 5.459,-3.635998c0.850002,-1.754001 2.164001,-4.597002 2.175003,-4.625001c1.299995,-2.691999 0.899998,-4.334002 0.335999,-5.235002m-6.809002,4.900001l-1.173,2.457999l-0.696999,1.457001c-0.567001,1.200001 -1.439999,1.808001 -2.598999,1.808001l-4.673,0l3.646999,-7.719999l5.013,0c0,0 0.476002,0.018 0.690998,0.368c0.206001,0.334 0.134003,0.897 -0.209,1.629" fill="#cccccc" id="svg_4"/>
    <path d="m73.850998,27.733999c1.331001,-2.774 3.183998,-6.734001 5.146004,-10.925999l2.287994,-4.882001c2.360001,-5.028 -0.305,-7.214002 -3.689995,-7.214002l-8.116005,0c-3.422997,0 -5.84,1.616 -7.392998,4.939002c-0.833,1.785 -2.228001,4.702 -3.841,8.079999l-3.426003,7.177999c-3.417,7.195002 1.697002,8.377001 4.215,8.377001l5.139999,0c5.151001,0.051003 7.686005,-1.403002 9.677002,-5.552002m-9.110001,0.283001l-2.950005,0c-0.542,0.027 -1.59,-0.139 -0.790001,-1.858c1.146,-2.471001 5.947006,-12.813999 6.926003,-14.893999c0.667999,-1.419002 1.360001,-1.704 2.264999,-1.704l3.647003,0c0.706001,-0.029 1.331001,0.357 0.761002,1.57l-6.807999,14.540001c-0.950996,2.009001 -1.593002,2.346001 -3.051003,2.346001" fill="#cccccc" id="svg_5"/>
    <path d="m100.959,4.712l-6.940002,0c-3.541,0 -6.413994,1.8 -7.882996,4.939c-1.256004,2.692 -7.235001,15.258 -7.235001,15.258c-2.183998,4.596001 -0.918999,8.376999 5.059998,8.376999l5.339005,0c4.264,0.045002 6.361,-0.626999 8.308998,-4.889999l4.970001,-10.896l-10.126999,-0.014l-2.226997,4.74l3.528999,0.006001l-1.982002,4.292c-0.579002,1.243 -0.971001,1.492002 -2.331001,1.492002l-3.505997,0c-1.042999,0.011999 -1.420006,-0.519001 -0.790001,-1.858c0.797997,-1.692001 7.098999,-14.852002 7.098999,-14.852002c0.711998,-1.498 1.140999,-1.724998 2.245003,-1.724998l3.625,0c0.875,-0.005 1.348,0.405 0.763,1.566c-0.132004,0.257998 -1.590004,3.415998 -1.590004,3.415998l6.390999,0.047l1.452003,-3.122998c2.121994,-4.575 0.234993,-6.715002 -4.171005,-6.775002" fill="#cccccc" id="svg_6"/>
   </g>
   <polygon points="182.314,33.184 195.758,4.785 188.795,4.785 175.429,33.184  " fill="#cccccc" id="svg_7"/>
   <polygon points="212.826,4.792 197.233,29.811 205.122,4.792 197.904,4.792 191.284,33.184 200.604,33.184    220.072,4.792  " fill="#cccccc" id="svg_8"/>
   <path d="m159.492996,23.334999l-0.578995,-10.497c-0.069,-1.263 0.238998,-2.982 2.556,-2.982l4.653,0l2.384995,-5.063l-7.929001,0c-6.279999,0.007 -8.421005,3.842 -8.177002,8.351c0.145004,2.757 0.533005,11.726 0.533005,11.726c0.095001,2.160999 -0.734009,3.174 -2.757004,3.174999l-5.304993,0l-2.374008,5.151001l8.453003,0c5.606003,-0.000999 8.910004,-3.662998 8.541,-9.861" fill="#cccccc" id="svg_9"/>
   <path d="m175.348007,23.334999l-0.578995,-10.497c-0.068008,-1.263 0.241989,-2.982 2.55899,-2.982l4.650009,0l2.388992,-5.063l-7.931992,0c-5.209,0.005 -8.473999,2.846 -8.177002,8.351c0.145996,2.757 0.535995,11.726 0.535995,11.726c0.098007,2.160999 -0.735001,3.174 -2.761002,3.174999l-5.166,0l-2.380005,5.151001l8.321014,0c6.165985,-0.000999 8.862991,-4.412998 8.539993,-9.861" fill="#cccccc" id="svg_10"/>
   <path d="m136.498993,4.83l-13.274002,28.361998l16.789001,0l2.442993,-5.137999l-10.19899,0l3.593002,-7.561998l8.619995,0l2.209991,-4.750001l-8.648987,0l2.751999,-5.895l8.947998,0.014998c0.01799,0 2.339996,-5.035998 2.339996,-5.035998l-15.572998,0.004z" fill="#cccccc" id="svg_11"/>
   <path d="m222.356995,4.83l-13.270996,28.361998l16.785995,0l2.442993,-5.137999l-10.195999,0l3.590012,-7.561998l8.619995,0l2.212997,-4.750001l-8.651993,0l2.75499,-5.895l8.942001,0.014998c0.018005,0 2.343002,-5.035998 2.343002,-5.035998l-15.572998,0.004z" fill="#cccccc" id="svg_12"/>
   <path d="m11.883,33.276001l-6.883,0l13.236,-28.399l12.747,0c2.929998,0.01 5.661001,2.288 3.440001,7.201c-1.262001,2.789 -2.376999,5.198999 -2.939001,6.358999c-1.748999,3.594999 -3.993,4.923 -8.279999,4.893002c-2.812,-0.02 -6.699001,0 -6.699001,0l-4.621998,9.945999l-0.000001,0zm11.204999,-14.906c1.209999,0.012001 2,-0.517 2.559,-1.711c0.101,-0.216 1.046,-2.177999 2.288,-4.808998c0.869999,-1.839002 0.192999,-2.318002 -0.755001,-2.318002l-4.327999,-0.006l-4.08,8.837999l4.316,0.006001z" fill="#cccccc" id="svg_13"/>
   <path d="m240.104004,7.347c0,-1.346 1.098999,-2.442 2.457993,-2.442c1.352005,0 2.438004,1.096 2.438004,2.442c0,1.358 -1.085999,2.453 -2.438004,2.453c-1.358994,0 -2.457993,-1.095 -2.457993,-2.453m4.604996,0c0,-1.186 -0.962006,-2.146 -2.145996,-2.146c-1.192001,0 -2.154999,0.961 -2.154999,2.146c0,1.198 0.962997,2.158 2.154999,2.158c1.18399,-0.001 2.145996,-0.96 2.145996,-2.158m-0.931,1.368999l-0.397003,0l-0.780991,-1.26l-0.613007,0l0,1.26l-0.334,0l0,-2.735l1.188995,0c0.230011,0 0.460999,0.013 0.669006,0.135c0.203995,0.115 0.304993,0.36 0.304993,0.591c0,0.536 -0.376999,0.737 -0.863998,0.749l0.826004,1.26m-1.281998,-1.524c0.386993,0 0.981995,0.065 0.981995,-0.493c0,-0.423 -0.373993,-0.476 -0.710999,-0.476l-0.780991,0l0,0.968l0.509995,0l0,0.001z" fill="#cccccc" id="svg_14"/>
  </g>
 </g>
</svg>