<?xml version="1.0"?>
<svg width="192.756" height="192.756" xmlns="http://www.w3.org/2000/svg" xmlns:svg="http://www.w3.org/2000/svg">
 <g>
  <title>Layer 1</title>
  <g id="svg_1" clip-rule="evenodd" fill-rule="evenodd">
   <path fill="#cccccc" id="svg_3" d="m149.042999,98.956001c-1.511993,8.220001 -7.244003,11.028999 -12.395996,11.028999l-28.088005,0l0,-25.128998c0,-1.734001 0.463005,-2.005005 1.957001,-2.958l-10.558998,-0.111c0.566002,0.277 2.145996,1.074997 2.145996,2.931l-0.034996,24.262001c0,2.045998 -0.859001,2.773994 -2.111,3.225998l36.947006,-0.017998c9.579987,0.034996 13.478989,-3.642006 16.259995,-6.937004c3.039001,-3.571999 4.651993,-10.163002 1.201004,-15.833c-2.473007,-4.093002 -7.143005,-7.543999 -12.465012,-8.376999c-1.235992,-0.190002 -2.798996,-0.501999 -4.737991,-0.501999c-1.923996,0 -3.673996,0.225998 -5.031006,0.501999c-4.394997,1.041 -9.991997,3.885002 -12.550995,8.567001c-2.643005,4.855995 -1.321999,10.127998 0.637001,13.074997c1.767998,2.723 5.991997,6.295998 11.657997,6.486l0.169998,-0.069c-3.724991,-1.924995 -5.612999,-5.428001 -6.764,-10.144997c-0.859001,-3.607002 -0.239998,-8.983002 2.900002,-12.365005c2.335999,-2.479996 5.804993,-3.831993 8.979996,-3.866997c3.210999,0.035004 6.52301,1.231003 8.84201,3.710999c3.160995,3.382004 3.692001,9.105003 3.039993,12.522003zm-112.66,10.836998l-9.408998,-11.948997c10.438997,-1.664001 9.408998,-16.284004 -2.987001,-16.284004l-21.152999,0c1.442,0.503006 2.404,1.231003 2.404,2.636002l0,24.815002c0.017,1.163002 -0.79,2.498001 -1.872,3.173996l10.062001,0c-1.082001,-0.555 -2.146001,-2.132996 -2.146001,-3.086998l0,-10.75l8.619001,0l10.369999,13.870003l8.875999,-0.015999c-0.944,-0.451004 -1.888,-1.282005 -2.764,-2.409004zm-16.503,-13.666l-8.601999,0l-0.035,-12.311996l10.233,-0.035004c7.401001,0.034004 9.169001,12.209 -1.596001,12.347zm55.058004,-11.176003c-0.755005,-1.664993 0.136993,-2.618996 1.441994,-3.172997l-11.847,0c1.237,0.971001 2.645004,1.681999 3.194,3.555l13.375,26.862l3.125,0l12.517006,-27.764c0.719994,-1.648003 1.424995,-2.046997 2.145996,-2.653l-6.971001,0c1.271004,0.363998 2.301003,1.473999 1.494003,3.260002l-9.186005,20.376999l-9.288994,-20.464005zm86.276993,23.75c0,1.838005 -1.580002,3.086006 -2.19899,3.485001l6.748001,0c-0.617004,-0.398994 -2.094009,-1.369995 -2.094009,-3.208l0,-21.503998l21.065994,24.711998l3.090012,0l0,-27.502998c0,-1.837997 1.494003,-2.498001 2.095993,-2.895996l-6.714996,0c0.602005,0.398994 2.182007,1.334999 2.182007,3.155998l-0.035004,17.792999l-18.182007,-20.948997l-9.701004,0c1.031006,0.520996 3.744003,1.646996 3.744003,4.161995l0,22.751999zm-97.374996,-26.929993l-24.516998,0c1.167,0.625 2.231998,1.091995 2.231998,2.982994l-0.017002,24.348c0,1.683006 -0.686996,2.445 -1.854,3.087006l25.359001,0l2.387001,-7.353004c-1.236,1.457001 -4.172001,5.114998 -9.528999,5.098999l-9.666,-0.017998l0,-12.209l7.038998,0c2.232002,0 3.399002,1.231003 4.138,2.409996l0,-7.247993c-1.046997,1.491997 -1.973999,2.531998 -4.154999,2.531998l-7.021999,0l0,-11.498001l9.905998,0.034004c4.172001,0.034996 5.958,2.687996 6.885002,4.248993l-1.186001,-6.415993z"/>
  </g>
 </g>
</svg>