<?xml version="1.0" encoding="UTF-8"?>
<svg width="402px" height="344px" viewBox="0 0 402 344" version="1.1" xmlns="http://www.w3.org/2000/svg" xmlns:xlink="http://www.w3.org/1999/xlink">
    <!-- Generator: Sketch 46 (44423) - http://www.bohemiancoding.com/sketch -->
    <title>sealy</title>
    <desc>Created with Sketch.</desc>
    <defs>
        <polygon id="path-1" points="0.0106470571 0.0441092366 350.170627 0.0441092366 350.170627 734.125018 0.0106470571 734.125018"></polygon>
    </defs>
    <g id="Page-1" stroke="none" stroke-width="1" fill="none" fill-rule="evenodd">
        <g id="sealy" transform="translate(-159.000000, -1.000000)">
            <g id="g2453" transform="translate(368.025551, 176.488401) scale(-1, 1) rotate(90.000000) translate(-368.025551, -176.488401) translate(192.525551, -191.011599)">
                <g id="g2455-Clipped">
                    <mask id="mask-2" fill="white">
                        <use xlink:href="#path-1"></use>
                    </mask>
                    <g id="path2459"></g>
                    <g id="g2455" mask="url(#mask-2)">
                        <g transform="translate(2.064225, 161.552795)">
                            <path d="M41.6452034,195.741799 C62.5014846,152.438697 79.461812,106.998578 100.312661,63.695476 C115.670498,36.8279533 143.609245,19.7980941 174.710602,22.6119592 C204.938467,24.5631953 234.029921,49.4034315 245.445087,77.813691 C263.400588,116.107244 280.069751,155.268859 295.446057,194.87917 C315.830826,145.962462 336.203644,94.4589525 339.284772,40.0546635 C339.6509,30.5559675 336.127593,20.2174577 327.024359,15.0981789 C296.31955,5.81459691 259.184136,4.34139186 229.382154,1.09078014 C161.169284,-0.602971092 91.6689889,-1.85562996 22.2675595,11.9942358 C15.3719603,13.770556 8.49374414,17.7012757 4.65558869,24.2014127 C-5.97321633,48.8786837 4.57997286,77.2943754 10.357631,101.424083 C19.2103331,133.305501 30.2126542,164.74474 41.6452034,195.741799 Z M41.6452034,200.098401 C62.5014846,243.406936 79.461812,288.840536 100.312661,332.150157 C115.670498,359.016593 143.609245,376.04102 174.710602,373.233674 C204.938467,371.277005 234.029921,346.442201 245.445087,318.031942 C263.400588,279.73187 280.069751,240.570256 295.446057,200.959944 C315.830826,249.877739 336.203644,301.381248 339.284772,355.789883 C339.6509,365.289665 336.127593,375.621657 327.024359,380.740935 C296.31955,390.024517 259.184136,391.498809 229.382154,394.748334 C161.169284,396.448604 91.6689889,397.701263 22.2675595,383.844879 C15.3719603,382.075077 8.49374414,378.137839 4.65558869,371.64422 C-5.97321633,346.966949 4.57997286,318.544739 10.357631,294.420463 C19.2103331,262.532527 30.2126542,231.099807 41.6452034,200.098401 Z" id="path2461" stroke="#FFFFFF" stroke-width="4.31571958" fill="none"></path>
                            <path d="M41.6452034,195.741799 C62.5014846,152.438697 79.461812,106.998578 100.312661,63.695476 C115.670498,36.8279533 143.609245,19.7980941 174.710602,22.6119592 C204.938467,24.5631953 234.029921,49.4034315 245.445087,77.813691 C263.400588,116.107244 280.069751,155.268859 295.446057,194.87917 C315.830826,145.962462 336.203644,94.4589525 339.284772,40.0546635 C339.6509,30.5559675 336.127593,20.2174577 327.024359,15.0981789 C296.31955,5.81459691 259.184136,4.34139186 229.382154,1.09078014 C161.169284,-0.602971092 91.6689889,-1.85562996 22.2675595,11.9942358 C15.3719603,13.770556 8.49374414,17.7012757 4.65558869,24.2014127 C-5.97321633,48.8786837 4.57997286,77.2943754 10.357631,101.424083 C19.2103331,133.305501 30.2126542,164.74474 41.6452034,195.741799" id="path2463" stroke="none" fill="#cccccc" fill-rule="nonzero"></path>
                            <path d="M41.6452034,195.741799 C62.5014846,152.438697 79.461812,106.998578 100.312661,63.695476 C115.670498,36.8279533 143.609245,19.7980941 174.710602,22.6119592 C204.938467,24.5631953 234.029921,49.4034315 245.445087,77.813691 C263.400588,116.107244 280.069751,155.268859 295.446057,194.87917 C315.830826,145.962462 336.203644,94.4589525 339.284772,40.0546635 C339.6509,30.5559675 336.127593,20.2174577 327.024359,15.0981789 C296.31955,5.81459691 259.184136,4.34139186 229.382154,1.09078014 C161.169284,-0.602971092 91.6689889,-1.85562996 22.2675595,11.9942358 C15.3719603,13.770556 8.49374414,17.7012757 4.65558869,24.2014127 C-5.97321633,48.8786837 4.57997286,77.2943754 10.357631,101.424083 C19.2103331,133.305501 30.2126542,164.74474 41.6452034,195.741799 Z" id="path2465" stroke="#FFFFFF" stroke-width="2.16077684" fill="none"></path>
                            <path d="M41.6452034,200.103834 C62.5014846,243.412368 79.461812,288.847055 100.312661,332.150157 C115.670498,359.022025 143.609245,376.046452 174.710602,373.239106 C204.938467,371.282438 234.029921,346.44872 245.445087,318.037374 C263.400588,279.737302 280.069751,240.575688 295.446057,200.965376 C315.830826,249.883171 336.203644,301.38668 339.284772,355.795315 C339.6509,365.289665 336.127593,375.627089 327.024359,380.746368 C296.31955,390.02995 259.184136,391.504241 229.382154,394.753766 C161.169284,396.448604 91.6689889,397.701263 22.2675595,383.851397 C15.3719603,382.080509 8.49374414,378.143271 4.65558869,371.643134 C-5.97321633,346.966949 4.57997286,318.550171 10.357631,294.420463 C19.2103331,262.539046 30.2126542,231.099807 41.6452034,200.103834" id="path2467" stroke="none" fill="#cccccc" fill-rule="nonzero"></path>
                            <path d="M41.6452034,200.103834 C62.5014846,243.412368 79.461812,288.847055 100.312661,332.150157 C115.670498,359.022025 143.609245,376.046452 174.710602,373.239106 C204.938467,371.282438 234.029921,346.44872 245.445087,318.037374 C263.400588,279.737302 280.069751,240.575688 295.446057,200.965376 C315.830826,249.883171 336.203644,301.38668 339.284772,355.795315 C339.6509,365.289665 336.127593,375.627089 327.024359,380.746368 C296.31955,390.02995 259.184136,391.504241 229.382154,394.753766 C161.169284,396.448604 91.6689889,397.701263 22.2675595,383.851397 C15.3719603,382.080509 8.49374414,378.143271 4.65558869,371.643134 C-5.97321633,346.966949 4.57997286,318.550171 10.357631,294.420463 C19.2103331,262.539046 30.2126542,231.099807 41.6452034,200.103834 Z" id="path2469" stroke="#FFFFFF" stroke-width="2.16077684" fill="none"></path>
                        </g>
                    </g>
                </g>
            </g>
            <g id="g2471" transform="translate(352.751244, 171.208089) scale(-1, 1) rotate(90.000000) translate(-352.751244, -171.208089) translate(279.751244, 34.708089)" fill-rule="nonzero" fill="#cccccc">
                <g id="g2473-Clipped">
                    <g id="g2473" transform="translate(0.454974, 0.099007)">
                        <path d="M5.32475041,226.967936 L96.1354562,187.934521 C98.72117,187.055595 102.169513,186.163633 104.767177,187.445625 C106.0948,192.611621 99.6478986,196.543427 96.2223709,200.020017 C78.1745227,212.227194 57.5040218,219.705122 37.7070141,228.045679 C33.4090797,231.092041 35.6167144,237.982208 35.6460481,242.297525 C43.4205726,243.106919 51.5742628,236.583967 57.1780915,235.244393 C71.8134493,229.537353 85.5709681,220.812198 101.971782,220.701382 C104.138132,221.546628 104.155515,224.574521 102.437862,225.879328 C82.2627753,241.546799 56.8282596,247.335321 35.3255499,258.704857 C36.2229447,263.444971 33.2287315,268.215504 36.7053216,271.214063 C64.2605573,261.529587 90.5033802,248.401114 117.184036,236.997898 C127.924527,229.589502 142.105755,219.55954 143.736493,205.739008 C145.396565,195.797046 142.303486,185.465055 134.499628,179.903598 C131.033902,178.202241 127.59751,180.380542 126.75335,183.409521 C126.398086,194.632389 139.391842,201.021709 136.014117,211.830645 C128.727402,220.084287 118.389978,223.607594 108.91953,227.125469 C112.333107,221.056646 118.757193,213.246269 115.251269,205.499992 C110.049422,202.949044 104.016451,203.851871 98.3952397,203.025094 C105.681955,195.209285 118.587709,188.645049 115.478334,175.715393 C111.558479,170.998095 105.09854,172.337668 99.4729826,170.648263 C105.460323,162.407658 120.102199,157.986956 116.130195,145.494047 C111.785544,139.91412 104.446679,141.265645 99.2567822,139.570807 C107.416991,133.041336 117.731599,126.495569 116.362692,115.278134 C111.144547,109.703639 101.226488,111.067114 94.3124192,110.251202 C103.748102,101.555381 117.930417,91.9578193 118.268298,78.1492381 C118.232445,73.3960876 114.750423,68.6722708 110.422069,66.9785196 C84.4758422,60.2447992 59.082611,70.78104 42.3841142,90.7464449 C37.6787668,97.2520141 32.1216549,105.062391 36.4902076,113.233464 C40.4100629,117.957281 46.4615025,118.778625 52.5009914,118.306026 C68.4531077,116.472125 82.5941378,100.833988 86.3803617,86.5647589 C87.6612679,83.9670943 87.2017061,79.6517769 91.0802769,79.6278753 C98.4137091,78.7130975 106.182802,78.6609487 111.400946,83.8041291 C111.849643,87.2513855 109.432327,88.6202928 106.712981,93.9666365 C102.961524,98.8708014 101.587184,100.705789 97.7259961,104.182379 C76.2406694,118.574376 50.8354874,128.247988 35.8904958,152.086531 C35.0517685,155.11551 34.2065225,157.713175 36.3793913,160.281506 C38.1209456,161.999159 41.1325418,160.688919 42.4427817,163.263768 C35.1213003,165.476835 34.7432211,172.814613 35.2147336,178.855188 C35.6688632,182.302445 40.8413774,181.406136 42.5590302,180.09481 C63.2175803,171.75534 83.0135015,162.558672 104.557496,156.798397 C105.855785,157.649075 106.735797,159.373247 105.879686,161.108282 C73.6603877,183.770218 37.4973323,197.398451 2.64017101,212.745423 C-0.784270219,217.084642 1.52766218,222.425554 1.44074743,226.997269" id="path2481"></path>
                        <path d="M22.5534271,94.3338513 C25.5585047,92.1566368 25.5226523,87.4089185 23.7821844,84.8286368 C17.2700966,79.6984935 9.45428757,73.2733205 8.53407763,64.6481178 C8.94149053,60.7641148 12.7972462,56.4183772 16.245589,55.527501 C41.2542225,51.9053287 67.6491462,61.2236766 92.6642983,58.4630468 C102.140179,54.9451722 110.293869,48.4157014 114.539655,38.4574437 C117.918466,27.216107 118.686575,12.9642605 108.697897,4.39772527 C103.497136,0.547401755 97.8715783,-1.14200374 91.8494725,1.92174127 C89.7005052,4.09461007 89.7287525,7.54838503 90.6022458,9.70278444 C96.2756062,18.7245357 111.423761,24.234931 106.76513,37.6469636 C103.800251,45.4399576 93.4269752,44.2177189 87.824233,45.1140273 C62.344087,42.6967107 29.8792543,29.9713046 9.30870536,51.2643324 C2.89005092,59.5049373 -2.21727719,69.9021145 1.7427762,81.5269626 C3.93302795,86.2616437 6.99677295,92.2837496 12.6223303,94.4044696 C15.2199949,95.6788571 19.5363988,95.6506098 22.5534271,94.3338513 Z" id="path2483"></path>
                        <path d="M44.1430515,159.367815 C57.5094539,157.543691 69.134302,152.722095 81.1850324,147.457234 C89.3506733,141.789306 100.10746,137.404457 103.923018,127.450545 C81.0568331,128.900935 59.1119447,138.545213 42.826293,156.350786 C42.8328116,157.217761 42.843676,158.505186 44.1430515,159.367815" id="path2487"></path>
                        <path d="M41.6388202,108.452066 C58.4763806,108.767132 72.21543,97.8810597 82.0465749,84.4331746 L80.7482858,83.5835829 C66.1064094,88.4290804 51.0386507,94.1426389 39.4605193,105.878303 C39.0411556,107.607907 40.7707591,108.027271 41.6388202,108.452066" id="path2489"></path>
                    </g>
                </g>
            </g>
        </g>
    </g>
</svg>