<?xml version="1.0"?>
<svg width="160" height="60" xmlns="http://www.w3.org/2000/svg" xmlns:svg="http://www.w3.org/2000/svg">
 <g>
  <title>Layer 1</title>
  <g id="layer1">
   <path d="m8.24335,7.03638l4.854,12.94403c0.30338,-0.674139 0.665709,-1.533689 1.0871,-2.57868c0.42132,-1.061829 0.85956,-2.17419 1.31463,-3.33715c0.0337,-0.10108 0.06739,-0.193789 0.10111,-0.27808c0.05057,-0.10114 0.09268,-0.20227 0.1264,-0.30341c0.623599,-1.61798 1.205079,-3.14325 1.74442,-4.57586c0.539339,-1.449471 0.88483,-2.427011 1.03653,-2.93268c0.06741,-0.18537 0.117981,-0.36231 0.151701,-0.53089c0.050539,-0.16851 0.07584,-0.31176 0.07584,-0.42981c0,-0.03369 0,-0.05896 0,-0.0758c0,-0.03369 -0.008461,-0.067451 -0.02527,-0.10114c-0.01688,-0.08423 -0.0506,-0.16009 -0.101141,-0.22754c-0.05056,-0.06738 -0.11801,-0.1264 -0.20224,-0.17694c-0.06744,-0.01684 -0.13485,-0.03369 -0.202269,-0.05059c-0.067411,-0.01685 -0.14328,-0.02527 -0.227541,-0.02527c-0.084259,-0.01685 -0.17697,-0.02527 -0.27807,-0.02527c-0.08429,0 -0.168549,0 -0.25281,0c-0.06744,0 -0.134859,-0.00843 -0.20224,-0.02527c-0.0506,-0.01685 -0.075871,-0.05902 -0.075871,-0.12647c0,-0.08423 0.04212,-0.13476 0.126411,-0.15167c0.084259,-0.03369 0.227539,-0.05054 0.429779,-0.05054c0.084249,0 0.160089,0 0.22753,0c0.084261,0 0.160101,0 0.227541,0c0.1854,0 0.362339,0.00843 0.53092,0.02527c0.18536,0 0.35391,0 0.50561,0c0.235929,0.01685 0.4382,0.03376 0.60675,0.05054c0.1854,0.00006 0.3118,0.00006 0.37921,0c0.033689,0.00006 0.117981,0.00006 0.25281,0c0.15167,-0.01678 0.320221,-0.03369 0.505651,-0.05054c0.084259,0 0.16852,0 0.25281,0c0.101099,0 0.20224,0 0.30337,0c0.11795,-0.01684 0.22751,-0.02527 0.32864,-0.02527c0.11799,0 0.227541,0 0.32868,0c0.13483,0 0.235929,0.01685 0.30337,0.05054c0.084261,0.01691 0.126381,0.05902 0.126411,0.12641c-0.000031,0.06744 -0.025301,0.11804 -0.07584,0.15173c-0.0506,0.01684 -0.126431,0.02527 -0.227541,0.02527c-0.06744,0 -0.19385,0.00842 -0.37921,0.02527c-0.185421,0.01684 -0.37924,0.06744 -0.58148,0.15167c-0.05057,0.01691 -0.101141,0.03375 -0.15167,0.0506c-0.033751,0.01684 -0.06745,0.04211 -0.101139,0.0758c-0.16855,0.11804 -0.362391,0.328681 -0.58148,0.63208c-0.20224,0.30335 -0.47192,0.88483 -0.80899,1.74439c-0.134861,0.35394 -0.480381,1.19665 -1.03653,2.52813c-0.556211,1.331491 -1.154541,2.772531 -1.794981,4.32312c-0.775299,1.8371 -1.44104,3.421391 -1.99723,4.752871c-0.556211,1.31464 -0.97753,2.28376 -1.26406,2.907349c-0.28653,0.60675 -0.48877,1.044991 -0.60675,1.31464c-0.11799,0.269651 -0.21912,0.44659 -0.30338,0.53088c-0.033719,0.016851 -0.05899,0.02527 -0.07584,0.02527c-0.01687,0.01685 -0.04214,0.02533 -0.07583,0.02533c-0.05057,0 -0.10114,-0.016909 -0.1517,-0.0506c-0.033731,-0.01684 -0.06742,-0.042109 -0.10111,-0.075859c-0.08429,-0.10108 -0.177,-0.26123 -0.27811,-0.480289c-0.084291,-0.21912 -0.21069,-0.530941 -0.37924,-0.935421l-6.19391,-15.52277c-0.06741,-0.16852 -0.13482,-0.32019 -0.20224,-0.45502c-0.06741,-0.15167 -0.13482,-0.2865 -0.20227,-0.40454c-0.18539,-0.33703 -0.38763,-0.573 -0.60675,-0.70788c-0.21909,-0.134769 -0.48877,-0.25275 -0.80899,-0.353889c-0.03369,0 -0.06741,0 -0.10113,0c-0.01685,-0.01684 -0.04212,-0.03369 -0.07584,-0.05059c-0.16855,-0.01685 -0.32022,-0.02527 -0.45505,-0.02527c-0.13485,-0.01685 -0.23596,-0.02527 -0.30337,-0.02527c-0.08429,0 -0.13486,-0.01685 -0.15171,-0.0506c-0.03372,-0.03369 -0.05056,-0.07581 -0.05056,-0.1264c0,-0.08423 0.05899,-0.13483 0.17697,-0.15168c0.11798,-0.01684 0.26968,-0.02527 0.45508,-0.02527c0.1011,0 0.20224,0 0.30337,0c0.10111,0 0.21066,0 0.32864,0c0.20228,0 0.40451,0.00843 0.60675,0.02527c0.20228,0 0.39609,0 0.58149,0c0.26965,0.01685 0.50561,0.03376 0.70785,0.05054c0.21912,0.00006 0.3624,0.00006 0.42981,0c0.06741,0.00006 0.17694,0.00006 0.32865,0c0.16854,-0.01678 0.36236,-0.03369 0.58148,-0.05054c0.15167,0 0.30337,0 0.45505,0c0.16854,-0.01684 0.33709,-0.02527 0.50561,-0.02527c0.08429,0 0.16013,0 0.22754,0c0.08429,0 0.16855,0 0.252839,0c0.23593,0 0.404481,0.01685 0.50561,0.05054c0.11798,0.01691 0.17697,0.05902 0.17697,0.12641c0,0.06744 -0.025299,0.11804 -0.07583,0.15173c-0.03372,0.01684 -0.09271,0.02527 -0.17697,0.02527c-0.06745,0 -0.14328,0 -0.227539,0c-0.067421,0 -0.13486,0.00842 -0.202241,0.02527c-0.10114,0 -0.20227,0.00842 -0.30341,0.02527c-0.08426,0.0169 -0.16009,0.04217 -0.22751,0.07586c-0.10113,0.0506 -0.17697,0.10956 -0.22754,0.17694c-0.05056,0.06745 -0.08429,0.13489 -0.10113,0.202271c0,0.01685 0,0.04218 0,0.07587c0,0.01685 0,0.03369 0,0.05054c0,0.16858 0.06741,0.43823 0.20227,0.80902c0.13483,0.37079 0.29492,0.80054 0.48035,1.28931l0,-0.02527m20.01571,4.247251l0,4.44952c0,1.23035 0,2.325869 0,3.28656c0.01685,0.94385 0.05899,1.685429 0.12641,2.2248c0.033691,0.370789 0.10955,0.682549 0.227541,0.93536c0.134819,0.25281 0.38763,0.404539 0.758419,0.45508c0.067411,0.01684 0.13483,0.033689 0.202271,0.050539c0.084261,0 0.16852,0 0.25281,0c0.134821,0.016901 0.26123,0.033751 0.379211,0.050591c0.134829,0 0.23596,0 0.30337,0c0.084259,0 0.13483,0.01685 0.151711,0.050539c0.033689,0.033751 0.050529,0.06744 0.050529,0.101141c0,0.06744 -0.03372,0.10955 -0.101101,0.1264c-0.06745,0.033751 -0.168549,0.0506 -0.303379,0.0506c-0.08429,0 -0.16855,0 -0.2528,0c-0.08429,0 -0.16855,0 -0.25284,0c-0.269661,0 -0.539341,-0.00843 -0.80899,-0.02533c-0.25281,0 -0.48877,0 -0.70789,0c-0.30337,-0.016851 -0.556181,-0.033691 -0.758421,-0.050541c-0.185429,0 -0.294949,0 -0.32868,0c-0.033689,0 -0.151669,0 -0.353939,0c-0.18539,0.01685 -0.40448,0.033689 -0.65729,0.050541c-0.06744,0 -0.134851,0 -0.202271,0c-0.06741,0 -0.14325,0 -0.227541,0c-0.185389,0 -0.370789,0 -0.556179,0c-0.18539,0.016899 -0.34552,0.02533 -0.48035,0.02533c-0.134819,0 -0.23596,-0.01685 -0.30337,-0.0506c-0.06741,-0.01685 -0.10111,-0.05896 -0.10111,-0.1264c0,-0.033701 0.01685,-0.06739 0.050541,-0.101141c0.03372,-0.033689 0.08429,-0.050539 0.151699,-0.050539c0.05057,0 0.10956,0 0.17697,0c0.067421,-0.01684 0.13483,-0.02527 0.20224,-0.02527c0.067421,-0.01684 0.13483,-0.02533 0.20228,-0.02533c0.067411,-0.01684 0.126371,-0.033689 0.176971,-0.050529c0.2528,-0.050541 0.42132,-0.202271 0.50561,-0.45508c0.101139,-0.252811 0.17697,-0.564581 0.227539,-0.93536c0.067411,-0.539371 0.10111,-1.280951 0.10111,-2.2248c0.01684,-0.960691 0.02529,-2.047791 0.02529,-3.261291l0,-4.47479c0,-1.88763 0,-3.151731 0,-3.792181c0,-0.65728 -0.016869,-1.17981 -0.05056,-1.56744c0,-0.01685 0,-0.02527 0,-0.02527c0,-0.01684 0,-0.03369 0,-0.0506c-0.01688,-0.43817 -0.09272,-0.76684 -0.227539,-0.98596c-0.13483,-0.219049 -0.34552,-0.36236 -0.632021,-0.429749c-0.03372,-0.01684 -0.06741,-0.02527 -0.101139,-0.02533c-0.03372,-0.01678 -0.06741,-0.02527 -0.10113,-0.02527c-0.117981,-0.01684 -0.227541,-0.02527 -0.328651,-0.02527c-0.10113,-0.01684 -0.185389,-0.02526 -0.2528,-0.02526c-0.05057,0 -0.101139,-0.00843 -0.151709,-0.02527c-0.033691,-0.03369 -0.05056,-0.07587 -0.050531,-0.12647c-0.000029,-0.08423 0.033691,-0.13476 0.101101,-0.15167c0.06741,-0.03369 0.16855,-0.05054 0.303379,-0.05054c0.134821,0 0.29495,0 0.480341,0c0.1854,0 0.37079,0.00843 0.55619,0.02527c0.08429,0 0.168549,0 0.2528,0c0.08429,0 0.168549,0 0.25284,0c0.25281,0.01685 0.471899,0.03375 0.65729,0.05054c0.202271,0.00006 0.32025,0.00006 0.353939,0c0.033731,0.00006 0.143251,0.00006 0.32868,0c0.20224,-0.01679 0.429781,-0.03369 0.682581,-0.05054c0.067419,0 0.13483,0 0.20224,0c0.067419,0 0.14328,0 0.227539,0c0.1854,0 0.37079,0 0.55619,0c0.18539,-0.01684 0.34552,-0.02527 0.480341,-0.02527c0.134829,0 0.23597,0.01685 0.303379,0.05054c0.06741,0.01691 0.10113,0.06744 0.10113,0.15167c0,0.0506 -0.025299,0.09277 -0.075829,0.12647c-0.03372,0.01684 -0.075871,0.02527 -0.126411,0.02527c-0.016869,0 -0.03372,0 -0.05056,0c0,0 -0.008459,0 -0.025299,0c-0.067421,0 -0.14325,0.00842 -0.22751,0.02526c-0.08429,0.01685 -0.19385,0.03376 -0.32868,0.05054c-0.33709,0.06745 -0.57303,0.21918 -0.70785,0.45508c-0.11801,0.21912 -0.19385,0.54779 -0.227541,0.98596c-0.000029,0.01691 -0.000029,0.03375 0,0.0506c-0.000029,0 -0.000029,0.00842 0,0.02527c-0.03372,0.38763 -0.05057,0.91015 -0.05057,1.56744c0,0.64044 0,1.91297 0,3.81745l0,-0.02527m16.871769,12.135069c-1.887699,0 -3.505711,-0.227539 -4.854038,-0.682619c-1.331482,-0.45508 -2.494411,-1.12921 -3.4888,-2.02252c-0.724762,-0.64044 -1.297791,-1.33148 -1.719139,-2.073061c-0.42136,-0.758419 -0.733162,-1.51685 -0.935402,-2.27533c-0.151699,-0.53931 -0.261261,-1.070189 -0.328671,-1.59271c-0.050568,-0.53931 -0.07584,-1.053349 -0.07584,-1.54218c0,-0.5393 0.06741,-1.188169 0.20224,-1.94665c0.151699,-0.75842 0.42136,-1.54212 0.809021,-2.35114c0.20224,-0.45507 0.455051,-0.90167 0.75843,-1.3399c0.303368,-0.43823 0.65731,-0.85956 1.061821,-1.2641c0.758427,-0.75842 1.744419,-1.39887 2.95792,-1.92139c1.230347,-0.52246 2.81464,-0.78369 4.752899,-0.78369c0.353909,0 0.74155,0.00842 1.16293,0.02527c0.438171,0.01691 0.88483,0.0506 1.339909,0.10114c0.20224,0.03375 0.396061,0.06744 0.581451,0.10113c0.20224,0.01685 0.396091,0.04211 0.581478,0.07581c0.488743,0.08429 0.935402,0.16015 1.339912,0.22754c0.421318,0.06744 0.834259,0.11804 1.2388,0.15173c0.134789,0.01684 0.219078,0.05054 0.2528,0.10107c0.050541,0.03375 0.07584,0.09271 0.07584,0.177c0,0.067451 -0.00845,0.16858 -0.025272,0.30335c-0.016869,0.11804 -0.033718,0.29498 -0.050568,0.53094c-0.016872,0.08429 -0.033722,0.17695 -0.05056,0.27808c-0.000042,0.08429 -0.000042,0.18543 0,0.30335c-0.01688,0.15173 -0.025299,0.32025 -0.025272,0.50567c-0.000027,0.16852 -0.008457,0.34552 -0.025299,0.53089c0,0.15173 0,0.31182 0,0.48034c0,0.15174 0,0.29499 0,0.42981c0,0.15167 -0.008461,0.2865 -0.025269,0.40448c-0.000031,0.10114 -0.000031,0.18543 0,0.25281c-0.01688,0.185431 -0.042179,0.320251 -0.075871,0.40448c-0.016842,0.084291 -0.06741,0.126471 -0.151669,0.126471c-0.084293,0 -0.14328,-0.04218 -0.176971,-0.126471c-0.01688,-0.101069 -0.025299,-0.2359 -0.025269,-0.40448c-0.000031,-0.05054 -0.000031,-0.092649 0,-0.1264c-0.000031,-0.05054 -0.000031,-0.10114 0,-0.15168c-0.033722,-0.45507 -0.14328,-0.88482 -0.328671,-1.28936c-0.185432,-0.42133 -0.429783,-0.75843 -0.733162,-1.01123c-0.438229,-0.38764 -1.1124,-0.72473 -2.022488,-1.0113c-0.91016,-0.28649 -1.921421,-0.42974 -3.033752,-0.42974c-1.483189,0 -2.654568,0.160089 -3.514099,0.48034c-0.842739,0.32025 -1.500061,0.6742 -1.971962,1.06183c-0.06744,0.05054 -0.126427,0.10114 -0.176968,0.15167c-0.05056,0.0506 -0.101131,0.10114 -0.151699,0.15168c-0.926971,0.87646 -1.542141,1.87085 -1.84552,2.98321c-0.286533,1.11237 -0.429783,2.31744 -0.429783,3.615231c0,2.410159 0.842682,4.559031 2.528141,6.44672c1.702271,1.870789 3.90173,2.80621 6.598419,2.80621c0.943821,0 1.78653,-0.0758 2.528103,-0.227541c0.741577,-0.168509 1.365208,-0.514029 1.870819,-1.036489c0.117989,-0.13483 0.227509,-0.28656 0.328678,-0.45508c0.101101,-0.16852 0.19379,-0.34552 0.278072,-0.53089c0.084259,-0.23596 0.15168,-0.45507 0.202278,-0.657351c0.067379,-0.202271 0.10952,-0.36236 0.1264,-0.480339c0.033691,-0.13483 0.067379,-0.227541 0.101101,-0.27808c0.033699,-0.06744 0.084259,-0.101131 0.151711,-0.101131c0.06741,0 0.109528,0.04211 0.1264,0.1264c0.033688,0.06744 0.050541,0.15167 0.050568,0.252811c-0.000027,0.0506 -0.025299,0.261229 -0.07584,0.632019c-0.050587,0.353941 -0.109589,0.74157 -0.176968,1.16296c-0.033722,0.16852 -0.06744,0.34552 -0.101131,0.53089c-0.033718,0.168571 -0.067448,0.328671 -0.101139,0.480341c-0.016869,0.08429 -0.033722,0.16016 -0.050571,0.227539c-0.016838,0.067451 -0.033718,0.13483 -0.050529,0.202271c-0.01688,0.050541 -0.033718,0.101141 -0.050568,0.15167c-0.000031,0.033699 -0.008453,0.06745 -0.025272,0.101139c-0.033749,0.084291 -0.075871,0.15167 -0.126431,0.202271c-0.03373,0.050541 -0.09272,0.10107 -0.176979,0.15167c-0.033718,0.01685 -0.075829,0.033689 -0.126369,0.050539c-0.033749,0.016851 -0.08429,0.042171 -0.151699,0.075871c-0.370823,0.134821 -0.859592,0.244381 -1.466312,0.328671c-0.589939,0.10107 -1.19669,0.16852 -1.820248,0.202209c-0.219151,0 -0.438232,0 -0.657322,0c-0.202271,0.01685 -0.40451,0.02533 -0.60675,0.02533l0,0m16.821201,-18.379519l0,10.693971c-0.000031,1.23035 -0.000031,2.325869 0,3.28656c0.016811,0.94385 0.05896,1.685429 0.1264,2.224789c0.033691,0.37079 0.109531,0.68256 0.227539,0.935371c0.1348,0.25281 0.387611,0.404539 0.758419,0.45508c0.067421,0.01684 0.13483,0.033689 0.20224,0.050529c0.084263,0 0.168552,0 0.252842,0c0.1348,0.016911 0.26123,0.03376 0.379211,0.0506c0.134827,0 0.235931,0 0.303375,0c0.084267,0 0.134834,0.01685 0.151672,0.050539c0.033691,0.033751 0.050568,0.06744 0.050568,0.101131c0,0.06745 -0.033714,0.10956 -0.101135,0.12641c-0.067413,0.033751 -0.168549,0.0506 -0.303371,0.0506c-0.084259,0 -0.168549,0 -0.252811,0c-0.084259,0 -0.168549,0 -0.252808,0c-0.26968,0 -0.53933,-0.00843 -0.80899,-0.02533c-0.252842,0 -0.4888,0 -0.707882,0c-0.303379,-0.016851 -0.556217,-0.033701 -0.758457,-0.050541c-0.18539,0 -0.294952,0 -0.32864,0c-0.033722,0 -0.151703,0 -0.353943,0c-0.185398,0.01684 -0.40451,0.033689 -0.657318,0.050541c-0.06741,0 -0.13483,0 -0.20224,0c-0.067451,0 -0.14328,0 -0.227539,0c-0.18539,0 -0.370792,0 -0.556183,0c-0.185398,0.016899 -0.34552,0.02533 -0.48035,0.02533c-0.134857,0 -0.235958,-0.01685 -0.303379,-0.0506c-0.06741,-0.01685 -0.101128,-0.05896 -0.101128,-0.12641c0,-0.033691 0.01685,-0.067381 0.050568,-0.101131c0.033722,-0.033689 0.084259,-0.050539 0.151699,-0.050539c0.050541,0 0.109531,0 0.176971,0c0.067379,-0.01684 0.13483,-0.02527 0.20224,-0.02527c0.06741,-0.01684 0.13483,-0.02533 0.20224,-0.02533c0.06741,-0.01684 0.126411,-0.033689 0.176971,-0.050529c0.252808,-0.050541 0.42136,-0.20228 0.50565,-0.45508c0.101101,-0.252811 0.176941,-0.564581 0.227509,-0.935371c0.06741,-0.53936 0.101131,-1.280939 0.101131,-2.224789c0.01685,-0.960691 0.025269,-2.047791 0.025299,-3.261291l0,-10.71924l-3.741669,0.05054c-0.775272,0.03375 -1.348331,0.10956 -1.719112,0.22754c-0.370789,0.10113 -0.657318,0.3034 -0.859558,0.60675c-0.13483,0.21911 -0.235962,0.38763 -0.303379,0.50561c-0.05056,0.10114 -0.092712,0.19385 -0.1264,0.27808c-0.033722,0.10113 -0.075871,0.16858 -0.1264,0.20227c-0.03373,0.03375 -0.07584,0.0506 -0.126411,0.05054c-0.033722,0.00006 -0.06741,-0.01679 -0.101131,-0.05054c-0.01685,-0.05054 -0.025269,-0.1095 -0.025269,-0.17694c0,-0.06745 0.025269,-0.22754 0.075829,-0.48035c0.050571,-0.25281 0.109562,-0.53088 0.176971,-0.83429c0,-0.01684 0,-0.03369 0,-0.0506c0.01685,-0.01678 0.025269,-0.03369 0.025269,-0.05053c0.067421,-0.2865 0.126411,-0.54773 0.176971,-0.78376c0.050571,-0.2359 0.084259,-0.37915 0.101139,-0.42974c0.01685,-0.0337 0.025272,-0.06739 0.025272,-0.10114c0.016838,-0.03369 0.033718,-0.06738 0.050568,-0.10113c0.016842,-0.06739 0.042141,-0.12641 0.075832,-0.17695c0.033718,-0.06738 0.067417,-0.10113 0.101139,-0.10113c0.050571,0 0.109558,0.01685 0.176968,0.05054c0.067413,0.03375 0.151672,0.06744 0.252811,0.10113c0.084259,0.03375 0.176971,0.06745 0.278099,0.10114c0.11795,0.01684 0.252811,0.03375 0.40448,0.05053c0.101143,0.01691 0.20224,0.03376 0.303383,0.0506c0.101128,0 0.202267,0 0.303368,0c0.28653,0.01685 0.55619,0.03369 0.809021,0.05054c0.269661,0.01691 0.46347,0.02533 0.581459,0.02527l9.480488,-0.02527c0.40448,0.01691 0.75,0.01691 1.03653,0c0.303383,-0.03369 0.55619,-0.06738 0.758461,-0.10114c0.185364,-0.03369 0.337059,-0.05896 0.455055,-0.0758c0.117981,-0.03369 0.20224,-0.05054 0.2528,-0.0506c0.067421,0.00006 0.101135,0.03375 0.101135,0.10113c0.016846,0.0506 0.025269,0.11799 0.025299,0.20228c-0.000031,0.15167 -0.008453,0.33709 -0.025299,0.55621c0,0.21911 0,0.44659 0,0.68255c0,0.0506 0,0.10956 0,0.17701c0,0.05053 0,0.10113 0,0.15167c-0.016876,0.28656 -0.033714,0.54779 -0.050568,0.78369c0,0.21912 0,0.36243 0,0.42981c0,0.11798 -0.016884,0.20227 -0.050568,0.25281c-0.033722,0.0506 -0.075836,0.07586 -0.126373,0.07586c-0.067436,0 -0.118011,-0.02526 -0.151703,-0.07586c-0.016876,-0.06739 -0.03373,-0.18537 -0.050568,-0.35395l-0.025269,-0.30334c-0.050598,-0.37079 -0.278137,-0.68262 -0.682617,-0.93543c-0.40451,-0.26965 -1.213501,-0.4129 -2.427002,-0.42981l-3.185421,-0.0758l0,0m8.232632,8.443911c0,-0.45502 0.033722,-0.92694 0.101135,-1.41571c0.084251,-0.50562 0.210663,-1.01123 0.379211,-1.51691c0.53933,-1.73596 1.575859,-3.320251 3.109619,-4.752871c1.55056,-1.44946 3.674194,-2.17419 6.37088,-2.17419c2.848351,0 5.21637,0.84271 7.104034,2.52813c1.887657,1.68543 2.831474,4.002871 2.831505,6.95234c-0.000031,2.83154 -0.918579,5.258539 -2.755638,7.281c-1.837128,2.02252 -4.281006,3.03381 -7.331612,3.03381c-3.000031,0 -5.27536,-0.83429 -6.825928,-2.502859c-1.533752,-1.685431 -2.47757,-3.530951 -2.831512,-5.536631c-0.050568,-0.32019 -0.092705,-0.63201 -0.126396,-0.93542c-0.016884,-0.320189 -0.025299,-0.63202 -0.025299,-0.935369l0,-0.025331m2.401726,-0.70782c0,2.96631 0.775299,5.325931 2.325874,7.078731c1.567436,1.752869 3.488831,2.62928 5.76416,2.62928c0.387627,0 0.834259,-0.042181 1.339897,-0.126411c0.505623,-0.10113 1.019661,-0.26965 1.542152,-0.50561c1.028107,-0.48877 1.963501,-1.339911 2.806236,-2.553471c0.859535,-1.230349 1.289314,-3.059019 1.289345,-5.486019c-0.000031,-3.03375 -0.783722,-5.34278 -2.351173,-6.92707c-1.550591,-1.60113 -3.328697,-2.40173 -5.334351,-2.40173c-2.106781,0 -3.868042,0.69946 -5.283775,2.09833c-1.398933,1.38208 -2.098366,3.455141 -2.098366,6.219241l0,-0.02527m22.609039,2.957891l0,-4.449531c0,-1.88763 0,-3.15173 0,-3.79217c0,-0.65729 -0.016838,-1.17981 -0.050568,-1.56745c0,-0.01684 0,-0.02527 0,-0.02527c0,-0.01684 0,-0.03369 0,-0.05059c-0.016869,-0.43818 -0.101128,-0.76685 -0.2528,-0.98597c-0.134857,-0.21905 -0.412941,-0.37079 -0.83429,-0.45507c-0.050568,-0.01679 -0.117989,-0.02527 -0.20224,-0.02527c-0.08429,-0.01685 -0.168549,-0.02527 -0.252838,-0.02527c-0.067421,-0.01685 -0.14325,-0.02527 -0.227509,-0.02527c-0.067413,0 -0.126411,0 -0.176971,0c-0.050575,0 -0.101143,-0.00842 -0.151711,-0.02527c-0.033691,-0.03369 -0.05056,-0.07587 -0.05056,-0.12647c0,-0.08422 0.033722,-0.13476 0.101128,-0.15167c0.067413,-0.03369 0.168549,-0.05053 0.303383,-0.05053c0.134819,0 0.269676,0 0.40451,0c0.151665,0 0.303368,0 0.45507,0c0.168518,0.01684 0.328644,0.02526 0.480316,0.02526c0.168549,0 0.328674,0 0.480354,0c0.269676,0.01685 0.497185,0.03376 0.68261,0.05054c0.20224,0.00006 0.320229,0.00006 0.35392,0c0.067406,0.00006 0.219109,0.00006 0.45507,0c0.252808,-0.01678 0.539337,-0.03369 0.859558,-0.05054c0.050568,0 0.101135,0 0.151711,0c0.067406,0 0.126396,0 0.176971,0c0.252769,0 0.497185,0 0.733147,0c0.235931,-0.01684 0.438202,-0.02526 0.60675,-0.02526c0.185356,0 0.362343,0.00842 0.530876,0.02526c0.185402,0 0.362373,0 0.530922,0c0.640472,0.03376 1.264069,0.13483 1.870819,0.30341c0.60675,0.15167 1.171356,0.4129 1.693855,0.78369c0.101128,0.06745 0.20224,0.15173 0.303368,0.25281c0.117981,0.10113 0.235962,0.21912 0.353943,0.35394c0.269653,0.32025 0.514038,0.72473 0.733154,1.2135c0.235962,0.47193 0.353943,1.0113 0.353943,1.618051c0,0.92694 -0.227539,1.87078 -0.682594,2.83148c-0.438225,0.96069 -1.23037,1.9635 -2.376427,3.00848c1.044952,1.33148 1.997192,2.54498 2.856781,3.6405c0.876396,1.09552 1.676971,2.03937 2.401703,2.83149c0.69101,0.72473 1.29776,1.19665 1.820244,1.41577c0.522499,0.21911 0.943855,0.353941 1.264076,0.40448c0.23597,0.033751 0.43821,0.059021 0.606743,0.075861c0.185402,0 0.311806,0 0.379257,0c0.067375,0 0.117943,0.01685 0.151665,0.050539c0.050529,0.033751 0.075829,0.06744 0.075829,0.101141c0,0.06744 -0.042137,0.109549 -0.126366,0.1264c-0.08432,0.033749 -0.244408,0.0506 -0.480385,0.0506l-1.794945,0c-0.69104,0 -1.230385,-0.025331 -1.618011,-0.075871c-0.370819,-0.06744 -0.716309,-0.185421 -1.03653,-0.353941c-0.000031,0 -0.008453,0 -0.025269,0c-0.000031,-0.01685 -0.008453,-0.025269 -0.025299,-0.025269c-0.151703,-0.084291 -0.294952,-0.177 -0.429787,-0.27808c-0.13485,-0.101131 -0.269676,-0.210691 -0.404503,-0.328671c-0.387665,-0.337101 -0.783722,-0.76685 -1.188202,-1.28937c-0.40451,-0.522461 -0.868011,-1.129211 -1.390472,-1.820251c-0.08429,-0.101139 -0.168549,-0.21069 -0.252808,-0.328669c-0.08429,-0.11792 -0.168579,-0.22748 -0.252838,-0.328621c-0.033722,-0.0506 -0.075836,-0.10113 -0.126404,-0.15173c-0.033722,-0.067381 -0.067406,-0.1264 -0.101143,-0.176939c-0.421349,-0.55615 -0.817406,-1.087101 -1.188194,-1.59271c-0.353943,-0.522461 -0.63205,-0.91016 -0.83429,-1.162971c-0.016876,-0.01684 -0.033722,-0.02527 -0.050575,-0.02527c0,-0.01684 -0.008415,-0.03369 -0.025261,-0.05053c-0.03373,-0.01685 -0.075867,-0.03376 -0.126404,-0.0506c-0.033722,-0.01685 -0.075874,-0.02527 -0.126404,-0.02527l-3.109619,-0.075871c-0.067413,0.016911 -0.117981,0.04218 -0.151672,0.075871c-0.016876,0.033689 -0.025299,0.08429 -0.025299,0.15167l0,0.58148c0,1.23035 0,2.32587 0,3.286559c0.016838,0.943851 0.05899,1.685431 0.126434,2.2248c0.033684,0.370781 0.109528,0.68255 0.227509,0.93536c0.134827,0.252811 0.387627,0.404541 0.758446,0.45508c0.067421,0.01684 0.134834,0.033691 0.20224,0.050531c0.084267,0 0.168526,0 0.252815,0c0.134827,0.016909 0.26123,0.03376 0.379211,0.0506c0.134857,0 0.235954,0 0.303406,0c0.084259,0 0.134789,0.01685 0.151672,0.050539c0.033691,0.033751 0.050568,0.06744 0.050568,0.10113c0,0.067451 -0.033722,0.10956 -0.101143,0.126411c-0.067406,0.033749 -0.168549,0.0506 -0.303368,0.0506c-0.084259,0 -0.168549,0 -0.252808,0c-0.08429,0 -0.168549,0 -0.252808,0c-0.269684,0 -0.539337,-0.00843 -0.809021,-0.025331c-0.252815,0 -0.48877,0 -0.707855,0c-0.303375,-0.01685 -0.556221,-0.033689 -0.758461,-0.050539c-0.185387,0 -0.294945,0 -0.328636,0c0,0 -0.092712,0 -0.278107,0c-0.168556,0.01685 -0.379211,0.033689 -0.632027,0.050539c-0.08429,0 -0.168549,0 -0.2528,0c-0.067444,0 -0.14328,0 -0.227539,0c-0.185425,0.016901 -0.362366,0.025331 -0.530914,0.025331c-0.168556,0 -0.320221,0 -0.455086,0c-0.134819,0 -0.235954,-0.016851 -0.303337,-0.0506c-0.067444,-0.016851 -0.101143,-0.05896 -0.101143,-0.126411c0,-0.033689 0.016853,-0.067379 0.050575,-0.10113c0.033684,-0.033689 0.084259,-0.050539 0.151665,-0.050539c0.050575,0 0.109566,0 0.176979,0c0.067413,-0.01684 0.134827,-0.02527 0.20224,-0.02527c0.067444,-0.01684 0.134827,-0.02533 0.202271,-0.02533c0.067413,-0.01684 0.126404,-0.033691 0.176971,-0.050531c0.252808,-0.050539 0.421318,-0.202269 0.505608,-0.45508c0.101143,-0.25281 0.176971,-0.564579 0.227547,-0.935369c0.067406,-0.53936 0.101105,-1.280939 0.101105,-2.224791c0.016846,-0.96069 0.025299,-2.047789 0.025299,-3.261289l0,-0.02527m2.022491,-10.51703l0,8.26697c0,0.084291 0.008423,0.151731 0.025299,0.202271c0.033691,0.0506 0.084251,0.09271 0.151672,0.12641c0.185387,0.10113 0.505608,0.19384 0.960693,0.27807c0.471916,0.06745 0.969116,0.109619 1.491608,0.12641c0.033691,0.00006 0.067383,0.00006 0.101097,0c0.03373,0.00006 0.067421,0.00006 0.101143,0c0.134827,0.00006 0.269646,0.00006 0.40451,0c0.151672,-0.01679 0.303337,-0.04212 0.455048,-0.075809c0.168549,-0.03369 0.33709,-0.075871 0.505638,-0.1264c0.185371,-0.067451 0.362343,-0.160101 0.530922,-0.27808c0.438171,-0.303411 0.800529,-0.783751 1.087059,-1.44104c0.303383,-0.674191 0.455055,-1.49158 0.455086,-2.452331c-0.000031,-1.58429 -0.396095,-2.82306 -1.188232,-3.71631c-0.775299,-0.89325 -1.837105,-1.33991 -3.185432,-1.33997c-0.370811,0.00006 -0.716301,0.016911 -1.03653,0.0506c-0.303398,0.03369 -0.522491,0.06744 -0.65731,0.10114c-0.067451,0.01684 -0.117981,0.05053 -0.151711,0.10113c-0.033722,0.05054 -0.05056,0.11798 -0.05056,0.20221l0,-0.02527m18.921532,6.06751l0,4.44952c0,1.23035 0,2.32587 0,3.286559c0.016853,0.943851 0.05899,1.685421 0.126411,2.224791c0.033691,0.37079 0.109528,0.68256 0.227539,0.935369c0.134819,0.2528 0.387627,0.404541 0.758423,0.45507c0.067406,0.01685 0.134827,0.033689 0.20224,0.050541c0.08429,0 0.168549,0 0.252838,0c0.134827,0.016909 0.26123,0.033749 0.379211,0.0506c0.134827,0 0.235924,0 0.303368,0c0.084259,0 0.134827,0.01684 0.151711,0.050539c0.033691,0.033751 0.050529,0.06744 0.050529,0.10113c0,0.06744 -0.033722,0.10956 -0.101128,0.1264c-0.067413,0.03376 -0.168556,0.0506 -0.303352,0.0506c-0.08429,0 -0.168541,0 -0.2528,0c-0.08429,0 -0.168549,0 -0.252838,0c-0.269653,0 -0.539345,-0.008419 -0.80899,-0.02533c-0.252846,0 -0.48877,0 -0.707893,0c-0.303368,-0.01684 -0.556175,-0.033689 -0.758446,-0.050529c-0.185394,0 -0.294922,0 -0.328644,0c-0.03373,0 -0.151711,0 -0.353951,0c-0.185387,0.01684 -0.40451,0.033689 -0.657318,0.050529c-0.067413,0 -0.134819,0 -0.20224,0c-0.067413,0 -0.14325,0 -0.227531,0c-0.185402,0 -0.370789,0 -0.55619,0c-0.185387,0.016911 -0.34552,0.02533 -0.480339,0.02533c-0.134827,0 -0.23597,-0.01684 -0.303383,-0.0506c-0.067406,-0.01684 -0.101097,-0.05896 -0.101097,-0.1264c0,-0.033689 0.016838,-0.067379 0.050529,-0.10113c0.033722,-0.033699 0.08429,-0.050539 0.151711,-0.050539c0.05056,0 0.10955,0 0.176971,0c0.067406,-0.016851 0.134819,-0.02527 0.20224,-0.02527c0.067406,-0.01685 0.134819,-0.02533 0.202271,-0.02533c0.067375,-0.016851 0.126366,-0.033691 0.176971,-0.050541c0.252808,-0.050529 0.421318,-0.202271 0.505608,-0.45508c0.101112,-0.2528 0.176971,-0.564569 0.227539,-0.93536c0.067421,-0.53937 0.101112,-1.280939 0.101112,-2.224791c0.016838,-0.96069 0.025299,-2.047789 0.025299,-3.261289l0,-4.4748c0,-1.88763 0,-3.151731 0,-3.792171c0,-0.65729 -0.016884,-1.17981 -0.050568,-1.56744c0,-0.01685 0,-0.02527 0,-0.02527c0,-0.01685 0,-0.03369 0,-0.0506c-0.016884,-0.43817 -0.092712,-0.76685 -0.227547,-0.98596c-0.134827,-0.21906 -0.34552,-0.36237 -0.632019,-0.42975c-0.033714,-0.01685 -0.067436,-0.02527 -0.101128,-0.02533c-0.03373,-0.01679 -0.067421,-0.02527 -0.101143,-0.02527c-0.117981,-0.01685 -0.227539,-0.02527 -0.328636,-0.02527c-0.101143,-0.01685 -0.185402,-0.02527 -0.252838,-0.02527c-0.050545,0 -0.101112,-0.00842 -0.151672,-0.02527c-0.033691,-0.03369 -0.050568,-0.07587 -0.050568,-0.12646c0,-0.08423 0.033714,-0.13477 0.101128,-0.15168c0.067421,-0.03369 0.168549,-0.05053 0.303383,-0.05053c0.134827,0 0.294945,0 0.480347,0c0.185387,0 0.370781,0.00842 0.556183,0.02527c0.08429,0 0.168549,0 0.252808,0c0.08429,0 0.168549,0 0.2528,0c0.252808,0.01684 0.471931,0.03375 0.657318,0.05053c0.20224,0.00006 0.320221,0.00006 0.353951,0c0.033722,0.00006 0.14325,0.00006 0.328644,0c0.202271,-0.01678 0.42981,-0.03369 0.682617,-0.05053c0.067413,0 0.134819,0 0.20224,0c0.067413,0 0.14325,0 0.227539,0c0.185394,0 0.370781,0 0.556183,0c0.185387,-0.01685 0.34552,-0.02527 0.480347,-0.02527c0.134819,0 0.235962,0.01684 0.303368,0.05053c0.067413,0.01691 0.101143,0.06745 0.101143,0.15168c0,0.05059 -0.025299,0.09277 -0.075836,0.12646c-0.033722,0.01685 -0.075874,0.02527 -0.126404,0.02527c-0.016876,0 -0.03373,0 -0.050568,0c0,0 -0.008461,0 -0.025299,0c-0.067413,0 -0.14325,0.00842 -0.227539,0.02527c-0.084267,0.01685 -0.193825,0.03375 -0.328644,0.05054c-0.337097,0.06744 -0.573059,0.21917 -0.707893,0.45507c-0.117973,0.21912 -0.193817,0.5478 -0.227539,0.98597c0,0.0169 0,0.03375 0,0.05059c0,0 0,0.00843 0,0.02527c-0.033684,0.38764 -0.050537,0.91016 -0.050537,1.56745c0,0.64044 0,1.91296 0,3.81744l0,-0.02527m6.648621,9.00019l5.738876,-15.69971c0.117966,-0.32019 0.210648,-0.54773 0.278061,-0.68262c0.067413,-0.13483 0.134857,-0.21905 0.202271,-0.25281c-0.000031,-0.01684 0.008438,-0.02527 0.025269,-0.02527c0.016846,0 0.033691,0 0.050568,0c0.016861,0 0.033691,0 0.050583,0c0.01683,0 0.025269,0.00843 0.025269,0.02527c0.067398,0.01691 0.134811,0.09272 0.202271,0.22754c0.067398,0.11798 0.16008,0.3371 0.278061,0.65729c0.117981,0.28656 0.497208,1.27252 1.13768,2.95795c0.640427,1.68542 1.33989,3.505671 2.098358,5.460751c0.5056,1.33148 0.99437,2.61243 1.466309,3.84277c0.48877,1.213511 0.884811,2.20789 1.188232,2.98316c0.455048,1.129271 0.859528,1.862431 1.213486,2.19952c0.370773,0.32019 0.691025,0.522459 0.960663,0.60675c0.18541,0.067389 0.370789,0.10956 0.556213,0.12641c0.185364,0.01684 0.337067,0.02527 0.455048,0.02527c0.084259,0 0.14325,0.008419 0.176971,0.025259c0.050568,0.01685 0.075836,0.059031 0.075867,0.12641c-0.000031,0.06744 -0.050598,0.10956 -0.151688,0.1264c-0.101151,0.033751 -0.219131,0.0506 -0.353958,0.0506c-0.185394,0 -0.63205,0 -1.339905,0c-0.707886,0 -1.474747,-0.01685 -2.300598,-0.0506c-0.050568,0 -0.109558,0 -0.176971,0c-0.050568,0 -0.10112,0 -0.151657,0c-0.033752,0 -0.067459,0 -0.101151,0c-0.033722,0 -0.067444,0 -0.10112,0c-0.168564,-0.01684 -0.303391,-0.025269 -0.40451,-0.025269c-0.101151,-0.01684 -0.151703,-0.05896 -0.151672,-0.1264c-0.000031,-0.050541 0.01683,-0.084291 0.050552,-0.101141c0.033707,-0.033689 0.075851,-0.05896 0.126419,-0.075859c-0.000031,0 -0.000031,0 0,0c0.01683,0 0.033691,-0.00843 0.050568,-0.02527c0.033691,-0.01685 0.067383,-0.050541 0.101105,-0.101141c0.050568,-0.067379 0.067398,-0.151669 0.050568,-0.2528c0,-0.01685 0,-0.033699 0,-0.050539c0,-0.01685 0,-0.033689 0,-0.050541c0,-0.033749 -0.008423,-0.06744 -0.025269,-0.10113c-0.000031,-0.03376 -0.008453,-0.06745 -0.025299,-0.101139l-2.351166,-6.244511c-0.016846,-0.033689 -0.042145,-0.05896 -0.075836,-0.0758c-0.033722,-0.033689 -0.084259,-0.0506 -0.151672,-0.0506l-5.435493,-0.02527c-0.067413,0.01685 -0.117981,0.042181 -0.151703,0.075871c-0.033684,0.033689 -0.067406,0.08423 -0.101105,0.15167l-1.516869,4.44952c-0.118011,0.33704 -0.210701,0.648869 -0.278114,0.935369c-0.050568,0.28656 -0.075836,0.547791 -0.075836,0.783751c0,0.21912 0.075836,0.38764 0.227539,0.505619c0.168518,0.10113 0.34549,0.16851 0.530891,0.202271c0.033714,0.01684 0.067406,0.02527 0.101128,0.02527c0.033722,0 0.067421,0 0.101135,0l0.252815,-0.02527c0.084251,0.01684 0.14325,0.04211 0.176971,0.0758c0.05056,0.01685 0.075829,0.0506 0.075829,0.101139c0,0.06744 -0.033722,0.10956 -0.101135,0.1264c-0.067413,0.033751 -0.160095,0.0506 -0.278076,0.0506c-0.117981,0 -0.244408,-0.008419 -0.379242,-0.02533c-0.134827,0 -0.278076,0 -0.429779,0c-0.050537,0 -0.101128,0 -0.151672,0c-0.050568,0 -0.101135,0 -0.151695,0c-0.185402,-0.01685 -0.362373,-0.033689 -0.530891,-0.050539c-0.151703,0 -0.261261,0 -0.328667,0c-0.067421,0 -0.20224,0 -0.40451,0c-0.185402,0.01685 -0.41291,0.033689 -0.682594,0.050539c-0.185387,0 -0.379211,0 -0.581451,0c-0.202271,0.016911 -0.412926,0.02533 -0.63205,0.02533c-0.084259,0 -0.176971,0 -0.278076,0c-0.08429,0 -0.168549,0 -0.252831,0c-0.168549,0 -0.28653,-0.01685 -0.35392,-0.0506c-0.08429,-0.01684 -0.126434,-0.05896 -0.126434,-0.1264c0,-0.050539 0.025307,-0.08429 0.075844,-0.101139c0.033722,-0.033689 0.08429,-0.050529 0.151703,-0.050529c0.050568,0 0.109558,0 0.176964,0c0.067413,0 0.134834,-0.00843 0.20224,-0.02527c0.050575,0 0.101135,0 0.151703,0c0.067421,-0.01685 0.126411,-0.02533 0.176971,-0.02533c0.589905,-0.08423 1.03653,-0.345461 1.339905,-0.783691c0.303375,-0.43824 0.564606,-0.96912 0.783722,-1.59272l0,-0.025269m3.539375,-5.587151l4.82872,0c0.067429,0.01684 0.101151,0.00842 0.101151,-0.02533c0.01683,-0.03369 0.01683,-0.07581 0,-0.12641l-2.401733,-6.85119c-0.067413,-0.168581 -0.134827,-0.25281 -0.20224,-0.252871c-0.050568,0.00006 -0.109558,0.09271 -0.176987,0.27813l-2.224754,6.800661c-0.016838,0.033689 -0.025269,0.059019 -0.025269,0.07587c0,0.01685 0,0.03369 0,0.05054c0,0.01684 0.00843,0.03369 0.025269,0.0506c0.033722,0.01684 0.05899,0.02526 0.075844,0.02526l0,-0.02526m13.422089,-8.83039c-0.000031,-0.28644 0.104141,-0.53387 0.3125,-0.74219c0.208313,-0.22137 0.462219,-0.33203 0.761719,-0.33203c0.312469,0 0.566406,0.13672 0.761719,0.41016c0.208313,0.27344 0.3125,0.59241 0.3125,0.95703c0,0.638 -0.15625,1.18488 -0.46875,1.64063c-0.2995,0.45575 -0.807327,0.91143 -1.523438,1.36718c-0.156281,0.03907 -0.201859,-0.013061 -0.136719,-0.15625c0.46875,-0.49481 0.748688,-0.878901 0.839844,-1.15234c0.104156,-0.2865 0.143219,-0.50781 0.117188,-0.66412c-0.013031,-0.16925 -0.091171,-0.27338 -0.234375,-0.3125c-0.130219,-0.05201 -0.286469,-0.16925 -0.46875,-0.35151c-0.182327,-0.19531 -0.273468,-0.41668 -0.273438,-0.66406m10.808075,17.55243c-0.589905,0 -1.171387,-0.0506 -1.744415,-0.15173c-0.573059,-0.101141 -1.120819,-0.269661 -1.64328,-0.505621c-0.016846,-0.01684 -0.033722,-0.02527 -0.050568,-0.02527c-0.016861,-0.01684 -0.033722,-0.025269 -0.050568,-0.025269c-0.134842,-0.084291 -0.219116,-0.177 -0.252823,-0.278131c-0.01683,-0.117979 -0.025269,-0.328619 -0.025269,-0.632019c0,-0.353941 0.008438,-0.69104 0.025269,-1.01123c0.016861,-0.32025 0.033691,-0.59833 0.050583,-0.83429c0,-0.185369 0.008408,-0.34552 0.025269,-0.48035c0.016846,-0.15167 0.025299,-0.26965 0.025299,-0.353939c0.016846,-0.13483 0.033691,-0.23596 0.050537,-0.30335c0.033722,-0.06744 0.08429,-0.10113 0.151703,-0.10113c0.084259,0 0.134827,0.025269 0.151703,0.0758c0.016846,0.03376 0.025269,0.101139 0.025269,0.20228c0,0.117979 0,0.261229 0,0.42981c0.016846,0.15167 0.042145,0.32019 0.075836,0.50561c0.185394,0.926941 0.640472,1.59271 1.365204,1.99719c0.741577,0.38764 1.533707,0.58148 2.376434,0.58148c1.129211,0 1.9888,-0.311821 2.578705,-0.935421c0.60672,-0.64044 0.943817,-1.339909 1.01123,-2.09833c0.016846,-0.050539 0.025269,-0.10113 0.025299,-0.15167c-0.000031,-0.06744 -0.000031,-0.1264 0,-0.177c-0.000031,-0.421329 -0.050568,-0.80896 -0.151703,-1.162909c-0.084259,-0.353941 -0.227539,-0.699461 -0.429779,-1.03656c-0.235962,-0.353941 -0.54776,-0.716301 -0.93541,-1.08709c-0.370789,-0.37079 -0.83429,-0.79212 -1.390457,-1.26404l-1.137665,-0.96069c-1.078674,-0.87641 -1.853973,-1.66858 -2.325897,-2.376471c-0.471893,-0.72473 -0.766861,-1.42419 -0.884827,-2.09833c-0.033722,-0.16851 -0.05899,-0.328671 -0.075867,-0.48034c0,-0.16852 0,-0.3371 0,-0.50562c0,-1.34833 0.471924,-2.443851 1.415771,-3.28662c0.943832,-0.84265 2.216309,-1.26404 3.817474,-1.26404c0.48877,0 0.918549,0.02527 1.289337,0.07587c0.38765,0.03369 0.741562,0.09271 1.061829,0.17694c0.235962,0.0506 0.412933,0.08429 0.530914,0.10114c0.134827,0.01684 0.252808,0.02526 0.353928,0.02526c0.10112,0 0.168533,0.01685 0.20224,0.05054c0.033691,0.01691 0.050583,0.05902 0.050583,0.12641c0,0.03375 -0.008453,0.10961 -0.025284,0.22753c-0.000031,0.11805 -0.008438,0.28656 -0.025299,0.50568c-0.016861,0.21912 -0.033707,0.48877 -0.050552,0.80896c0,0.32025 0,0.69946 0,1.1377c0,0.20227 -0.016846,0.35394 -0.050568,0.45501c-0.016861,0.08429 -0.05899,0.12647 -0.126419,0.12641c-0.067398,0.00006 -0.117981,-0.02527 -0.151672,-0.07581c-0.016861,-0.06744 -0.033707,-0.15167 -0.050568,-0.25281c0,-0.06744 -0.016861,-0.15167 -0.050552,-0.25281c-0.016876,-0.11798 -0.033737,-0.23596 -0.050568,-0.35394c-0.033722,-0.13483 -0.075851,-0.26123 -0.126419,-0.37921c-0.033722,-0.11798 -0.067413,-0.21069 -0.101089,-0.27814c-0.033722,-0.06738 -0.092712,-0.15167 -0.176971,-0.2528c-0.08429,-0.11799 -0.210709,-0.24433 -0.379242,-0.37922c-0.235977,-0.18536 -0.564606,-0.34552 -0.985977,-0.48034c-0.40451,-0.15168 -0.943848,-0.22748 -1.618011,-0.22754c-0.876389,0.00006 -1.618011,0.26129 -2.224731,0.78375c-0.58992,0.50561 -0.884857,1.22192 -0.884857,2.14886c0,0.25287 0.025269,0.48884 0.075851,0.70789c0.050568,0.21912 0.126389,0.438231 0.227539,0.657351c0.20224,0.40448 0.522461,0.82587 0.960678,1.26404c0.438202,0.43823 1.044952,0.97754 1.820251,1.61804l0.707901,0.53088c0.943817,0.75843 1.676956,1.44947 2.199448,2.07306c0.522461,0.60675 0.901672,1.20508 1.13768,1.79499c0.134781,0.33709 0.227509,0.68261 0.278061,1.036501c0.050568,0.33709 0.075851,0.69104 0.075882,1.061819c-0.000031,0.28656 -0.042191,0.640511 -0.126434,1.061831c-0.067429,0.404539 -0.210678,0.825869 -0.429779,1.264099c-0.168549,0.33704 -0.379211,0.66571 -0.632019,0.98596c-0.252838,0.32019 -0.573059,0.615181 -0.960709,0.88483c-0.539322,0.37079 -1.13765,0.632019 -1.794983,0.783689c-0.657318,0.168581 -1.331467,0.252871 -2.022476,0.252871l0,0m-116.734348,33.64295c-0.589909,0 -1.171391,-0.050602 -1.744419,-0.151741c-0.573059,-0.10107 -1.120819,-0.26965 -1.64328,-0.505608c-0.01687,-0.016853 -0.03372,-0.025272 -0.05057,-0.025272c-0.01687,-0.01685 -0.03372,-0.025269 -0.05056,-0.025269c-0.13483,-0.08429 -0.21912,-0.177002 -0.25281,-0.27808c-0.016851,-0.117981 -0.025301,-0.328671 -0.025301,-0.63208c0,-0.353939 0.00845,-0.690979 0.025301,-1.01123c0.01684,-0.320251 0.033689,-0.59832 0.05057,-0.83429c0,-0.18536 0.008419,-0.34552 0.025259,-0.480339c0.016851,-0.15168 0.025301,-0.269661 0.025301,-0.353951c0.01685,-0.134823 0.033689,-0.235962 0.050539,-0.303341c0.03372,-0.067451 0.084291,-0.101139 0.151701,-0.101139c0.084259,0 0.13483,0.025269 0.15168,0.075809c0.01687,0.033749 0.02529,0.101128 0.02529,0.202271c0,0.117977 0,0.26123 0,0.42981c0.01685,0.151669 0.04212,0.32019 0.07584,0.505619c0.18539,0.926941 0.640471,1.592709 1.36517,1.997189c0.741611,0.387691 1.53376,0.581482 2.376472,0.581482c1.129208,0 1.9888,-0.311771 2.578697,-0.935429c0.60672,-0.640442 0.943821,-1.339901 1.01123,-2.09832c0.01685,-0.050541 0.025299,-0.101143 0.025299,-0.15168c0,-0.06744 0,-0.1264 0,-0.177002c0,-0.421318 -0.050598,-0.80896 -0.151699,-1.162899c-0.084259,-0.353939 -0.227539,-0.699459 -0.429779,-1.03656c-0.235962,-0.353939 -0.54776,-0.716312 -0.93539,-1.087101c-0.370819,-0.370789 -0.83429,-0.79211 -1.390511,-1.264038l-1.13763,-0.960693c-1.078671,-0.8764 -1.85397,-1.668579 -2.325869,-2.376457c-0.471951,-0.724731 -0.76687,-1.424141 -0.88485,-2.098331c-0.033731,-0.168518 -0.05899,-0.328678 -0.07584,-0.48035c-0.000031,-0.168518 -0.000031,-0.337097 0,-0.505608c-0.000031,-1.348331 0.471889,-2.443851 1.415739,-3.286633c0.943821,-0.842648 2.216309,-1.26403 3.817471,-1.26403c0.48877,0 0.918549,0.025272 1.289341,0.075863c0.387638,0.033699 0.741577,0.09272 1.061829,0.176949c0.235962,0.050591 0.412899,0.08429 0.53091,0.101131c0.13483,0.01685 0.252811,0.025269 0.35392,0.025269c0.101131,0 0.168549,0.016911 0.202271,0.050541c0.033688,0.016899 0.050529,0.059021 0.050568,0.126461c-0.000038,0.033688 -0.008457,0.109558 -0.025299,0.227478c0,0.118042 -0.00843,0.28656 -0.025269,0.50568c-0.01688,0.219109 -0.033722,0.48877 -0.050571,0.80896c0,0.320251 0,0.699459 0,1.137691c0,0.202271 -0.01688,0.353939 -0.050568,0.455017c-0.016872,0.084293 -0.05899,0.126461 -0.1264,0.126461c-0.067451,0 -0.117981,-0.025269 -0.151672,-0.075859c-0.01688,-0.06739 -0.03373,-0.15168 -0.050568,-0.252811c-0.000031,-0.06739 -0.01688,-0.151669 -0.050571,-0.252808c-0.01688,-0.117981 -0.033722,-0.235962 -0.050571,-0.353943c-0.033718,-0.134827 -0.075871,-0.261227 -0.1264,-0.379208c-0.033718,-0.117992 -0.067448,-0.210701 -0.101139,-0.278141c-0.033691,-0.067379 -0.092678,-0.151669 -0.176941,-0.252811c-0.08432,-0.11792 -0.21069,-0.24432 -0.379238,-0.379208c-0.235962,-0.185371 -0.56464,-0.345459 -0.985962,-0.48035c-0.40451,-0.151669 -0.943848,-0.227482 -1.618008,-0.227539c-0.876442,0.000057 -1.618011,0.261288 -2.22477,0.78376c-0.589901,0.505608 -0.884823,1.22192 -0.884823,2.148918c0,0.252811 0.025272,0.48877 0.075832,0.707832c0.050568,0.21917 0.126408,0.438229 0.227539,0.657349c0.20224,0.40448 0.522461,0.825859 0.960701,1.26403c0.438198,0.43824 1.044949,0.9776 1.820248,1.61805l0.707851,0.53088c0.943851,0.75848 1.676998,1.449459 2.19949,2.073059c0.522469,0.60675 0.90168,1.205082 1.137669,1.794979c0.1348,0.337101 0.227512,0.682621 0.27808,1.03656c0.05056,0.33704 0.075832,0.690983 0.075832,1.061771c0,0.28656 -0.042141,0.640499 -0.1264,1.061829c-0.067421,0.404541 -0.210701,0.825871 -0.429779,1.264103c-0.168552,0.337029 -0.379211,0.665707 -0.632023,0.985958c-0.252838,0.32019 -0.573059,0.61517 -0.96069,0.88483c-0.539341,0.370789 -1.137669,0.632019 -1.794991,0.783749c-0.65731,0.168522 -1.331478,0.252811 -2.022488,0.252811l0,0m12.294308,-7.685551l0,-4.44952c0,-1.887638 0,-3.15168 0,-3.792179c0,-0.657291 -0.016838,-1.179749 -0.05056,-1.56744c0,-0.01685 0,-0.025269 0,-0.025269c0,-0.016853 0,-0.033691 0,-0.050602c-0.01685,-0.438171 -0.101139,-0.76685 -0.252808,-0.985958c-0.13483,-0.219063 -0.41293,-0.370792 -0.83429,-0.455082c-0.050571,-0.016788 -0.117981,-0.025211 -0.20224,-0.025269c-0.084263,-0.016781 -0.168552,-0.025272 -0.252811,-0.025272c-0.06741,-0.016838 -0.14328,-0.025269 -0.227539,-0.025269c-0.06741,0 -0.1264,0 -0.176971,0c-0.050571,0 -0.101131,-0.008419 -0.151669,-0.025269c-0.033722,-0.033691 -0.050602,-0.075863 -0.050571,-0.1264c-0.000031,-0.084293 0.033691,-0.13483 0.101109,-0.151733c0.06744,-0.033688 0.168541,-0.050537 0.303371,-0.050537c0.134861,0 0.26968,0 0.40451,0c0.151669,0 0.303379,0 0.455078,0c0.168522,0.01685 0.32864,0.025269 0.48035,0.025269c0.16851,0 0.32864,0 0.480312,0c0.269688,0.016911 0.497219,0.033749 0.682617,0.050541c0.20224,0.000061 0.320221,0.000061 0.353912,0c0.050568,0.000061 0.370789,0.000061 0.96069,0c0.60675,0.000061 1.25565,0.000061 1.94669,0c0.657291,0.000061 1.264042,0.000061 1.820251,0c0.573029,-0.016792 0.926968,-0.025211 1.061798,-0.025272c0.235962,-0.016788 0.446621,-0.033688 0.63205,-0.050537c0.20224,-0.033691 0.353912,-0.05896 0.455051,-0.075871c0.033718,0.000061 0.05899,-0.008362 0.075859,-0.025272c0.033691,-0.016838 0.05896,-0.025269 0.07584,-0.025269c-0.000031,-0.016838 -0.000031,-0.025261 0,-0.025261c0.01685,0 0.025269,0 0.025269,0c0.033691,-0.01685 0.05899,-0.025269 0.075832,-0.02533c0.03373,-0.016788 0.067421,-0.025208 0.101139,-0.025269c0.033691,0.000061 0.05899,0.02533 0.07584,0.075859c0.016842,0.033691 0.025261,0.08429 0.025291,0.15168c-0.000031,0.06744 -0.016872,0.15173 -0.05056,0.2528c-0.01688,0.101139 -0.042152,0.24445 -0.07584,0.42981c-0.01688,0.067451 -0.033722,0.14325 -0.050571,0.227539c-0.000031,0.084293 -0.00845,0.176941 -0.025299,0.27808c0,0.06744 -0.008419,0.185421 -0.025272,0.353943c-0.016869,0.151669 -0.025288,0.320248 -0.025257,0.505619c-0.01688,0.168579 -0.03373,0.328671 -0.050571,0.480339c-0.000031,0.151741 -0.008461,0.26123 -0.025299,0.328682c0,0.016838 0,0.033688 0,0.050529c0,0 0,0 0,0c-0.01685,0.050598 -0.042152,0.101139 -0.07584,0.15168c-0.016842,0.050591 -0.050571,0.075859 -0.101131,0.075859c-0.067417,0 -0.117981,-0.025269 -0.151669,-0.075859c-0.03373,-0.06739 -0.050571,-0.15168 -0.050571,-0.252811c0,-0.067379 -0.00843,-0.151669 -0.025269,-0.252808c-0.000031,-0.10107 -0.00845,-0.210632 -0.025299,-0.328613c-0.016853,-0.050598 -0.033722,-0.101139 -0.050571,-0.151737c-0.016842,-0.067383 -0.033722,-0.126343 -0.050541,-0.176941c-0.08429,-0.202271 -0.235989,-0.379211 -0.45507,-0.530941c-0.20224,-0.151669 -0.648899,-0.261169 -1.339909,-0.328609c-0.101131,-0.01685 -0.320251,-0.025269 -0.657322,-0.02533c-0.320248,-0.016788 -0.67416,-0.025211 -1.061787,-0.025269c-0.40451,-0.016792 -0.78376,-0.025272 -1.137672,-0.025272c-0.337097,0 -0.539337,0 -0.60675,0c-0.050568,0 -0.092709,0.02533 -0.1264,0.075859c-0.01688,0.033703 -0.025299,0.09272 -0.025299,0.176952l0,6.952389c0,0.101131 0.008419,0.176941 0.025299,0.227539c0.016842,0.033691 0.05896,0.050533 0.1264,0.050533c0.084263,0 0.32864,0 0.73315,0c0.40448,0 0.84272,0 1.31461,0c0.42136,0 0.81744,0 1.188232,0c0.387638,-0.016842 0.648869,-0.033691 0.783718,-0.050533c0.303379,-0.033749 0.54776,-0.067448 0.733162,-0.101139c0.18539,-0.050598 0.337097,-0.134819 0.455078,-0.252811c0.084259,-0.101128 0.151672,-0.176998 0.20224,-0.227528c0.06741,-0.067451 0.1264,-0.101139 0.176971,-0.101139c0.033688,0 0.05896,0.01685 0.075829,0.050537c0.03373,0.016903 0.050571,0.06744 0.050571,0.151733c0,0.050537 -0.016842,0.14325 -0.050571,0.27808c-0.016869,0.134819 -0.042141,0.311829 -0.075829,0.53088c-0.01688,0.08429 -0.033722,0.176998 -0.050571,0.278137c0,0.10107 -0.008419,0.21069 -0.025269,0.328609c-0.01688,0.084293 -0.033722,0.185432 -0.050571,0.30341c0,0.117981 0,0.235962 0,0.353943c-0.016869,0.21912 -0.033718,0.421329 -0.050568,0.60675c0,0.18536 0,0.303337 0,0.353939c0,0.01685 0,0.042118 0,0.075809c0,0.016911 0,0.033749 0,0.050598c0,0.101131 -0.016872,0.185364 -0.05056,0.2528c-0.016853,0.06739 -0.05899,0.101143 -0.126411,0.101143c-0.06741,0 -0.117981,-0.01685 -0.151669,-0.050602c-0.01688,-0.050541 -0.025303,-0.109558 -0.025303,-0.176937c0,-0.13483 -0.008419,-0.26123 -0.025269,-0.379211c0,-0.13483 -0.025299,-0.28656 -0.075859,-0.455082c-0.01685,-0.033688 -0.03373,-0.06744 -0.050541,-0.101128c-0.000031,-0.033691 -0.00845,-0.06739 -0.025299,-0.101139c-0.06741,-0.151672 -0.193821,-0.294922 -0.379211,-0.429752c-0.168549,-0.134819 -0.455078,-0.219109 -0.859558,-0.252869c-0.151703,-0.016781 -0.396091,-0.033691 -0.73315,-0.050529c-0.320251,-0.01685 -0.657322,-0.025272 -1.011261,-0.025272c-0.42136,-0.01685 -0.809029,-0.025269 -1.162941,-0.025269c-0.353939,-0.01685 -0.589901,-0.025272 -0.707878,-0.025272c-0.067421,0 -0.117981,0.016853 -0.15168,0.050541c-0.016872,0.033691 -0.025291,0.075859 -0.025291,0.1264l0,2.199459c0,0.151741 0,0.353951 0,0.60675c0,0.252811 0,0.52253 0,0.809021c0,0.117989 0,0.23597 0,0.353951c0,0.101131 0,0.21069 0,0.328609c0,0.488831 0,0.952271 0,1.390499c0,0.43824 0,0.724731 0,0.859562c0.033691,0.876408 0.219112,1.44104 0.556179,1.693848c0.353943,0.252811 1.146091,0.379211 2.376461,0.379211c0.168522,0 0.35392,0 0.55619,0c0.219082,0 0.438198,-0.008419 0.65731,-0.025269c0.21909,-0.016842 0.429779,-0.04211 0.632019,-0.075871c0.21909,-0.050529 0.41291,-0.109489 0.58149,-0.176941c0.337063,-0.134819 0.58987,-0.33709 0.758419,-0.60675c0.168552,-0.286499 0.294952,-0.69104 0.379242,-1.213501c0.033691,-0.134819 0.05896,-0.227539 0.07584,-0.278069c0.033691,-0.067451 0.084259,-0.101139 0.151669,-0.101139c0.06741,0 0.109562,0.033688 0.126431,0.101139c0.016819,0.067379 0.025242,0.14325 0.025272,0.22747c-0.000031,0.000069 -0.000031,0.008492 0,0.02533c-0.000031,0 -0.000031,0.00843 0,0.025269c-0.000031,0.050541 -0.016872,0.210701 -0.050571,0.48035c-0.016869,0.252811 -0.05056,0.522461 -0.101131,0.809021c0,0.084229 -0.008419,0.176941 -0.025269,0.27808c-0.01688,0.08429 -0.025299,0.168522 -0.025269,0.252811c-0.033752,0.117977 -0.059021,0.235958 -0.075871,0.353939c-0.016872,0.117981 -0.033722,0.21069 -0.05056,0.278069c-0.084263,0.320263 -0.21067,0.505623 -0.379223,0.556221c-0.168537,0.050529 -0.497189,0.075802 -0.985958,0.075802c-0.96069,0 -1.794979,-0.008423 -2.502869,-0.025272c-0.691013,-0.016838 -1.28091,-0.033688 -1.76968,-0.050529c-0.50565,-0.01685 -0.918552,-0.033749 -1.23877,-0.050598c-0.303413,-0.016853 -0.54776,-0.025272 -0.733192,-0.025272c-0.033688,0 -0.151669,0 -0.353909,0c-0.18539,0.01685 -0.40451,0.033691 -0.657322,0.050602c-0.06741,0 -0.13485,0 -0.202271,0c-0.06741,0 -0.14325,0 -0.227509,0c-0.18539,0 -0.370811,0 -0.556179,0c-0.185421,0.016838 -0.34552,0.025269 -0.48035,0.025269c-0.13485,0 -0.235989,-0.01685 -0.303371,-0.050598c-0.06744,-0.016853 -0.101139,-0.05896 -0.101139,-0.1264c0,-0.033703 0.01685,-0.06739 0.050571,-0.101082c0.033688,-0.033749 0.084259,-0.050598 0.151669,-0.050598c0.050571,0 0.109562,0 0.176979,0c0.06741,-0.016842 0.134823,-0.025272 0.202271,-0.025272c0.06741,-0.016838 0.134819,-0.025261 0.20224,-0.025261c0.06741,-0.01685 0.1264,-0.03376 0.176971,-0.050598c0.252808,-0.050541 0.421349,-0.202209 0.505608,-0.455082c0.101143,-0.252808 0.176971,-0.564579 0.227543,-0.93536c0.06741,-0.539368 0.101109,-1.280949 0.101139,-2.2248c0.016838,-0.960629 0.025269,-2.047787 0.025269,-3.261288l0,-0.025272m23.571381,7.685551c-1.887703,0 -3.505707,-0.227539 -4.854042,-0.682617c-1.331478,-0.455082 -2.494408,-1.129211 -3.488796,-2.022522c-0.724731,-0.640438 -1.297791,-1.331478 -1.719143,-2.073059c-0.42136,-0.758419 -0.733158,-1.516842 -0.935398,-2.27533c-0.151699,-0.53931 -0.261261,-1.07019 -0.328671,-1.592712c-0.050541,-0.53931 -0.07584,-1.053349 -0.07584,-1.542179c0,-0.539299 0.06741,-1.188171 0.202271,-1.946648c0.151669,-0.758423 0.421329,-1.54211 0.80899,-2.351143c0.20224,-0.45507 0.455048,-0.901669 0.75843,-1.339897c0.303368,-0.438232 0.65731,-0.859562 1.061817,-1.264103c0.75843,-0.758419 1.744423,-1.398857 2.957924,-1.921391c1.230347,-0.522457 2.814636,-0.783688 4.752869,-0.783688c0.353943,0 0.741577,0.00843 1.162956,0.025269c0.438171,0.016911 0.884834,0.050602 1.339912,0.101139c0.20224,0.033752 0.396057,0.06744 0.581451,0.101131c0.20224,0.01685 0.396057,0.042179 0.581482,0.075871c0.48877,0.08429 0.935394,0.160091 1.339905,0.227478c0.421349,0.06744 0.834259,0.118042 1.2388,0.151733c0.134789,0.01685 0.219086,0.050537 0.2528,0.101067c0.050545,0.03376 0.075813,0.092781 0.075844,0.177013c-0.000031,0.06744 -0.008453,0.168568 -0.025269,0.303337c-0.016876,0.118042 -0.033752,0.294983 -0.050575,0.530952c-0.016869,0.08429 -0.033714,0.176998 -0.05056,0.278069c-0.000038,0.08429 -0.000038,0.185429 0,0.30341c-0.016876,0.151672 -0.025299,0.320251 -0.025269,0.505611c-0.000031,0.168518 -0.008461,0.34552 -0.025299,0.530888c0,0.151733 0,0.311832 0,0.480343c0,0.151737 0,0.294991 0,0.42981c0,0.15168 -0.008461,0.286499 -0.025269,0.40448c-0.000031,0.101139 -0.000031,0.185429 0,0.252808c-0.016884,0.185432 -0.042183,0.320251 -0.075844,0.404541c-0.016869,0.08429 -0.067436,0.126411 -0.151695,0.126411c-0.08429,0 -0.14328,-0.042122 -0.176971,-0.126411c-0.016884,-0.101128 -0.025299,-0.235958 -0.025269,-0.404541c-0.000031,-0.050537 -0.000031,-0.092648 0,-0.1264c-0.000031,-0.050537 -0.000031,-0.101139 0,-0.151669c-0.033752,-0.455078 -0.14328,-0.88483 -0.328674,-1.289371c-0.185402,-0.421329 -0.42981,-0.758427 -0.733162,-1.011227c-0.438225,-0.387642 -1.112389,-0.724731 -2.022484,-1.011292c-0.910164,-0.286499 -1.921425,-0.429749 -3.033783,-0.429749c-1.483162,0 -2.654541,0.160149 -3.514099,0.480339c-0.842712,0.320248 -1.500031,0.674198 -1.971931,1.061829c-0.06741,0.050541 -0.1264,0.101139 -0.176968,0.151672c-0.05056,0.050598 -0.101131,0.101139 -0.151703,0.15168c-0.926968,0.876457 -1.542137,1.87085 -1.84552,2.983208c-0.28653,1.11237 -0.429779,2.317451 -0.429779,3.615242c0,2.410149 0.842682,4.559078 2.528111,6.446709c1.702271,1.87085 3.901764,2.80621 6.59845,2.80621c0.943817,0 1.78653,-0.075798 2.528107,-0.227531c0.741577,-0.168518 1.365173,-0.514038 1.870811,-1.036499c0.117989,-0.13483 0.227539,-0.286499 0.328682,-0.455078c0.101097,-0.168522 0.193787,-0.34552 0.278069,-0.530891c0.084259,-0.235958 0.15168,-0.45507 0.202278,-0.657341c0.067383,-0.202209 0.10952,-0.36237 0.126404,-0.48035c0.033691,-0.134827 0.067383,-0.227539 0.101128,-0.27808c0.033669,-0.067379 0.084229,-0.101128 0.15168,-0.101128c0.067383,0 0.10952,0.04211 0.126404,0.1264c0.033691,0.067448 0.050537,0.151669 0.050568,0.252808c-0.000031,0.050602 -0.025299,0.261292 -0.075836,0.63208c-0.050606,0.353882 -0.109596,0.741581 -0.176971,1.162903c-0.033722,0.168518 -0.067444,0.34552 -0.101135,0.530949c-0.03373,0.168522 -0.067444,0.328609 -0.101135,0.480282c-0.016838,0.08429 -0.033722,0.16016 -0.050545,0.227539c-0.016869,0.067448 -0.033745,0.134888 -0.05056,0.202271c-0.016876,0.050598 -0.03373,0.101139 -0.050568,0.15168c-0.000031,0.033749 -0.008446,0.06744 -0.025299,0.101128c-0.033722,0.08429 -0.075836,0.151672 -0.126396,0.202271c-0.033737,0.050541 -0.09272,0.101139 -0.176956,0.151672c-0.033745,0.01685 -0.075859,0.033688 -0.126427,0.050598c-0.033722,0.01685 -0.08429,0.042122 -0.151672,0.075809c-0.370819,0.134819 -0.859589,0.244381 -1.466309,0.328671c-0.589943,0.101139 -1.196693,0.168522 -1.820282,0.202209c-0.219116,0 -0.438194,0 -0.657288,0c-0.202271,0.016911 -0.404541,0.02533 -0.60675,0.02533l0,0m10.108643,-7.685551l0,-4.449516c0,-1.88763 0,-3.151672 0,-3.792183c0,-0.65728 -0.016869,-1.179737 -0.050575,-1.56744c0,-0.01685 0,-0.025269 0,-0.025269c0,-0.016842 0,-0.033691 0,-0.050602c-0.016869,-0.438168 -0.101128,-0.766838 -0.252831,-0.985958c-0.134827,-0.219051 -0.412903,-0.370789 -0.834259,-0.455082c-0.050568,-0.016777 -0.117981,-0.0252 -0.202271,-0.025269c-0.084259,-0.016781 -0.168518,-0.025261 -0.252808,-0.025261c-0.067421,-0.01685 -0.14325,-0.025269 -0.227509,-0.025269c-0.067451,0 -0.126442,0 -0.176971,0c-0.050568,0 -0.101143,-0.00843 -0.151711,-0.025269c-0.033691,-0.033691 -0.05056,-0.075871 -0.05056,-0.126411c0,-0.08429 0.033722,-0.134819 0.101128,-0.15173c0.067413,-0.033691 0.168556,-0.050541 0.303383,-0.050541c0.134819,0 0.269653,0 0.40451,0c0.151672,0 0.303368,0 0.45504,0c0.168549,0.01685 0.328651,0.025269 0.480347,0.025269c0.168556,0 0.328651,0 0.480354,0c0.269646,0.016911 0.497192,0.033752 0.682587,0.050541c0.20224,0.000061 0.320221,0.000061 0.353943,0c0.067413,0.000061 0.219078,0.000061 0.455078,0c0.2528,-0.016788 0.53933,-0.03363 0.85955,-0.050541c0.050568,0 0.101112,0 0.15168,0c0.067413,0 0.126404,0 0.176971,0c0.252808,0 0.497192,0 0.733177,0c0.235931,-0.016838 0.438171,-0.025269 0.60675,-0.025269c0.185371,0 0.362343,0.00843 0.530891,0.025269c0.185394,0 0.362358,0 0.530914,0c0.640434,0.033752 1.264069,0.13483 1.870819,0.303413c0.60675,0.151669 1.171356,0.412899 1.693848,0.783688c0.101097,0.06744 0.20224,0.15173 0.303368,0.252811c0.11795,0.101128 0.235931,0.219109 0.353951,0.353939c0.269653,0.320251 0.51403,0.724731 0.733154,1.213501c0.235954,0.471928 0.353905,1.011288 0.353935,1.618038c-0.000031,0.926941 -0.22757,1.870792 -0.68261,2.83149c-0.43821,0.960693 -1.230347,1.963501 -2.376442,3.00848c1.044952,1.331482 1.997223,2.544983 2.856781,3.640503c0.876411,1.09552 1.677002,2.039368 2.401741,2.831478c0.69101,0.724739 1.29776,1.196659 1.820251,1.415779c0.522461,0.219112 0.94381,0.353943 1.264069,0.40448c0.235931,0.033752 0.438202,0.059021 0.60675,0.075863c0.185394,0 0.31179,0 0.379242,0c0.067375,0 0.11795,0.01685 0.151672,0.050598c0.050537,0.033691 0.075836,0.067379 0.075836,0.10107c0,0.067451 -0.042152,0.109558 -0.126411,0.126411c-0.08429,0.033749 -0.244408,0.050598 -0.480347,0.050598l-1.794983,0c-0.69104,0 -1.230347,-0.025269 -1.617981,-0.075871c-0.370819,-0.067379 -0.716339,-0.18536 -1.03656,-0.353939c0,0 -0.008415,0 -0.025269,0c0,-0.01685 -0.008415,-0.025269 -0.025269,-0.025269c-0.151703,-0.084293 -0.294983,-0.176941 -0.429779,-0.27808c-0.13485,-0.101131 -0.269684,-0.210693 -0.40451,-0.328671c-0.387657,-0.337101 -0.783752,-0.76685 -1.188232,-1.289371c-0.40451,-0.522461 -0.867981,-1.129211 -1.390442,-1.820251c-0.08429,-0.101139 -0.168579,-0.210629 -0.252838,-0.328609c-0.08429,-0.117989 -0.168549,-0.227539 -0.252808,-0.328678c-0.033722,-0.050602 -0.075859,-0.101131 -0.126404,-0.151672c-0.033714,-0.06744 -0.067436,-0.1264 -0.101135,-0.176998c-0.421349,-0.556149 -0.817444,-1.087101 -1.188202,-1.592709c-0.353943,-0.522472 -0.63205,-0.910103 -0.83429,-1.162971c-0.016869,-0.016842 -0.033722,-0.025269 -0.050568,-0.025269c0,-0.016842 -0.008453,-0.033691 -0.025261,-0.050533c-0.03373,-0.01685 -0.075874,-0.033699 -0.126442,-0.050598c-0.033722,-0.01685 -0.075829,-0.025269 -0.126373,-0.025269l-3.109619,-0.075871c-0.067406,0.016911 -0.117981,0.042179 -0.151665,0.075871c-0.016884,0.033688 -0.025299,0.08429 -0.025299,0.151669l0,0.581478c0,1.23035 0,2.325932 0,3.28656c0.016838,0.943851 0.058983,1.685432 0.126396,2.224792c0.033691,0.370789 0.109558,0.68256 0.227539,0.935368c0.134834,0.252872 0.387642,0.404541 0.758423,0.455082c0.067421,0.016838 0.134827,0.033749 0.202278,0.050591c0.084251,0 0.16851,0 0.2528,0c0.134827,0.01685 0.26123,0.033699 0.379211,0.050541c0.134827,0 0.23597,0 0.303375,0c0.084267,0 0.134834,0.01685 0.151703,0.050598c0.033691,0.033691 0.050537,0.067379 0.050568,0.10107c-0.000031,0.067451 -0.033714,0.109558 -0.101128,0.126411c-0.067451,0.033749 -0.168549,0.050598 -0.303383,0.050598c-0.08429,0 -0.168549,0 -0.252808,0c-0.08429,0 -0.168549,0 -0.252838,0c-0.269653,0 -0.53933,-0.00843 -0.80899,-0.025269c-0.2528,0 -0.48877,0 -0.707848,0c-0.303413,-0.016911 -0.556213,-0.03376 -0.758453,-0.050602c-0.185402,0 -0.29496,0 -0.328651,0c-0.000031,0 -0.092705,0 -0.278099,0c-0.168549,0.016842 -0.37925,0.033691 -0.63205,0.050602c-0.084259,0 -0.168518,0 -0.252808,0c-0.067421,0 -0.14325,0 -0.227509,0c-0.185432,0.016838 -0.362404,0.025269 -0.530922,0.025269c-0.168541,0 -0.320251,0 -0.45507,0c-0.134834,0 -0.23597,-0.01685 -0.303383,-0.050598c-0.067406,-0.016853 -0.101128,-0.05896 -0.101097,-0.126411c-0.000031,-0.033691 0.016838,-0.067379 0.050529,-0.10107c0.03373,-0.033749 0.08429,-0.050598 0.151711,-0.050598c0.05056,0 0.10955,0 0.176971,0c0.067406,-0.016842 0.134819,-0.025272 0.20224,-0.025272c0.067406,-0.016838 0.134819,-0.025269 0.202271,-0.025269c0.067375,-0.016842 0.126366,-0.033752 0.176964,-0.050591c0.252785,-0.050541 0.421333,-0.202209 0.505615,-0.455082c0.101105,-0.252808 0.176979,-0.564579 0.227509,-0.935368c0.067451,-0.53936 0.101143,-1.280941 0.101143,-2.224792c0.016838,-0.960629 0.025299,-2.047787 0.025299,-3.261288l0,-0.025272m2.022491,-10.517029l0,8.266972c0,0.08429 0.008415,0.15173 0.025299,0.202271c0.033684,0.050598 0.084259,0.092709 0.151665,0.1264c0.185394,0.101139 0.505615,0.193848 0.960693,0.278137c0.471901,0.067383 0.969116,0.109562 1.491577,0.126411c0.033722,0 0.067413,0 0.101143,0c0.033722,0 0.067406,0 0.101128,0c0.134834,0 0.269653,0 0.40448,0c0.151703,-0.01685 0.303383,-0.042179 0.455078,-0.075871c0.168556,-0.033691 0.337074,-0.075871 0.505615,-0.126408c0.185402,-0.06744 0.362366,-0.160091 0.530922,-0.278072c0.438194,-0.30341 0.800568,-0.783749 1.08709,-1.44104c0.303375,-0.674198 0.455048,-1.491581 0.455078,-2.452271c-0.000031,-1.58429 -0.396088,-2.82312 -1.188232,-3.71637c-0.775299,-0.89325 -1.837128,-1.339909 -3.185448,-1.339909c-0.370789,0 -0.716309,0.01685 -1.036545,0.050541c-0.303368,0.033749 -0.522484,0.06744 -0.65728,0.101128c-0.067444,0.01685 -0.118004,0.050602 -0.151703,0.101139c-0.033722,0.050541 -0.05056,0.117981 -0.05056,0.202213l0,-0.025272m16.683006,10.517029l0,-4.449528c-0.000031,-1.88763 -0.000031,-3.151669 0,-3.792171c-0.000031,-0.657288 -0.016876,-1.179749 -0.050568,-1.56744c0,-0.01685 0,-0.025269 0,-0.025269c0,-0.01685 0,-0.033691 0,-0.050602c-0.016869,-0.438168 -0.101135,-0.76685 -0.252815,-0.985958c-0.13485,-0.219059 -0.412926,-0.370789 -0.83429,-0.455082c-0.05056,-0.016788 -0.117981,-0.025208 -0.20224,-0.025269c-0.08429,-0.016788 -0.168549,-0.025269 -0.252831,-0.025269c-0.067413,-0.01685 -0.14325,-0.025272 -0.227539,-0.025272c-0.067421,0 -0.126411,0 -0.176941,0c-0.050568,0 -0.101135,-0.008419 -0.151711,-0.025269c-0.033714,-0.033691 -0.050568,-0.075859 -0.050568,-0.1264c0,-0.08429 0.03373,-0.13483 0.101143,-0.15173c0.067406,-0.033699 0.168549,-0.050541 0.303368,-0.050541c0.134834,0 0.269661,0 0.40451,0c0.15168,0 0.303383,0 0.455048,0c0.168556,0.016842 0.328651,0.025269 0.480354,0.025269c0.168549,0 0.328636,0 0.480347,0c0.269653,0.016903 0.497192,0.033752 0.682579,0.050533c0.202271,0.000069 0.320251,0.000069 0.353951,0c0.05056,0.000069 0.370789,0.000069 0.960693,0c0.60675,0.000069 1.255646,0.000069 1.946648,0c0.657318,0.000069 1.264069,0.000069 1.820259,0c0.573051,-0.016781 0.926971,-0.0252 1.061821,-0.025261c0.235939,-0.016792 0.446632,-0.033699 0.632019,-0.050541c0.20224,-0.033691 0.353951,-0.05896 0.455078,-0.075871c0.033691,0.000061 0.05896,-0.008358 0.075844,-0.025269c0.033691,-0.016842 0.05899,-0.025272 0.075829,-0.025272c0,-0.016838 0,-0.025269 0,-0.025269c0.016853,0 0.025269,0 0.025299,0c0.033691,-0.016838 0.05896,-0.025261 0.075844,-0.02533c0.033691,-0.016781 0.067406,-0.0252 0.101128,-0.025261c0.033691,0.000061 0.05896,0.02533 0.075844,0.075859c0.016846,0.033691 0.025269,0.084293 0.025269,0.151672c0,0.067448 -0.016853,0.151741 -0.050545,0.252808c-0.016869,0.101143 -0.042168,0.244453 -0.075867,0.429813c-0.016838,0.067448 -0.033722,0.14325 -0.05056,0.227539c0,0.08429 -0.00843,0.176941 -0.025269,0.27808c0,0.06744 -0.008461,0.185421 -0.025269,0.353939c-0.016884,0.151669 -0.025307,0.320251 -0.025307,0.505619c-0.016876,0.168571 -0.033714,0.328671 -0.050568,0.480343c0,0.151737 -0.008415,0.261227 -0.025269,0.328678c0,0.016842 0,0.033691 0,0.050529c0,0 0,0 0,0c-0.016869,0.050602 -0.042137,0.101139 -0.075829,0.15168c-0.016884,0.050591 -0.050598,0.075859 -0.101143,0.075859c-0.067406,0 -0.117981,-0.025269 -0.151672,-0.075859c-0.033714,-0.06739 -0.050598,-0.15168 -0.050568,-0.252808c-0.000031,-0.06739 -0.008446,-0.151672 -0.025299,-0.252811c0,-0.10107 -0.008423,-0.210629 -0.025269,-0.328609c-0.016869,-0.050602 -0.033722,-0.101139 -0.05056,-0.151741c-0.016884,-0.067379 -0.03373,-0.126339 -0.050568,-0.176941c-0.084297,-0.202271 -0.235962,-0.379208 -0.455055,-0.530937c-0.202271,-0.151672 -0.648926,-0.261173 -1.339935,-0.328621c-0.101105,-0.016842 -0.320221,-0.025261 -0.65728,-0.02533c-0.320251,-0.016781 -0.674202,-0.0252 -1.061836,-0.025261c-0.404503,-0.016788 -0.783714,-0.025269 -1.137665,-0.025269c-0.33709,0 -0.53933,0 -0.60675,0c-0.050568,0 -0.092682,0.02533 -0.126404,0.075859c-0.016846,0.033688 -0.025269,0.09272 -0.025269,0.176941l0,6.9524c0,0.101128 0.008423,0.176937 0.025269,0.227539c0.016846,0.033688 0.05899,0.050529 0.126404,0.050529c0.084259,0 0.328651,0 0.733162,0c0.40451,0 0.842705,0 1.314629,0c0.421356,0 0.817421,0 1.188225,0c0.387642,-0.016842 0.648872,-0.033691 0.78373,-0.050529c0.303345,-0.03376 0.547737,-0.067451 0.733154,-0.101139c0.185356,-0.050602 0.337067,-0.13483 0.455048,-0.252811c0.084259,-0.101131 0.151672,-0.177002 0.202271,-0.227539c0.067383,-0.06744 0.126373,-0.101131 0.176971,-0.101131c0.033691,0 0.05896,0.01685 0.075836,0.050541c0.033691,0.016899 0.050537,0.06744 0.05056,0.15173c-0.000023,0.050541 -0.016869,0.14325 -0.05056,0.27808c-0.016876,0.134819 -0.042145,0.311821 -0.075836,0.53088c-0.016884,0.08429 -0.033722,0.176998 -0.050568,0.278141c-0.000031,0.10107 -0.008453,0.21069 -0.025299,0.328609c-0.016846,0.08429 -0.033722,0.185421 -0.050537,0.30341c-0.000023,0.117981 -0.000023,0.235958 0,0.353939c-0.016876,0.219112 -0.03373,0.421322 -0.050568,0.60675c-0.000031,0.18536 -0.000031,0.303341 0,0.353939c-0.000031,0.01685 -0.000031,0.042122 0,0.075809c-0.000031,0.016903 -0.000031,0.033752 0,0.050602c-0.000031,0.101128 -0.016876,0.18536 -0.050568,0.2528c-0.016884,0.06739 -0.059021,0.101139 -0.126404,0.101139c-0.067444,0 -0.118004,-0.01685 -0.151711,-0.050598c-0.016838,-0.050541 -0.025299,-0.109562 -0.025269,-0.176941c-0.000031,-0.13483 -0.008446,-0.26123 -0.025291,-0.379211c0,-0.13483 -0.025269,-0.28656 -0.075836,-0.455078c-0.016884,-0.033691 -0.033722,-0.06744 -0.050568,-0.101131c0,-0.033699 -0.008423,-0.06739 -0.025276,-0.101139c-0.067436,-0.151669 -0.193848,-0.294922 -0.379204,-0.429752c-0.168579,-0.134827 -0.455086,-0.219109 -0.859596,-0.252869c-0.151695,-0.016781 -0.396049,-0.033688 -0.733147,-0.050529c-0.320221,-0.01685 -0.657318,-0.025269 -1.01123,-0.025269c-0.421387,-0.01685 -0.809021,-0.025272 -1.162971,-0.025272c-0.353935,-0.01685 -0.589897,-0.025269 -0.707878,-0.025269c-0.067413,0 -0.11795,0.016838 -0.151672,0.050541c-0.016846,0.033688 -0.025269,0.075859 -0.025269,0.1264l0,2.199459c0,0.151741 0,0.353951 0,0.60675c0,0.252808 0,0.522518 0,0.809017c0,0.117981 0,0.235973 0,0.353951c0,0.101131 0,0.21069 0,0.328609c0,0.488831 0,0.952271 0,1.390503c0,0.438229 0,0.724728 0,0.859558c0.033691,0.8764 0.219078,1.44104 0.556183,1.693851c0.353905,0.252808 1.146088,0.379208 2.376427,0.379208c0.168549,0 0.353951,0 0.556221,0c0.219078,0 0.438171,-0.008419 0.657288,-0.025269c0.219086,-0.01685 0.429771,-0.04211 0.63205,-0.075871c0.219086,-0.050529 0.412903,-0.109489 0.581451,-0.176941c0.33709,-0.134819 0.589905,-0.33709 0.758453,-0.606747c0.168518,-0.286503 0.294922,-0.69104 0.379211,-1.213501c0.033684,-0.13483 0.05899,-0.227539 0.075867,-0.278072c0.033661,-0.067448 0.084229,-0.101139 0.151672,-0.101139c0.067406,0 0.109528,0.033691 0.126396,0.101139c0.016853,0.067383 0.025269,0.143253 0.025269,0.22747c0,0.000061 0,0.008492 0,0.02533c0,0 0,0.00843 0,0.025272c0,0.050541 -0.016838,0.210701 -0.050529,0.48035c-0.016876,0.252808 -0.050598,0.522457 -0.101135,0.809017c-0.000031,0.084232 -0.008453,0.176941 -0.025299,0.27808c-0.016846,0.084293 -0.025276,0.16851 -0.025276,0.2528c-0.033714,0.117992 -0.05899,0.235973 -0.075829,0.353951c-0.016876,0.117981 -0.03373,0.21069 -0.050568,0.278072c-0.08429,0.320248 -0.210693,0.505619 -0.379211,0.556217c-0.168579,0.050533 -0.497231,0.075802 -0.985992,0.075802c-0.960693,0 -1.794983,-0.008419 -2.502838,-0.025269c-0.69104,-0.016842 -1.280922,-0.033691 -1.769691,-0.050533c-0.505638,-0.01685 -0.918579,-0.03376 -1.2388,-0.050598c-0.303368,-0.01685 -0.54776,-0.025269 -0.733147,-0.025269c-0.033691,0 -0.151672,0 -0.353943,0c-0.185394,0.01685 -0.40448,0.033688 -0.657288,0.050598c-0.067451,0 -0.134857,0 -0.202271,0c-0.067421,0 -0.14325,0 -0.227539,0c-0.185402,0 -0.370789,0 -0.556183,0c-0.185394,0.016842 -0.34552,0.025269 -0.480347,0.025269c-0.134834,0 -0.235962,-0.01685 -0.303383,-0.050598c-0.067406,-0.01685 -0.101128,-0.05896 -0.101128,-0.126411c0,-0.033688 0.016869,-0.067379 0.050568,-0.10107c0.033722,-0.033749 0.08429,-0.050598 0.151703,-0.050598c0.050568,0 0.109558,0 0.176971,0c0.067406,-0.016842 0.134827,-0.025269 0.20224,-0.025269c0.067406,-0.016842 0.134827,-0.025272 0.20224,-0.025272c0.067406,-0.016838 0.126396,-0.033749 0.176971,-0.050591c0.252808,-0.050537 0.421356,-0.202209 0.505646,-0.455078c0.101097,-0.252811 0.176941,-0.564579 0.227539,-0.935371c0.067383,-0.53936 0.101105,-1.280941 0.101105,-2.224789c0.016846,-0.960632 0.025269,-2.047791 0.025299,-3.261292l0,-0.025269m21.797325,-10.69397l0,10.69397c0,1.23035 0,2.325928 0,3.28656c0.016853,0.943848 0.05899,1.685429 0.126442,2.224789c0.033691,0.370792 0.109528,0.68256 0.227509,0.935371c0.134819,0.252869 0.387634,0.404541 0.758453,0.455078c0.067406,0.016842 0.134827,0.033752 0.20224,0.050591c0.084259,0 0.168549,0 0.252808,0c0.134819,0.01685 0.26123,0.033691 0.379211,0.050541c0.134827,0 0.235962,0 0.303398,0c0.084259,0 0.134804,0.01685 0.15168,0.050598c0.033691,0.033691 0.05056,0.067383 0.05056,0.10107c0,0.067451 -0.033722,0.109562 -0.101128,0.126411c-0.067413,0.033749 -0.168549,0.050591 -0.303383,0.050591c-0.084251,0 -0.168541,0 -0.2528,0c-0.08429,0 -0.168549,0 -0.252808,0c-0.269691,0 -0.539337,-0.008419 -0.80899,-0.025261c-0.252838,0 -0.4888,0 -0.707893,0c-0.303368,-0.016911 -0.556206,-0.03376 -0.758446,-0.050598c-0.185394,0 -0.294952,0 -0.328644,0c-0.03373,0 -0.151711,0 -0.353951,0c-0.185387,0.016838 -0.404503,0.033688 -0.657318,0.050598c-0.067406,0 -0.134819,0 -0.20224,0c-0.067436,0 -0.14328,0 -0.227531,0c-0.185394,0 -0.370789,0 -0.55619,0c-0.185387,0.016842 -0.34552,0.025261 -0.480339,0.025261c-0.134857,0 -0.23597,-0.016842 -0.303375,-0.050591c-0.067413,-0.01685 -0.101135,-0.05896 -0.101135,-0.126411c0,-0.033688 0.016846,-0.067379 0.05056,-0.10107c0.033691,-0.033749 0.084267,-0.050598 0.151711,-0.050598c0.050529,0 0.10952,0 0.176971,0c0.067383,-0.01685 0.134789,-0.025269 0.20224,-0.025269c0.067413,-0.016842 0.134819,-0.025272 0.20224,-0.025272c0.067413,-0.016838 0.126404,-0.033749 0.176971,-0.050598c0.252808,-0.050529 0.421349,-0.202202 0.505608,-0.45507c0.101143,-0.252811 0.176971,-0.564579 0.227539,-0.935371c0.067421,-0.539368 0.101143,-1.280941 0.101143,-2.224789c0.016838,-0.960632 0.025269,-2.047791 0.025269,-3.261292l0,-10.719238l-3.741638,0.050541c-0.775299,0.033749 -1.348328,0.109558 -1.719124,0.227539c-0.370789,0.101128 -0.657318,0.303398 -0.859558,0.60675c-0.134819,0.219109 -0.235962,0.387688 -0.303368,0.505608c-0.050568,0.101143 -0.092712,0.193851 -0.126404,0.27808c-0.03373,0.101192 -0.075867,0.168583 -0.126404,0.202271c-0.033722,0.033752 -0.075874,0.050602 -0.126404,0.050602c-0.033722,0 -0.067451,-0.01685 -0.101143,-0.050602c-0.016838,-0.050541 -0.025299,-0.109501 -0.025299,-0.176941c0,-0.067448 0.025299,-0.227539 0.075874,-0.480347c0.050568,-0.252811 0.109558,-0.53088 0.176971,-0.834293c-0.000031,-0.01685 -0.000031,-0.033688 0,-0.050598c0.016846,-0.016781 0.025269,-0.033691 0.025269,-0.050529c0.067406,-0.286499 0.126396,-0.547729 0.176971,-0.783699c0.050568,-0.235962 0.084259,-0.379211 0.101135,-0.429813c0.016838,-0.033688 0.025269,-0.067379 0.025269,-0.101128c0.016846,-0.033691 0.033722,-0.067379 0.05056,-0.101139c0.016853,-0.067383 0.042152,-0.126343 0.075844,-0.176941c0.033722,-0.067379 0.067406,-0.101131 0.101128,-0.101131c0.050575,0 0.109535,0.016911 0.176979,0.050602c0.067413,0.033688 0.151672,0.067379 0.2528,0.10107c0.084259,0.033749 0.176971,0.06744 0.278084,0.101139c0.117981,0.016899 0.252838,0.033749 0.40451,0.050591c0.101128,0.01685 0.20224,0.033688 0.303368,0.050537c0.101143,0 0.20224,0 0.303383,0c0.28653,0.016853 0.556175,0.033752 0.809021,0.050541c0.269646,0.016899 0.46347,0.02533 0.581444,0.025272l9.480507,-0.025272c0.40448,0.016899 0.75,0.016899 1.03653,0c0.303375,-0.033688 0.556175,-0.06739 0.758446,-0.101078c0.185371,-0.033691 0.337074,-0.059021 0.455048,-0.075863c0.117981,-0.033688 0.20224,-0.050537 0.252815,-0.050598c0.067406,0.000061 0.101128,0.033749 0.101128,0.101131c0.016853,0.050598 0.025269,0.11805 0.025269,0.202267c0,0.15168 -0.008415,0.337101 -0.025269,0.556221c0,0.219112 0,0.446651 0,0.682552c0,0.050598 0,0.109558 0,0.17701c0,0.050529 0,0.101128 0,0.151669c-0.016869,0.28656 -0.033722,0.547791 -0.05056,0.783691c0,0.219109 0,0.362431 0,0.42981c0,0.117981 -0.016876,0.202271 -0.050568,0.252808c-0.033722,0.050591 -0.075844,0.075863 -0.126411,0.075863c-0.067413,0 -0.117981,-0.025272 -0.151672,-0.075863c-0.016869,-0.067387 -0.033714,-0.185368 -0.050568,-0.353947l-0.025261,-0.303341c-0.050598,-0.370792 -0.278137,-0.682621 -0.682617,-0.935432c-0.40451,-0.26965 -1.213501,-0.412899 -2.427002,-0.42981l-3.185463,-0.075798l0,0" id="text3225" stroke-width="1px" fill="#cccccc"/>
  </g>
 </g>
</svg>